M48
INCH,TZ
T1C0.010
T2C0.025
T3C0.028
T4C0.035
T5C0.039
T6C0.040
%
G90
G05
T1
X57874Y-34252
X57874Y-34646
X57874Y-35039
X57874Y-35433
X57874Y-35827
X57874Y-36220
X57874Y-36614
X58268Y-34252
X58268Y-34646
X58268Y-35039
X58268Y-35433
X58268Y-35827
X58268Y-36220
X58268Y-36614
X58661Y-34252
X58661Y-34646
X58661Y-35039
X58661Y-35433
X58661Y-35827
X58661Y-36220
X58661Y-36614
X59055Y-34252
X59055Y-34646
X59055Y-35039
X59055Y-35433
X59055Y-35827
X59055Y-36220
X59055Y-36614
X59449Y-34252
X59449Y-34646
X59449Y-35039
X59449Y-35433
X59449Y-35827
X59449Y-36220
X59449Y-36614
X59843Y-34252
X59843Y-34646
X59843Y-35039
X59843Y-35433
X59843Y-35827
X59843Y-36220
X59843Y-36614
X60236Y-34252
X60236Y-34646
X60236Y-35039
X60236Y-35433
X60236Y-35827
X60236Y-36220
X60236Y-36614
T2
X52244Y-31398
X52362Y-30748
X52520Y-38661
X52677Y-36575
X53346Y-38189
X53780Y-41850
X53898Y-38189
X53976Y-38898
X54094Y-39606
X54173Y-33031
X54449Y-35315
X54567Y-30669
X54646Y-34094
X54685Y-40669
X54843Y-37992
X54961Y-35236
X55000Y-41811
X55157Y-34488
X55512Y-28346
X55512Y-28839
X55512Y-29331
X55512Y-29823
X55551Y-31142
X55551Y-42402
X55591Y-33465
X55630Y-34449
X55709Y-37205
X55807Y-30217
X56063Y-32992
X56063Y-37638
X56398Y-30217
X56614Y-31457
X56614Y-33858
X56772Y-37165
X56988Y-30217
X56988Y-30906
X57283Y-31398
X57283Y-31988
X57283Y-32480
X57283Y-32972
X57638Y-39055
X57795Y-39724
X58268Y-30315
X58268Y-30906
X58268Y-31398
X58268Y-31988
X58268Y-32480
X58268Y-32972
X58504Y-42520
X58622Y-28189
X58622Y-28622
X58622Y-29094
X58622Y-29567
X58622Y-30039
X58819Y-31732
X58858Y-38071
X59291Y-28780
X59331Y-31024
X59449Y-37913
X59685Y-29409
X59843Y-40984
X59882Y-38228
X60039Y-39724
X60157Y-31732
X60157Y-38858
X60866Y-32323
X61102Y-33661
X61220Y-37756
X61339Y-30000
X61496Y-35787
X61693Y-30709
X61693Y-37736
X61732Y-36732
X61772Y-33465
X61811Y-31850
X61890Y-37165
X61969Y-36142
X62008Y-31339
X62087Y-39921
X62165Y-30394
X62205Y-40551
X62244Y-34685
X62323Y-35591
X62520Y-33622
X62717Y-33189
X62874Y-34213
X63150Y-28780
X63150Y-41929
X63425Y-31102
X63720Y-39724
X63819Y-29252
X63858Y-35315
X63976Y-32598
X64173Y-33228
X64252Y-34528
X64370Y-38858
X64882Y-38504
X65354Y-40551
X65433Y-31654
T3
X61220Y-41535
X62008Y-41535
T4
X59882Y-28248
X62559Y-28248
T5
X52559Y-33031
X52559Y-35000
T6
X51932Y-29761
X51969Y-41142
X52639Y-29054
X52676Y-41849
X53346Y-28346
X53383Y-42556
X62835Y-36614
X63835Y-36614
X64728Y-28310
X64764Y-42520
X65435Y-29017
X65471Y-41813
X65748Y-33154
X65748Y-34154
X65748Y-35122
X65748Y-36122
X65748Y-37106
X66142Y-29724
X66178Y-41105
T0
M30
