G04 #@! TF.FileFunction,Copper,L2,Inr,Signal*
%FSLAX46Y46*%
G04 Gerber Fmt 4.6, Leading zero omitted, Abs format (unit mm)*
G04 Created by KiCad (PCBNEW (2014-12-04 BZR 5312)-product) date 8/23/2015 4:43:04 PM*
%MOMM*%
G01*
G04 APERTURE LIST*
%ADD10C,0.100000*%
%ADD11R,2.032000X2.032000*%
%ADD12O,2.032000X2.032000*%
%ADD13C,0.900000*%
%ADD14R,1.000000X1.000000*%
%ADD15C,1.727200*%
%ADD16R,2.235200X2.235200*%
%ADD17C,1.500000*%
%ADD18C,2.000000*%
%ADD19C,0.889000*%
%ADD20C,0.254000*%
%ADD21C,0.508000*%
%ADD22C,0.500000*%
G04 APERTURE END LIST*
D10*
D11*
X167000000Y-91750000D03*
D12*
X167000000Y-89210000D03*
D13*
X158900000Y-71750000D03*
X152100000Y-71750000D03*
D14*
X150000000Y-90000000D03*
X150000000Y-89000000D03*
X150000000Y-88000000D03*
X150000000Y-87000000D03*
X149000000Y-90000000D03*
X149000000Y-89000000D03*
X149000000Y-88000000D03*
X149000000Y-87000000D03*
X148000000Y-87000000D03*
X148000000Y-88000000D03*
X148000000Y-90000000D03*
X148000000Y-89000000D03*
X147000000Y-87000000D03*
X147000000Y-93000000D03*
X148000000Y-91000000D03*
X148000000Y-92000000D03*
X148000000Y-93000000D03*
X149000000Y-93000000D03*
X149000000Y-92000000D03*
X149000000Y-91000000D03*
X150000000Y-91000000D03*
X150000000Y-92000000D03*
X150000000Y-93000000D03*
X151000000Y-93000000D03*
X152000000Y-93000000D03*
X153000000Y-93000000D03*
X153000000Y-92000000D03*
X153000000Y-91000000D03*
X153000000Y-90000000D03*
X153000000Y-89000000D03*
X153000000Y-88000000D03*
X153000000Y-87000000D03*
X152000000Y-87000000D03*
X151000000Y-87000000D03*
X151000000Y-88000000D03*
X152000000Y-88000000D03*
X152000000Y-89000000D03*
X151000000Y-89000000D03*
X151000000Y-90000000D03*
X152000000Y-90000000D03*
X152000000Y-91000000D03*
X151000000Y-91000000D03*
X151000000Y-92000000D03*
X152000000Y-92000000D03*
D10*
G36*
X131892237Y-105829078D02*
X130670922Y-104607763D01*
X132107763Y-103170922D01*
X133329078Y-104392237D01*
X131892237Y-105829078D01*
X131892237Y-105829078D01*
G37*
D15*
X133688288Y-106403814D02*
X133903814Y-106188288D01*
X135484339Y-108199865D02*
X135699865Y-107984339D01*
D10*
G36*
X168107763Y-74170922D02*
X169329078Y-75392237D01*
X167892237Y-76829078D01*
X166670922Y-75607763D01*
X168107763Y-74170922D01*
X168107763Y-74170922D01*
G37*
D15*
X166311712Y-73596186D02*
X166096186Y-73811712D01*
X164515661Y-71800135D02*
X164300135Y-72015661D01*
D10*
G36*
X165829078Y-108107763D02*
X164607763Y-109329078D01*
X163170922Y-107892237D01*
X164392237Y-106670922D01*
X165829078Y-108107763D01*
X165829078Y-108107763D01*
G37*
D15*
X166403814Y-106311712D02*
X166188288Y-106096186D01*
X168199865Y-104515661D02*
X167984339Y-104300135D01*
D10*
G36*
X134170922Y-71892237D02*
X135392237Y-70670922D01*
X136829078Y-72107763D01*
X135607763Y-73329078D01*
X134170922Y-71892237D01*
X134170922Y-71892237D01*
G37*
D15*
X133596186Y-73688288D02*
X133811712Y-73903814D01*
X131800135Y-75484339D02*
X132015661Y-75699865D01*
D11*
X167000000Y-86750000D03*
D12*
X167000000Y-84210000D03*
D16*
X167000000Y-94250000D03*
D17*
X157500000Y-105500000D03*
X155500000Y-105500000D03*
D18*
X133500000Y-88900000D03*
X133500000Y-83900000D03*
D11*
X159600000Y-93000000D03*
D12*
X162140000Y-93000000D03*
D19*
X158000000Y-103000000D03*
X161850000Y-100900000D03*
X141300000Y-87500000D03*
X166200000Y-80400000D03*
X141200000Y-85000000D03*
X148000000Y-78500000D03*
X148000000Y-81250000D03*
X148000000Y-79750000D03*
X148000000Y-82500000D03*
X148000000Y-83750000D03*
X144750000Y-78500000D03*
X141000000Y-72000000D03*
X141000000Y-74500000D03*
X141750000Y-76750000D03*
X144750000Y-76750000D03*
X145500000Y-79750000D03*
X145500000Y-81250000D03*
X145500000Y-83750000D03*
X145500000Y-82500000D03*
X143250000Y-76750000D03*
X141000000Y-75750000D03*
X141000000Y-73250000D03*
X161100000Y-79000000D03*
X137600000Y-83900000D03*
X152000000Y-104100000D03*
X152500000Y-100900000D03*
X163000000Y-84400000D03*
X152800000Y-80600000D03*
X150700000Y-78800000D03*
X158300000Y-90400000D03*
X141500000Y-94500000D03*
X139600000Y-89500000D03*
X148900000Y-71600000D03*
X148900000Y-75100000D03*
X148000000Y-77000000D03*
X148900000Y-76300000D03*
X148900000Y-73900000D03*
X148900000Y-72700000D03*
X162500000Y-82800000D03*
X146800000Y-100900000D03*
X138600000Y-77900000D03*
X137400000Y-100600000D03*
X157500000Y-79600000D03*
X139700000Y-106200000D03*
X160400000Y-106500000D03*
X133800000Y-92900000D03*
X135500000Y-97000000D03*
X150600000Y-73100000D03*
X160400000Y-73100000D03*
X136900000Y-97000000D03*
X142400000Y-83800000D03*
X138800000Y-86600000D03*
X149400000Y-80600000D03*
X144200000Y-94400000D03*
X156200000Y-90900000D03*
X151000000Y-96300000D03*
X139300000Y-96500000D03*
X137100000Y-98800000D03*
X163500000Y-98700000D03*
X140100000Y-87600000D03*
X141100000Y-107700000D03*
X152800000Y-98700000D03*
X146400000Y-99200000D03*
X162200000Y-89700000D03*
X158100000Y-88100000D03*
X159300000Y-84300000D03*
X163200000Y-87700000D03*
X138300000Y-89700000D03*
X142400000Y-95600000D03*
X157700000Y-101400000D03*
X157900000Y-77200000D03*
X148600000Y-108000000D03*
X141100000Y-79100000D03*
X133400000Y-98200000D03*
X149500000Y-96700000D03*
X152100000Y-97100000D03*
X136600000Y-106300000D03*
X162100000Y-74300000D03*
X166000000Y-103000000D03*
X133000000Y-78100000D03*
X155800000Y-76200000D03*
X151600000Y-74700000D03*
X143800000Y-86000000D03*
X156700000Y-78000000D03*
X155200000Y-85500000D03*
X159700000Y-86900000D03*
X158800000Y-85400000D03*
X157200000Y-94400000D03*
X138900000Y-103300000D03*
X156800000Y-93300000D03*
X164800000Y-97800000D03*
X155500000Y-95900000D03*
X132700000Y-79750000D03*
X156900000Y-85000000D03*
X156700000Y-95850000D03*
X157400000Y-91800000D03*
X154600000Y-82100000D03*
X157000000Y-80900000D03*
X143800000Y-79900000D03*
D20*
X158000000Y-103000000D02*
X160400000Y-103000000D01*
X161850000Y-101550000D02*
X161850000Y-100900000D01*
X160400000Y-103000000D02*
X161850000Y-101550000D01*
D21*
X147000000Y-88000000D02*
X146400000Y-88000000D01*
X141300000Y-87500000D02*
X143900000Y-87500000D01*
X143900000Y-87500000D02*
X144050000Y-87650000D01*
X144050000Y-87650000D02*
X144600000Y-88200000D01*
X144600000Y-88200000D02*
X146200000Y-88200000D01*
X146400000Y-88000000D02*
X146200000Y-88200000D01*
X146900000Y-91800000D02*
X147000000Y-91900000D01*
X146300000Y-91800000D02*
X146900000Y-91800000D01*
X141500000Y-94600000D02*
X141500000Y-94500000D01*
X145000000Y-91800000D02*
X146300000Y-91800000D01*
X143400000Y-93400000D02*
X145000000Y-91800000D01*
X141300000Y-93400000D02*
X143400000Y-93400000D01*
X141200000Y-93500000D02*
X141300000Y-93400000D01*
X141200000Y-94200000D02*
X141200000Y-93500000D01*
X141500000Y-94500000D02*
X141200000Y-94200000D01*
X146700000Y-89200000D02*
X147000000Y-89000000D01*
X142600000Y-89500000D02*
X142900000Y-89200000D01*
X142900000Y-89200000D02*
X146700000Y-89200000D01*
X139600000Y-89500000D02*
X142600000Y-89500000D01*
D20*
X138900000Y-103300000D02*
X154000000Y-103300000D01*
X158900000Y-96100000D02*
X157200000Y-94400000D01*
X158900000Y-99100000D02*
X158900000Y-96100000D01*
X157600000Y-100400000D02*
X158900000Y-99100000D01*
X156900000Y-100400000D02*
X157600000Y-100400000D01*
X154000000Y-103300000D02*
X156900000Y-100400000D01*
X156800000Y-93300000D02*
X157600000Y-93300000D01*
X164400000Y-97800000D02*
X164800000Y-97800000D01*
X162400000Y-95800000D02*
X164400000Y-97800000D01*
X159500000Y-95800000D02*
X162400000Y-95800000D01*
X158200000Y-94500000D02*
X159500000Y-95800000D01*
X158200000Y-93900000D02*
X158200000Y-94500000D01*
X157600000Y-93300000D02*
X158200000Y-93900000D01*
X132700000Y-79750000D02*
X132700000Y-80650000D01*
X155500000Y-95900000D02*
X155500000Y-99900000D01*
X133900000Y-81100000D02*
X133600000Y-81100000D01*
X136000000Y-83200000D02*
X133900000Y-81100000D01*
X136000000Y-91200000D02*
X136000000Y-83200000D01*
X138500000Y-93700000D02*
X136000000Y-91200000D01*
X138500000Y-99600000D02*
X138500000Y-93700000D01*
X141300000Y-102400000D02*
X138500000Y-99600000D01*
X153000000Y-102400000D02*
X141300000Y-102400000D01*
X155500000Y-99900000D02*
X153000000Y-102400000D01*
X133300000Y-81100000D02*
X133600000Y-81100000D01*
X133000000Y-80800000D02*
X133300000Y-81100000D01*
X132850000Y-80800000D02*
X133000000Y-80800000D01*
X132700000Y-80650000D02*
X132850000Y-80800000D01*
D22*
G36*
X168400000Y-102951836D02*
X167962645Y-102864841D01*
X167421684Y-102972445D01*
X166963079Y-103278875D01*
X166957664Y-103286977D01*
X166994327Y-103198686D01*
X166994672Y-102803050D01*
X166843587Y-102437397D01*
X166564074Y-102157396D01*
X166198686Y-102005673D01*
X165803050Y-102005328D01*
X165794672Y-102008789D01*
X165794672Y-97603050D01*
X165643587Y-97237397D01*
X165364074Y-96957396D01*
X164998686Y-96805673D01*
X164603050Y-96805328D01*
X164433009Y-96875587D01*
X164194672Y-96637250D01*
X164194672Y-87503050D01*
X164043587Y-87137397D01*
X163764074Y-86857396D01*
X163398686Y-86705673D01*
X163094672Y-86705407D01*
X163094672Y-74103050D01*
X162943587Y-73737397D01*
X162664074Y-73457396D01*
X162298686Y-73305673D01*
X161903050Y-73305328D01*
X161537397Y-73456413D01*
X161257396Y-73735926D01*
X161105673Y-74101314D01*
X161105328Y-74496950D01*
X161256413Y-74862603D01*
X161535926Y-75142604D01*
X161901314Y-75294327D01*
X162296950Y-75294672D01*
X162662603Y-75143587D01*
X162942604Y-74864074D01*
X163094327Y-74498686D01*
X163094672Y-74103050D01*
X163094672Y-86705407D01*
X163003050Y-86705328D01*
X162637397Y-86856413D01*
X162357396Y-87135926D01*
X162205673Y-87501314D01*
X162205328Y-87896950D01*
X162356413Y-88262603D01*
X162635926Y-88542604D01*
X163001314Y-88694327D01*
X163396950Y-88694672D01*
X163762603Y-88543587D01*
X164042604Y-88264074D01*
X164194327Y-87898686D01*
X164194672Y-87503050D01*
X164194672Y-96637250D01*
X162878711Y-95321289D01*
X162659077Y-95174534D01*
X162400000Y-95123000D01*
X159780422Y-95123000D01*
X159234197Y-94576775D01*
X160616000Y-94576775D01*
X160825713Y-94536086D01*
X161010032Y-94415008D01*
X161133413Y-94232224D01*
X161138170Y-94208501D01*
X161540718Y-94477475D01*
X162140000Y-94596680D01*
X162739282Y-94477475D01*
X163247329Y-94138009D01*
X163586795Y-93629962D01*
X163706000Y-93030680D01*
X163706000Y-92969320D01*
X163586795Y-92370038D01*
X163247329Y-91861991D01*
X163194672Y-91826806D01*
X163194672Y-89503050D01*
X163043587Y-89137397D01*
X162764074Y-88857396D01*
X162398686Y-88705673D01*
X162003050Y-88705328D01*
X161637397Y-88856413D01*
X161357396Y-89135926D01*
X161205673Y-89501314D01*
X161205328Y-89896950D01*
X161356413Y-90262603D01*
X161635926Y-90542604D01*
X162001314Y-90694327D01*
X162396950Y-90694672D01*
X162762603Y-90543587D01*
X163042604Y-90264074D01*
X163194327Y-89898686D01*
X163194672Y-89503050D01*
X163194672Y-91826806D01*
X162739282Y-91522525D01*
X162140000Y-91403320D01*
X161540718Y-91522525D01*
X161139281Y-91790756D01*
X161136086Y-91774287D01*
X161015008Y-91589968D01*
X160832224Y-91466587D01*
X160694672Y-91439002D01*
X160694672Y-86703050D01*
X160543587Y-86337397D01*
X160264074Y-86057396D01*
X159898686Y-85905673D01*
X159666938Y-85905470D01*
X159794327Y-85598686D01*
X159794672Y-85203050D01*
X159783591Y-85176233D01*
X159862603Y-85143587D01*
X160142604Y-84864074D01*
X160294327Y-84498686D01*
X160294672Y-84103050D01*
X160143587Y-83737397D01*
X159864074Y-83457396D01*
X159498686Y-83305673D01*
X159103050Y-83305328D01*
X158894672Y-83391428D01*
X158894672Y-77003050D01*
X158743587Y-76637397D01*
X158464074Y-76357396D01*
X158098686Y-76205673D01*
X157703050Y-76205328D01*
X157337397Y-76356413D01*
X157057396Y-76635926D01*
X156905673Y-77001314D01*
X156905666Y-77008571D01*
X156898686Y-77005673D01*
X156794672Y-77005582D01*
X156794672Y-76003050D01*
X156643587Y-75637397D01*
X156364074Y-75357396D01*
X155998686Y-75205673D01*
X155603050Y-75205328D01*
X155237397Y-75356413D01*
X154957396Y-75635926D01*
X154805673Y-76001314D01*
X154805328Y-76396950D01*
X154956413Y-76762603D01*
X155235926Y-77042604D01*
X155601314Y-77194327D01*
X155996950Y-77194672D01*
X156362603Y-77043587D01*
X156642604Y-76764074D01*
X156794327Y-76398686D01*
X156794672Y-76003050D01*
X156794672Y-77005582D01*
X156503050Y-77005328D01*
X156137397Y-77156413D01*
X155857396Y-77435926D01*
X155705673Y-77801314D01*
X155705328Y-78196950D01*
X155856413Y-78562603D01*
X156135926Y-78842604D01*
X156501314Y-78994327D01*
X156896950Y-78994672D01*
X157262603Y-78843587D01*
X157542604Y-78564074D01*
X157694327Y-78198686D01*
X157694333Y-78191428D01*
X157701314Y-78194327D01*
X158096950Y-78194672D01*
X158462603Y-78043587D01*
X158742604Y-77764074D01*
X158894327Y-77398686D01*
X158894672Y-77003050D01*
X158894672Y-83391428D01*
X158737397Y-83456413D01*
X158457396Y-83735926D01*
X158305673Y-84101314D01*
X158305328Y-84496950D01*
X158316408Y-84523766D01*
X158237397Y-84556413D01*
X157994672Y-84798714D01*
X157994672Y-80703050D01*
X157843587Y-80337397D01*
X157564074Y-80057396D01*
X157198686Y-79905673D01*
X156803050Y-79905328D01*
X156437397Y-80056413D01*
X156157396Y-80335926D01*
X156005673Y-80701314D01*
X156005328Y-81096950D01*
X156156413Y-81462603D01*
X156435926Y-81742604D01*
X156801314Y-81894327D01*
X157196950Y-81894672D01*
X157562603Y-81743587D01*
X157842604Y-81464074D01*
X157994327Y-81098686D01*
X157994672Y-80703050D01*
X157994672Y-84798714D01*
X157957396Y-84835926D01*
X157894511Y-84987368D01*
X157894672Y-84803050D01*
X157743587Y-84437397D01*
X157464074Y-84157396D01*
X157098686Y-84005673D01*
X156703050Y-84005328D01*
X156337397Y-84156413D01*
X156057396Y-84435926D01*
X155906280Y-84799850D01*
X155764074Y-84657396D01*
X155594672Y-84587053D01*
X155594672Y-81903050D01*
X155443587Y-81537397D01*
X155164074Y-81257396D01*
X154798686Y-81105673D01*
X154403050Y-81105328D01*
X154037397Y-81256413D01*
X153757396Y-81535926D01*
X153605673Y-81901314D01*
X153605328Y-82296950D01*
X153756413Y-82662603D01*
X154035926Y-82942604D01*
X154401314Y-83094327D01*
X154796950Y-83094672D01*
X155162603Y-82943587D01*
X155442604Y-82664074D01*
X155594327Y-82298686D01*
X155594672Y-81903050D01*
X155594672Y-84587053D01*
X155398686Y-84505673D01*
X155003050Y-84505328D01*
X154637397Y-84656413D01*
X154357396Y-84935926D01*
X154205673Y-85301314D01*
X154205328Y-85696950D01*
X154356413Y-86062603D01*
X154635926Y-86342604D01*
X155001314Y-86494327D01*
X155396950Y-86494672D01*
X155762603Y-86343587D01*
X156042604Y-86064074D01*
X156193719Y-85700149D01*
X156335926Y-85842604D01*
X156701314Y-85994327D01*
X157096950Y-85994672D01*
X157462603Y-85843587D01*
X157742604Y-85564074D01*
X157805488Y-85412631D01*
X157805328Y-85596950D01*
X157956413Y-85962603D01*
X158235926Y-86242604D01*
X158601314Y-86394327D01*
X158833061Y-86394529D01*
X158705673Y-86701314D01*
X158705328Y-87096950D01*
X158847577Y-87441220D01*
X158664074Y-87257396D01*
X158298686Y-87105673D01*
X157903050Y-87105328D01*
X157537397Y-87256413D01*
X157257396Y-87535926D01*
X157105673Y-87901314D01*
X157105328Y-88296950D01*
X157256413Y-88662603D01*
X157535926Y-88942604D01*
X157901314Y-89094327D01*
X158296950Y-89094672D01*
X158662603Y-88943587D01*
X158942604Y-88664074D01*
X159094327Y-88298686D01*
X159094672Y-87903050D01*
X158952422Y-87558779D01*
X159135926Y-87742604D01*
X159501314Y-87894327D01*
X159896950Y-87894672D01*
X160262603Y-87743587D01*
X160542604Y-87464074D01*
X160694327Y-87098686D01*
X160694672Y-86703050D01*
X160694672Y-91439002D01*
X160616000Y-91423225D01*
X158584000Y-91423225D01*
X158374287Y-91463914D01*
X158345103Y-91483084D01*
X158243587Y-91237397D01*
X157964074Y-90957396D01*
X157598686Y-90805673D01*
X157203050Y-90805328D01*
X157194579Y-90808827D01*
X157194672Y-90703050D01*
X157043587Y-90337397D01*
X156764074Y-90057396D01*
X156398686Y-89905673D01*
X156003050Y-89905328D01*
X155637397Y-90056413D01*
X155357396Y-90335926D01*
X155205673Y-90701314D01*
X155205328Y-91096950D01*
X155356413Y-91462603D01*
X155635926Y-91742604D01*
X156001314Y-91894327D01*
X156396950Y-91894672D01*
X156405420Y-91891172D01*
X156405328Y-91996950D01*
X156542999Y-92330140D01*
X156237397Y-92456413D01*
X155957396Y-92735926D01*
X155805673Y-93101314D01*
X155805328Y-93496950D01*
X155956413Y-93862603D01*
X156231777Y-94138448D01*
X156205673Y-94201314D01*
X156205328Y-94596950D01*
X156339935Y-94922725D01*
X156137397Y-95006413D01*
X156075180Y-95068521D01*
X156064074Y-95057396D01*
X155698686Y-94905673D01*
X155303050Y-94905328D01*
X154937397Y-95056413D01*
X154657396Y-95335926D01*
X154505673Y-95701314D01*
X154505328Y-96096950D01*
X154656413Y-96462603D01*
X154823000Y-96629480D01*
X154823000Y-99619578D01*
X153794672Y-100647906D01*
X153794672Y-98503050D01*
X153643587Y-98137397D01*
X153364074Y-97857396D01*
X152998686Y-97705673D01*
X152901017Y-97705587D01*
X152942604Y-97664074D01*
X153094327Y-97298686D01*
X153094672Y-96903050D01*
X152943587Y-96537397D01*
X152664074Y-96257396D01*
X152594672Y-96228577D01*
X152594672Y-74503050D01*
X152443587Y-74137397D01*
X152164074Y-73857396D01*
X151798686Y-73705673D01*
X151403050Y-73705328D01*
X151037397Y-73856413D01*
X150757396Y-74135926D01*
X150605673Y-74501314D01*
X150605328Y-74896950D01*
X150756413Y-75262603D01*
X151035926Y-75542604D01*
X151401314Y-75694327D01*
X151796950Y-75694672D01*
X152162603Y-75543587D01*
X152442604Y-75264074D01*
X152594327Y-74898686D01*
X152594672Y-74503050D01*
X152594672Y-96228577D01*
X152298686Y-96105673D01*
X151994669Y-96105407D01*
X151994672Y-96103050D01*
X151843587Y-95737397D01*
X151564074Y-95457396D01*
X151198686Y-95305673D01*
X150803050Y-95305328D01*
X150437397Y-95456413D01*
X150394672Y-95499063D01*
X150394672Y-80403050D01*
X150243587Y-80037397D01*
X149964074Y-79757396D01*
X149598686Y-79605673D01*
X149203050Y-79605328D01*
X148837397Y-79756413D01*
X148557396Y-80035926D01*
X148405673Y-80401314D01*
X148405328Y-80796950D01*
X148556413Y-81162603D01*
X148835926Y-81442604D01*
X149201314Y-81594327D01*
X149596950Y-81594672D01*
X149962603Y-81443587D01*
X150242604Y-81164074D01*
X150394327Y-80798686D01*
X150394672Y-80403050D01*
X150394672Y-95499063D01*
X150157396Y-95735926D01*
X150094359Y-95887734D01*
X150064074Y-95857396D01*
X149698686Y-95705673D01*
X149303050Y-95705328D01*
X148937397Y-95856413D01*
X148657396Y-96135926D01*
X148505673Y-96501314D01*
X148505328Y-96896950D01*
X148656413Y-97262603D01*
X148935926Y-97542604D01*
X149301314Y-97694327D01*
X149696950Y-97694672D01*
X150062603Y-97543587D01*
X150342604Y-97264074D01*
X150405640Y-97112265D01*
X150435926Y-97142604D01*
X150801314Y-97294327D01*
X151105330Y-97294592D01*
X151105328Y-97296950D01*
X151256413Y-97662603D01*
X151535926Y-97942604D01*
X151901314Y-98094327D01*
X151998982Y-98094412D01*
X151957396Y-98135926D01*
X151805673Y-98501314D01*
X151805328Y-98896950D01*
X151956413Y-99262603D01*
X152235926Y-99542604D01*
X152601314Y-99694327D01*
X152996950Y-99694672D01*
X153362603Y-99543587D01*
X153642604Y-99264074D01*
X153794327Y-98898686D01*
X153794672Y-98503050D01*
X153794672Y-100647906D01*
X152719578Y-101723000D01*
X147775000Y-101723000D01*
X147775000Y-92775000D01*
X147775000Y-91075000D01*
X147676934Y-91075000D01*
X147677117Y-90865927D01*
X147574267Y-90617011D01*
X147457422Y-90499962D01*
X147573598Y-90383990D01*
X147676882Y-90135254D01*
X147676978Y-90025000D01*
X147775000Y-90025000D01*
X147775000Y-87050000D01*
X146830882Y-87050000D01*
X146180882Y-87150000D01*
X144920806Y-87150000D01*
X144538515Y-86667981D01*
X144642604Y-86564074D01*
X144794327Y-86198686D01*
X144794672Y-85803050D01*
X144794672Y-79703050D01*
X144643587Y-79337397D01*
X144364074Y-79057396D01*
X143998686Y-78905673D01*
X143603050Y-78905328D01*
X143237397Y-79056413D01*
X142957396Y-79335926D01*
X142805673Y-79701314D01*
X142805328Y-80096950D01*
X142956413Y-80462603D01*
X143235926Y-80742604D01*
X143601314Y-80894327D01*
X143996950Y-80894672D01*
X144362603Y-80743587D01*
X144642604Y-80464074D01*
X144794327Y-80098686D01*
X144794672Y-79703050D01*
X144794672Y-85803050D01*
X144643587Y-85437397D01*
X144364074Y-85157396D01*
X143998686Y-85005673D01*
X143603050Y-85005328D01*
X143394672Y-85091428D01*
X143394672Y-83603050D01*
X143243587Y-83237397D01*
X142964074Y-82957396D01*
X142598686Y-82805673D01*
X142203050Y-82805328D01*
X142094672Y-82850108D01*
X142094672Y-78903050D01*
X141943587Y-78537397D01*
X141664074Y-78257396D01*
X141298686Y-78105673D01*
X140903050Y-78105328D01*
X140537397Y-78256413D01*
X140257396Y-78535926D01*
X140105673Y-78901314D01*
X140105328Y-79296950D01*
X140256413Y-79662603D01*
X140535926Y-79942604D01*
X140901314Y-80094327D01*
X141296950Y-80094672D01*
X141662603Y-79943587D01*
X141942604Y-79664074D01*
X142094327Y-79298686D01*
X142094672Y-78903050D01*
X142094672Y-82850108D01*
X141837397Y-82956413D01*
X141557396Y-83235926D01*
X141405673Y-83601314D01*
X141405328Y-83996950D01*
X141556413Y-84362603D01*
X141835926Y-84642604D01*
X142201314Y-84794327D01*
X142596950Y-84794672D01*
X142962603Y-84643587D01*
X143242604Y-84364074D01*
X143394327Y-83998686D01*
X143394672Y-83603050D01*
X143394672Y-85091428D01*
X143237397Y-85156413D01*
X142957396Y-85435926D01*
X142805673Y-85801314D01*
X142805328Y-86196950D01*
X142899556Y-86425000D01*
X139850000Y-86425000D01*
X139850000Y-86627247D01*
X139794456Y-86650198D01*
X139794672Y-86403050D01*
X139643587Y-86037397D01*
X139364074Y-85757396D01*
X138998686Y-85605673D01*
X138603050Y-85605328D01*
X138237397Y-85756413D01*
X137957396Y-86035926D01*
X137805673Y-86401314D01*
X137805328Y-86796950D01*
X137956413Y-87162603D01*
X138235926Y-87442604D01*
X138601314Y-87594327D01*
X138996950Y-87594672D01*
X139105543Y-87549801D01*
X139105328Y-87796950D01*
X139256413Y-88162603D01*
X139535926Y-88442604D01*
X139734356Y-88525000D01*
X138475000Y-88525000D01*
X138475000Y-88705652D01*
X138103050Y-88705328D01*
X137737397Y-88856413D01*
X137457396Y-89135926D01*
X137305673Y-89501314D01*
X137305328Y-89896950D01*
X137456413Y-90262603D01*
X137735926Y-90542604D01*
X138101314Y-90694327D01*
X138475000Y-90694652D01*
X138475000Y-90850000D01*
X139947172Y-90850000D01*
X140522172Y-90625000D01*
X142806683Y-90625000D01*
X143381683Y-90025000D01*
X146322978Y-90025000D01*
X146322883Y-90134073D01*
X146425733Y-90382989D01*
X146542577Y-90500037D01*
X146426402Y-90616010D01*
X146323118Y-90864746D01*
X146322934Y-91075000D01*
X144700000Y-91075000D01*
X144496447Y-91075000D01*
X142921447Y-92650000D01*
X140400000Y-92650000D01*
X140400000Y-95467070D01*
X141367239Y-95725000D01*
X141405390Y-95725000D01*
X141405328Y-95796950D01*
X141556413Y-96162603D01*
X141835926Y-96442604D01*
X142201314Y-96594327D01*
X142596950Y-96594672D01*
X142962603Y-96443587D01*
X143242604Y-96164074D01*
X143394327Y-95798686D01*
X143394672Y-95403050D01*
X143243587Y-95037397D01*
X142964074Y-94757396D01*
X142598686Y-94605673D01*
X142475000Y-94605565D01*
X142475000Y-94525000D01*
X143205390Y-94525000D01*
X143205328Y-94596950D01*
X143356413Y-94962603D01*
X143635926Y-95242604D01*
X144001314Y-95394327D01*
X144396950Y-95394672D01*
X144762603Y-95243587D01*
X145042604Y-94964074D01*
X145194327Y-94598686D01*
X145194672Y-94203050D01*
X145043587Y-93837397D01*
X144764074Y-93557396D01*
X144637325Y-93504765D01*
X145377516Y-92775000D01*
X147775000Y-92775000D01*
X147775000Y-101723000D01*
X147394672Y-101723000D01*
X147394672Y-99003050D01*
X147243587Y-98637397D01*
X146964074Y-98357396D01*
X146598686Y-98205673D01*
X146203050Y-98205328D01*
X145837397Y-98356413D01*
X145557396Y-98635926D01*
X145405673Y-99001314D01*
X145405328Y-99396950D01*
X145556413Y-99762603D01*
X145835926Y-100042604D01*
X146201314Y-100194327D01*
X146596950Y-100194672D01*
X146962603Y-100043587D01*
X147242604Y-99764074D01*
X147394327Y-99398686D01*
X147394672Y-99003050D01*
X147394672Y-101723000D01*
X141580422Y-101723000D01*
X139177000Y-99319578D01*
X139177000Y-97494392D01*
X139496950Y-97494672D01*
X139862603Y-97343587D01*
X140142604Y-97064074D01*
X140294327Y-96698686D01*
X140294672Y-96303050D01*
X140143587Y-95937397D01*
X139864074Y-95657396D01*
X139498686Y-95505673D01*
X139177000Y-95505392D01*
X139177000Y-93700000D01*
X139125466Y-93440924D01*
X139125466Y-93440923D01*
X138978711Y-93221289D01*
X136677000Y-90919578D01*
X136677000Y-83200000D01*
X136625466Y-82940924D01*
X136625466Y-82940923D01*
X136552088Y-82831106D01*
X136478711Y-82721289D01*
X136478711Y-82721288D01*
X134378711Y-80621289D01*
X134159077Y-80474534D01*
X133900000Y-80423000D01*
X133600000Y-80423000D01*
X133580422Y-80423000D01*
X133507018Y-80349596D01*
X133542604Y-80314074D01*
X133694327Y-79948686D01*
X133694672Y-79553050D01*
X133543587Y-79187397D01*
X133376828Y-79020347D01*
X133562603Y-78943587D01*
X133842604Y-78664074D01*
X133994327Y-78298686D01*
X133994672Y-77903050D01*
X133843587Y-77537397D01*
X133564074Y-77257396D01*
X133198686Y-77105673D01*
X132803050Y-77105328D01*
X132437397Y-77256413D01*
X132157396Y-77535926D01*
X132005673Y-77901314D01*
X132005328Y-78296950D01*
X132156413Y-78662603D01*
X132323171Y-78829652D01*
X132137397Y-78906413D01*
X131857396Y-79185926D01*
X131705673Y-79551314D01*
X131705328Y-79946950D01*
X131856413Y-80312603D01*
X132023000Y-80479480D01*
X132023000Y-80650000D01*
X132074534Y-80909077D01*
X132221289Y-81128711D01*
X132371289Y-81278711D01*
X132590923Y-81425466D01*
X132590924Y-81425466D01*
X132687193Y-81444615D01*
X132821289Y-81578711D01*
X133040923Y-81725466D01*
X133040924Y-81725466D01*
X133300000Y-81777000D01*
X133600000Y-81777000D01*
X133619577Y-81777000D01*
X135323000Y-83480422D01*
X135323000Y-91200000D01*
X135374534Y-91459077D01*
X135521289Y-91678711D01*
X137823000Y-93980422D01*
X137823000Y-96629590D01*
X137743587Y-96437397D01*
X137464074Y-96157396D01*
X137098686Y-96005673D01*
X136703050Y-96005328D01*
X136337397Y-96156413D01*
X136057396Y-96435926D01*
X135905673Y-96801314D01*
X135905328Y-97196950D01*
X136056413Y-97562603D01*
X136335926Y-97842604D01*
X136573791Y-97941374D01*
X136537397Y-97956413D01*
X136257396Y-98235926D01*
X136105673Y-98601314D01*
X136105328Y-98996950D01*
X136256413Y-99362603D01*
X136535926Y-99642604D01*
X136901314Y-99794327D01*
X137296950Y-99794672D01*
X137662603Y-99643587D01*
X137823000Y-99483469D01*
X137823000Y-99600000D01*
X137874534Y-99859077D01*
X138021289Y-100078711D01*
X140565578Y-102623000D01*
X139629389Y-102623000D01*
X139464074Y-102457396D01*
X139098686Y-102305673D01*
X138703050Y-102305328D01*
X138337397Y-102456413D01*
X138057396Y-102735926D01*
X137905673Y-103101314D01*
X137905328Y-103496950D01*
X138056413Y-103862603D01*
X138335926Y-104142604D01*
X138701314Y-104294327D01*
X139096950Y-104294672D01*
X139462603Y-104143587D01*
X139629480Y-103977000D01*
X154000000Y-103977000D01*
X154259076Y-103925466D01*
X154259077Y-103925466D01*
X154478711Y-103778711D01*
X156705367Y-101552055D01*
X156705328Y-101596950D01*
X156856413Y-101962603D01*
X157135926Y-102242604D01*
X157501314Y-102394327D01*
X157896950Y-102394672D01*
X158262603Y-102243587D01*
X158542604Y-101964074D01*
X158694327Y-101598686D01*
X158694672Y-101203050D01*
X158543587Y-100837397D01*
X158331990Y-100625431D01*
X159378711Y-99578711D01*
X159378712Y-99578711D01*
X159525466Y-99359077D01*
X159525467Y-99359076D01*
X159577000Y-99100000D01*
X159577000Y-96477000D01*
X162119578Y-96477000D01*
X163347945Y-97705367D01*
X163303050Y-97705328D01*
X162937397Y-97856413D01*
X162657396Y-98135926D01*
X162505673Y-98501314D01*
X162505328Y-98896950D01*
X162656413Y-99262603D01*
X162935926Y-99542604D01*
X163301314Y-99694327D01*
X163696950Y-99694672D01*
X164062603Y-99543587D01*
X164342604Y-99264074D01*
X164494327Y-98898686D01*
X164494456Y-98749955D01*
X164601314Y-98794327D01*
X164996950Y-98794672D01*
X165362603Y-98643587D01*
X165642604Y-98364074D01*
X165794327Y-97998686D01*
X165794672Y-97603050D01*
X165794672Y-102008789D01*
X165437397Y-102156413D01*
X165157396Y-102435926D01*
X165005673Y-102801314D01*
X165005328Y-103196950D01*
X165156413Y-103562603D01*
X165435926Y-103842604D01*
X165801314Y-103994327D01*
X166196950Y-103994672D01*
X166562603Y-103843587D01*
X166653614Y-103752733D01*
X166549045Y-104278441D01*
X166644008Y-104755855D01*
X166166594Y-104660892D01*
X165625633Y-104768496D01*
X165167028Y-105074926D01*
X164860598Y-105533531D01*
X164752994Y-106074492D01*
X164793748Y-106279377D01*
X164788765Y-106274394D01*
X164611704Y-106154876D01*
X164395756Y-106110158D01*
X164179264Y-106152163D01*
X163995709Y-106274394D01*
X162774394Y-107495709D01*
X162654876Y-107672770D01*
X162610158Y-107888718D01*
X162652163Y-108105210D01*
X162774394Y-108288765D01*
X162885629Y-108400000D01*
X158800226Y-108400000D01*
X158800226Y-105242548D01*
X158602729Y-104764571D01*
X158237353Y-104398556D01*
X157759721Y-104200226D01*
X157242548Y-104199774D01*
X156764571Y-104397271D01*
X156398556Y-104762647D01*
X156200226Y-105240279D01*
X156199774Y-105757452D01*
X156397271Y-106235429D01*
X156762647Y-106601444D01*
X157240279Y-106799774D01*
X157757452Y-106800226D01*
X158235429Y-106602729D01*
X158601444Y-106237353D01*
X158799774Y-105759721D01*
X158800226Y-105242548D01*
X158800226Y-108400000D01*
X149510733Y-108400000D01*
X149594327Y-108198686D01*
X149594672Y-107803050D01*
X149443587Y-107437397D01*
X149164074Y-107157396D01*
X148798686Y-107005673D01*
X148403050Y-107005328D01*
X148037397Y-107156413D01*
X147757396Y-107435926D01*
X147605673Y-107801314D01*
X147605328Y-108196950D01*
X147689226Y-108400000D01*
X141806440Y-108400000D01*
X141942604Y-108264074D01*
X142094327Y-107898686D01*
X142094672Y-107503050D01*
X141943587Y-107137397D01*
X141664074Y-106857396D01*
X141298686Y-106705673D01*
X140903050Y-106705328D01*
X140537397Y-106856413D01*
X140257396Y-107135926D01*
X140105673Y-107501314D01*
X140105328Y-107896950D01*
X140256413Y-108262603D01*
X140393570Y-108400000D01*
X137048163Y-108400000D01*
X137135159Y-107962645D01*
X137027555Y-107421683D01*
X136911157Y-107247482D01*
X137162603Y-107143587D01*
X137442604Y-106864074D01*
X137594327Y-106498686D01*
X137594672Y-106103050D01*
X137443587Y-105737397D01*
X137164074Y-105457396D01*
X136798686Y-105305673D01*
X136403050Y-105305328D01*
X136037397Y-105456413D01*
X135757396Y-105735926D01*
X135605673Y-106101314D01*
X135605328Y-106496950D01*
X135634045Y-106566452D01*
X135244144Y-106644008D01*
X135339108Y-106166594D01*
X135231504Y-105625632D01*
X135050268Y-105354393D01*
X135050268Y-88593039D01*
X135050268Y-83593039D01*
X134814792Y-83023143D01*
X134379151Y-82586740D01*
X133809667Y-82350270D01*
X133193039Y-82349732D01*
X132623143Y-82585208D01*
X132186740Y-83020849D01*
X131950270Y-83590333D01*
X131949732Y-84206961D01*
X132185208Y-84776857D01*
X132620849Y-85213260D01*
X133190333Y-85449730D01*
X133806961Y-85450268D01*
X134376857Y-85214792D01*
X134813260Y-84779151D01*
X135049730Y-84209667D01*
X135050268Y-83593039D01*
X135050268Y-88593039D01*
X134814792Y-88023143D01*
X134379151Y-87586740D01*
X133809667Y-87350270D01*
X133193039Y-87349732D01*
X132623143Y-87585208D01*
X132186740Y-88020849D01*
X131950270Y-88590333D01*
X131949732Y-89206961D01*
X132185208Y-89776857D01*
X132620849Y-90213260D01*
X133190333Y-90449730D01*
X133806961Y-90450268D01*
X134376857Y-90214792D01*
X134813260Y-89779151D01*
X135049730Y-89209667D01*
X135050268Y-88593039D01*
X135050268Y-105354393D01*
X134925074Y-105167028D01*
X134466470Y-104860598D01*
X134394672Y-104846316D01*
X134394672Y-98003050D01*
X134243587Y-97637397D01*
X133964074Y-97357396D01*
X133598686Y-97205673D01*
X133203050Y-97205328D01*
X132837397Y-97356413D01*
X132557396Y-97635926D01*
X132405673Y-98001314D01*
X132405328Y-98396950D01*
X132556413Y-98762603D01*
X132835926Y-99042604D01*
X133201314Y-99194327D01*
X133596950Y-99194672D01*
X133962603Y-99043587D01*
X134242604Y-98764074D01*
X134394327Y-98398686D01*
X134394672Y-98003050D01*
X134394672Y-104846316D01*
X133925508Y-104752994D01*
X133720622Y-104793748D01*
X133725606Y-104788765D01*
X133845124Y-104611704D01*
X133889842Y-104395756D01*
X133847837Y-104179264D01*
X133725606Y-103995709D01*
X132504291Y-102774394D01*
X132327230Y-102654876D01*
X132111282Y-102610158D01*
X131894790Y-102652163D01*
X131711235Y-102774394D01*
X131600000Y-102885629D01*
X131600000Y-77048163D01*
X132037355Y-77135159D01*
X132578317Y-77027555D01*
X133036921Y-76721125D01*
X133343351Y-76262521D01*
X133450955Y-75721559D01*
X133355991Y-75244144D01*
X133833406Y-75339108D01*
X134374368Y-75231504D01*
X134832972Y-74925074D01*
X135139402Y-74466470D01*
X135247006Y-73925508D01*
X135206251Y-73720622D01*
X135211235Y-73725606D01*
X135388296Y-73845124D01*
X135604244Y-73889842D01*
X135820736Y-73847837D01*
X136004291Y-73725606D01*
X137225606Y-72504291D01*
X137345124Y-72327230D01*
X137389842Y-72111282D01*
X137347837Y-71894790D01*
X137225606Y-71711235D01*
X137114371Y-71600000D01*
X141750000Y-71600000D01*
X141750000Y-76003553D01*
X141996447Y-76250000D01*
X148003553Y-76250000D01*
X148250000Y-76003553D01*
X148250000Y-71600000D01*
X151100130Y-71600000D01*
X151099827Y-71948040D01*
X151251747Y-72315714D01*
X151532806Y-72597264D01*
X151900215Y-72749826D01*
X152298040Y-72750173D01*
X152665714Y-72598253D01*
X152947264Y-72317194D01*
X153099826Y-71949785D01*
X153100131Y-71600000D01*
X157900130Y-71600000D01*
X157899827Y-71948040D01*
X158051747Y-72315714D01*
X158332806Y-72597264D01*
X158700215Y-72749826D01*
X159098040Y-72750173D01*
X159465714Y-72598253D01*
X159747264Y-72317194D01*
X159899826Y-71949785D01*
X159900131Y-71600000D01*
X162951836Y-71600000D01*
X162864841Y-72037355D01*
X162972445Y-72578316D01*
X163278875Y-73036921D01*
X163737480Y-73343351D01*
X164278441Y-73450955D01*
X164755855Y-73355991D01*
X164660892Y-73833406D01*
X164768496Y-74374367D01*
X165074926Y-74832972D01*
X165533531Y-75139402D01*
X166074492Y-75247006D01*
X166279377Y-75206251D01*
X166274394Y-75211235D01*
X166154876Y-75388296D01*
X166110158Y-75604244D01*
X166152163Y-75820736D01*
X166274394Y-76004291D01*
X167495709Y-77225606D01*
X167672770Y-77345124D01*
X167888718Y-77389842D01*
X168105210Y-77347837D01*
X168288765Y-77225606D01*
X168400000Y-77114371D01*
X168400000Y-83494768D01*
X168138009Y-83102671D01*
X167629962Y-82763205D01*
X167030680Y-82644000D01*
X166969320Y-82644000D01*
X166370038Y-82763205D01*
X165861991Y-83102671D01*
X165522525Y-83610718D01*
X165403320Y-84210000D01*
X165522525Y-84809282D01*
X165790756Y-85210718D01*
X165774287Y-85213914D01*
X165589968Y-85334992D01*
X165466587Y-85517776D01*
X165423225Y-85734000D01*
X165423225Y-87766000D01*
X165463914Y-87975713D01*
X165584992Y-88160032D01*
X165749476Y-88271060D01*
X165522525Y-88610718D01*
X165403320Y-89210000D01*
X165522525Y-89809282D01*
X165790756Y-90210718D01*
X165774287Y-90213914D01*
X165589968Y-90334992D01*
X165466587Y-90517776D01*
X165423225Y-90734000D01*
X165423225Y-92766000D01*
X165463914Y-92975713D01*
X165584992Y-93160032D01*
X165767776Y-93283413D01*
X165984000Y-93326775D01*
X168016000Y-93326775D01*
X168225713Y-93286086D01*
X168400000Y-93171597D01*
X168400000Y-102951836D01*
X168400000Y-102951836D01*
G37*
X168400000Y-102951836D02*
X167962645Y-102864841D01*
X167421684Y-102972445D01*
X166963079Y-103278875D01*
X166957664Y-103286977D01*
X166994327Y-103198686D01*
X166994672Y-102803050D01*
X166843587Y-102437397D01*
X166564074Y-102157396D01*
X166198686Y-102005673D01*
X165803050Y-102005328D01*
X165794672Y-102008789D01*
X165794672Y-97603050D01*
X165643587Y-97237397D01*
X165364074Y-96957396D01*
X164998686Y-96805673D01*
X164603050Y-96805328D01*
X164433009Y-96875587D01*
X164194672Y-96637250D01*
X164194672Y-87503050D01*
X164043587Y-87137397D01*
X163764074Y-86857396D01*
X163398686Y-86705673D01*
X163094672Y-86705407D01*
X163094672Y-74103050D01*
X162943587Y-73737397D01*
X162664074Y-73457396D01*
X162298686Y-73305673D01*
X161903050Y-73305328D01*
X161537397Y-73456413D01*
X161257396Y-73735926D01*
X161105673Y-74101314D01*
X161105328Y-74496950D01*
X161256413Y-74862603D01*
X161535926Y-75142604D01*
X161901314Y-75294327D01*
X162296950Y-75294672D01*
X162662603Y-75143587D01*
X162942604Y-74864074D01*
X163094327Y-74498686D01*
X163094672Y-74103050D01*
X163094672Y-86705407D01*
X163003050Y-86705328D01*
X162637397Y-86856413D01*
X162357396Y-87135926D01*
X162205673Y-87501314D01*
X162205328Y-87896950D01*
X162356413Y-88262603D01*
X162635926Y-88542604D01*
X163001314Y-88694327D01*
X163396950Y-88694672D01*
X163762603Y-88543587D01*
X164042604Y-88264074D01*
X164194327Y-87898686D01*
X164194672Y-87503050D01*
X164194672Y-96637250D01*
X162878711Y-95321289D01*
X162659077Y-95174534D01*
X162400000Y-95123000D01*
X159780422Y-95123000D01*
X159234197Y-94576775D01*
X160616000Y-94576775D01*
X160825713Y-94536086D01*
X161010032Y-94415008D01*
X161133413Y-94232224D01*
X161138170Y-94208501D01*
X161540718Y-94477475D01*
X162140000Y-94596680D01*
X162739282Y-94477475D01*
X163247329Y-94138009D01*
X163586795Y-93629962D01*
X163706000Y-93030680D01*
X163706000Y-92969320D01*
X163586795Y-92370038D01*
X163247329Y-91861991D01*
X163194672Y-91826806D01*
X163194672Y-89503050D01*
X163043587Y-89137397D01*
X162764074Y-88857396D01*
X162398686Y-88705673D01*
X162003050Y-88705328D01*
X161637397Y-88856413D01*
X161357396Y-89135926D01*
X161205673Y-89501314D01*
X161205328Y-89896950D01*
X161356413Y-90262603D01*
X161635926Y-90542604D01*
X162001314Y-90694327D01*
X162396950Y-90694672D01*
X162762603Y-90543587D01*
X163042604Y-90264074D01*
X163194327Y-89898686D01*
X163194672Y-89503050D01*
X163194672Y-91826806D01*
X162739282Y-91522525D01*
X162140000Y-91403320D01*
X161540718Y-91522525D01*
X161139281Y-91790756D01*
X161136086Y-91774287D01*
X161015008Y-91589968D01*
X160832224Y-91466587D01*
X160694672Y-91439002D01*
X160694672Y-86703050D01*
X160543587Y-86337397D01*
X160264074Y-86057396D01*
X159898686Y-85905673D01*
X159666938Y-85905470D01*
X159794327Y-85598686D01*
X159794672Y-85203050D01*
X159783591Y-85176233D01*
X159862603Y-85143587D01*
X160142604Y-84864074D01*
X160294327Y-84498686D01*
X160294672Y-84103050D01*
X160143587Y-83737397D01*
X159864074Y-83457396D01*
X159498686Y-83305673D01*
X159103050Y-83305328D01*
X158894672Y-83391428D01*
X158894672Y-77003050D01*
X158743587Y-76637397D01*
X158464074Y-76357396D01*
X158098686Y-76205673D01*
X157703050Y-76205328D01*
X157337397Y-76356413D01*
X157057396Y-76635926D01*
X156905673Y-77001314D01*
X156905666Y-77008571D01*
X156898686Y-77005673D01*
X156794672Y-77005582D01*
X156794672Y-76003050D01*
X156643587Y-75637397D01*
X156364074Y-75357396D01*
X155998686Y-75205673D01*
X155603050Y-75205328D01*
X155237397Y-75356413D01*
X154957396Y-75635926D01*
X154805673Y-76001314D01*
X154805328Y-76396950D01*
X154956413Y-76762603D01*
X155235926Y-77042604D01*
X155601314Y-77194327D01*
X155996950Y-77194672D01*
X156362603Y-77043587D01*
X156642604Y-76764074D01*
X156794327Y-76398686D01*
X156794672Y-76003050D01*
X156794672Y-77005582D01*
X156503050Y-77005328D01*
X156137397Y-77156413D01*
X155857396Y-77435926D01*
X155705673Y-77801314D01*
X155705328Y-78196950D01*
X155856413Y-78562603D01*
X156135926Y-78842604D01*
X156501314Y-78994327D01*
X156896950Y-78994672D01*
X157262603Y-78843587D01*
X157542604Y-78564074D01*
X157694327Y-78198686D01*
X157694333Y-78191428D01*
X157701314Y-78194327D01*
X158096950Y-78194672D01*
X158462603Y-78043587D01*
X158742604Y-77764074D01*
X158894327Y-77398686D01*
X158894672Y-77003050D01*
X158894672Y-83391428D01*
X158737397Y-83456413D01*
X158457396Y-83735926D01*
X158305673Y-84101314D01*
X158305328Y-84496950D01*
X158316408Y-84523766D01*
X158237397Y-84556413D01*
X157994672Y-84798714D01*
X157994672Y-80703050D01*
X157843587Y-80337397D01*
X157564074Y-80057396D01*
X157198686Y-79905673D01*
X156803050Y-79905328D01*
X156437397Y-80056413D01*
X156157396Y-80335926D01*
X156005673Y-80701314D01*
X156005328Y-81096950D01*
X156156413Y-81462603D01*
X156435926Y-81742604D01*
X156801314Y-81894327D01*
X157196950Y-81894672D01*
X157562603Y-81743587D01*
X157842604Y-81464074D01*
X157994327Y-81098686D01*
X157994672Y-80703050D01*
X157994672Y-84798714D01*
X157957396Y-84835926D01*
X157894511Y-84987368D01*
X157894672Y-84803050D01*
X157743587Y-84437397D01*
X157464074Y-84157396D01*
X157098686Y-84005673D01*
X156703050Y-84005328D01*
X156337397Y-84156413D01*
X156057396Y-84435926D01*
X155906280Y-84799850D01*
X155764074Y-84657396D01*
X155594672Y-84587053D01*
X155594672Y-81903050D01*
X155443587Y-81537397D01*
X155164074Y-81257396D01*
X154798686Y-81105673D01*
X154403050Y-81105328D01*
X154037397Y-81256413D01*
X153757396Y-81535926D01*
X153605673Y-81901314D01*
X153605328Y-82296950D01*
X153756413Y-82662603D01*
X154035926Y-82942604D01*
X154401314Y-83094327D01*
X154796950Y-83094672D01*
X155162603Y-82943587D01*
X155442604Y-82664074D01*
X155594327Y-82298686D01*
X155594672Y-81903050D01*
X155594672Y-84587053D01*
X155398686Y-84505673D01*
X155003050Y-84505328D01*
X154637397Y-84656413D01*
X154357396Y-84935926D01*
X154205673Y-85301314D01*
X154205328Y-85696950D01*
X154356413Y-86062603D01*
X154635926Y-86342604D01*
X155001314Y-86494327D01*
X155396950Y-86494672D01*
X155762603Y-86343587D01*
X156042604Y-86064074D01*
X156193719Y-85700149D01*
X156335926Y-85842604D01*
X156701314Y-85994327D01*
X157096950Y-85994672D01*
X157462603Y-85843587D01*
X157742604Y-85564074D01*
X157805488Y-85412631D01*
X157805328Y-85596950D01*
X157956413Y-85962603D01*
X158235926Y-86242604D01*
X158601314Y-86394327D01*
X158833061Y-86394529D01*
X158705673Y-86701314D01*
X158705328Y-87096950D01*
X158847577Y-87441220D01*
X158664074Y-87257396D01*
X158298686Y-87105673D01*
X157903050Y-87105328D01*
X157537397Y-87256413D01*
X157257396Y-87535926D01*
X157105673Y-87901314D01*
X157105328Y-88296950D01*
X157256413Y-88662603D01*
X157535926Y-88942604D01*
X157901314Y-89094327D01*
X158296950Y-89094672D01*
X158662603Y-88943587D01*
X158942604Y-88664074D01*
X159094327Y-88298686D01*
X159094672Y-87903050D01*
X158952422Y-87558779D01*
X159135926Y-87742604D01*
X159501314Y-87894327D01*
X159896950Y-87894672D01*
X160262603Y-87743587D01*
X160542604Y-87464074D01*
X160694327Y-87098686D01*
X160694672Y-86703050D01*
X160694672Y-91439002D01*
X160616000Y-91423225D01*
X158584000Y-91423225D01*
X158374287Y-91463914D01*
X158345103Y-91483084D01*
X158243587Y-91237397D01*
X157964074Y-90957396D01*
X157598686Y-90805673D01*
X157203050Y-90805328D01*
X157194579Y-90808827D01*
X157194672Y-90703050D01*
X157043587Y-90337397D01*
X156764074Y-90057396D01*
X156398686Y-89905673D01*
X156003050Y-89905328D01*
X155637397Y-90056413D01*
X155357396Y-90335926D01*
X155205673Y-90701314D01*
X155205328Y-91096950D01*
X155356413Y-91462603D01*
X155635926Y-91742604D01*
X156001314Y-91894327D01*
X156396950Y-91894672D01*
X156405420Y-91891172D01*
X156405328Y-91996950D01*
X156542999Y-92330140D01*
X156237397Y-92456413D01*
X155957396Y-92735926D01*
X155805673Y-93101314D01*
X155805328Y-93496950D01*
X155956413Y-93862603D01*
X156231777Y-94138448D01*
X156205673Y-94201314D01*
X156205328Y-94596950D01*
X156339935Y-94922725D01*
X156137397Y-95006413D01*
X156075180Y-95068521D01*
X156064074Y-95057396D01*
X155698686Y-94905673D01*
X155303050Y-94905328D01*
X154937397Y-95056413D01*
X154657396Y-95335926D01*
X154505673Y-95701314D01*
X154505328Y-96096950D01*
X154656413Y-96462603D01*
X154823000Y-96629480D01*
X154823000Y-99619578D01*
X153794672Y-100647906D01*
X153794672Y-98503050D01*
X153643587Y-98137397D01*
X153364074Y-97857396D01*
X152998686Y-97705673D01*
X152901017Y-97705587D01*
X152942604Y-97664074D01*
X153094327Y-97298686D01*
X153094672Y-96903050D01*
X152943587Y-96537397D01*
X152664074Y-96257396D01*
X152594672Y-96228577D01*
X152594672Y-74503050D01*
X152443587Y-74137397D01*
X152164074Y-73857396D01*
X151798686Y-73705673D01*
X151403050Y-73705328D01*
X151037397Y-73856413D01*
X150757396Y-74135926D01*
X150605673Y-74501314D01*
X150605328Y-74896950D01*
X150756413Y-75262603D01*
X151035926Y-75542604D01*
X151401314Y-75694327D01*
X151796950Y-75694672D01*
X152162603Y-75543587D01*
X152442604Y-75264074D01*
X152594327Y-74898686D01*
X152594672Y-74503050D01*
X152594672Y-96228577D01*
X152298686Y-96105673D01*
X151994669Y-96105407D01*
X151994672Y-96103050D01*
X151843587Y-95737397D01*
X151564074Y-95457396D01*
X151198686Y-95305673D01*
X150803050Y-95305328D01*
X150437397Y-95456413D01*
X150394672Y-95499063D01*
X150394672Y-80403050D01*
X150243587Y-80037397D01*
X149964074Y-79757396D01*
X149598686Y-79605673D01*
X149203050Y-79605328D01*
X148837397Y-79756413D01*
X148557396Y-80035926D01*
X148405673Y-80401314D01*
X148405328Y-80796950D01*
X148556413Y-81162603D01*
X148835926Y-81442604D01*
X149201314Y-81594327D01*
X149596950Y-81594672D01*
X149962603Y-81443587D01*
X150242604Y-81164074D01*
X150394327Y-80798686D01*
X150394672Y-80403050D01*
X150394672Y-95499063D01*
X150157396Y-95735926D01*
X150094359Y-95887734D01*
X150064074Y-95857396D01*
X149698686Y-95705673D01*
X149303050Y-95705328D01*
X148937397Y-95856413D01*
X148657396Y-96135926D01*
X148505673Y-96501314D01*
X148505328Y-96896950D01*
X148656413Y-97262603D01*
X148935926Y-97542604D01*
X149301314Y-97694327D01*
X149696950Y-97694672D01*
X150062603Y-97543587D01*
X150342604Y-97264074D01*
X150405640Y-97112265D01*
X150435926Y-97142604D01*
X150801314Y-97294327D01*
X151105330Y-97294592D01*
X151105328Y-97296950D01*
X151256413Y-97662603D01*
X151535926Y-97942604D01*
X151901314Y-98094327D01*
X151998982Y-98094412D01*
X151957396Y-98135926D01*
X151805673Y-98501314D01*
X151805328Y-98896950D01*
X151956413Y-99262603D01*
X152235926Y-99542604D01*
X152601314Y-99694327D01*
X152996950Y-99694672D01*
X153362603Y-99543587D01*
X153642604Y-99264074D01*
X153794327Y-98898686D01*
X153794672Y-98503050D01*
X153794672Y-100647906D01*
X152719578Y-101723000D01*
X147775000Y-101723000D01*
X147775000Y-92775000D01*
X147775000Y-91075000D01*
X147676934Y-91075000D01*
X147677117Y-90865927D01*
X147574267Y-90617011D01*
X147457422Y-90499962D01*
X147573598Y-90383990D01*
X147676882Y-90135254D01*
X147676978Y-90025000D01*
X147775000Y-90025000D01*
X147775000Y-87050000D01*
X146830882Y-87050000D01*
X146180882Y-87150000D01*
X144920806Y-87150000D01*
X144538515Y-86667981D01*
X144642604Y-86564074D01*
X144794327Y-86198686D01*
X144794672Y-85803050D01*
X144794672Y-79703050D01*
X144643587Y-79337397D01*
X144364074Y-79057396D01*
X143998686Y-78905673D01*
X143603050Y-78905328D01*
X143237397Y-79056413D01*
X142957396Y-79335926D01*
X142805673Y-79701314D01*
X142805328Y-80096950D01*
X142956413Y-80462603D01*
X143235926Y-80742604D01*
X143601314Y-80894327D01*
X143996950Y-80894672D01*
X144362603Y-80743587D01*
X144642604Y-80464074D01*
X144794327Y-80098686D01*
X144794672Y-79703050D01*
X144794672Y-85803050D01*
X144643587Y-85437397D01*
X144364074Y-85157396D01*
X143998686Y-85005673D01*
X143603050Y-85005328D01*
X143394672Y-85091428D01*
X143394672Y-83603050D01*
X143243587Y-83237397D01*
X142964074Y-82957396D01*
X142598686Y-82805673D01*
X142203050Y-82805328D01*
X142094672Y-82850108D01*
X142094672Y-78903050D01*
X141943587Y-78537397D01*
X141664074Y-78257396D01*
X141298686Y-78105673D01*
X140903050Y-78105328D01*
X140537397Y-78256413D01*
X140257396Y-78535926D01*
X140105673Y-78901314D01*
X140105328Y-79296950D01*
X140256413Y-79662603D01*
X140535926Y-79942604D01*
X140901314Y-80094327D01*
X141296950Y-80094672D01*
X141662603Y-79943587D01*
X141942604Y-79664074D01*
X142094327Y-79298686D01*
X142094672Y-78903050D01*
X142094672Y-82850108D01*
X141837397Y-82956413D01*
X141557396Y-83235926D01*
X141405673Y-83601314D01*
X141405328Y-83996950D01*
X141556413Y-84362603D01*
X141835926Y-84642604D01*
X142201314Y-84794327D01*
X142596950Y-84794672D01*
X142962603Y-84643587D01*
X143242604Y-84364074D01*
X143394327Y-83998686D01*
X143394672Y-83603050D01*
X143394672Y-85091428D01*
X143237397Y-85156413D01*
X142957396Y-85435926D01*
X142805673Y-85801314D01*
X142805328Y-86196950D01*
X142899556Y-86425000D01*
X139850000Y-86425000D01*
X139850000Y-86627247D01*
X139794456Y-86650198D01*
X139794672Y-86403050D01*
X139643587Y-86037397D01*
X139364074Y-85757396D01*
X138998686Y-85605673D01*
X138603050Y-85605328D01*
X138237397Y-85756413D01*
X137957396Y-86035926D01*
X137805673Y-86401314D01*
X137805328Y-86796950D01*
X137956413Y-87162603D01*
X138235926Y-87442604D01*
X138601314Y-87594327D01*
X138996950Y-87594672D01*
X139105543Y-87549801D01*
X139105328Y-87796950D01*
X139256413Y-88162603D01*
X139535926Y-88442604D01*
X139734356Y-88525000D01*
X138475000Y-88525000D01*
X138475000Y-88705652D01*
X138103050Y-88705328D01*
X137737397Y-88856413D01*
X137457396Y-89135926D01*
X137305673Y-89501314D01*
X137305328Y-89896950D01*
X137456413Y-90262603D01*
X137735926Y-90542604D01*
X138101314Y-90694327D01*
X138475000Y-90694652D01*
X138475000Y-90850000D01*
X139947172Y-90850000D01*
X140522172Y-90625000D01*
X142806683Y-90625000D01*
X143381683Y-90025000D01*
X146322978Y-90025000D01*
X146322883Y-90134073D01*
X146425733Y-90382989D01*
X146542577Y-90500037D01*
X146426402Y-90616010D01*
X146323118Y-90864746D01*
X146322934Y-91075000D01*
X144700000Y-91075000D01*
X144496447Y-91075000D01*
X142921447Y-92650000D01*
X140400000Y-92650000D01*
X140400000Y-95467070D01*
X141367239Y-95725000D01*
X141405390Y-95725000D01*
X141405328Y-95796950D01*
X141556413Y-96162603D01*
X141835926Y-96442604D01*
X142201314Y-96594327D01*
X142596950Y-96594672D01*
X142962603Y-96443587D01*
X143242604Y-96164074D01*
X143394327Y-95798686D01*
X143394672Y-95403050D01*
X143243587Y-95037397D01*
X142964074Y-94757396D01*
X142598686Y-94605673D01*
X142475000Y-94605565D01*
X142475000Y-94525000D01*
X143205390Y-94525000D01*
X143205328Y-94596950D01*
X143356413Y-94962603D01*
X143635926Y-95242604D01*
X144001314Y-95394327D01*
X144396950Y-95394672D01*
X144762603Y-95243587D01*
X145042604Y-94964074D01*
X145194327Y-94598686D01*
X145194672Y-94203050D01*
X145043587Y-93837397D01*
X144764074Y-93557396D01*
X144637325Y-93504765D01*
X145377516Y-92775000D01*
X147775000Y-92775000D01*
X147775000Y-101723000D01*
X147394672Y-101723000D01*
X147394672Y-99003050D01*
X147243587Y-98637397D01*
X146964074Y-98357396D01*
X146598686Y-98205673D01*
X146203050Y-98205328D01*
X145837397Y-98356413D01*
X145557396Y-98635926D01*
X145405673Y-99001314D01*
X145405328Y-99396950D01*
X145556413Y-99762603D01*
X145835926Y-100042604D01*
X146201314Y-100194327D01*
X146596950Y-100194672D01*
X146962603Y-100043587D01*
X147242604Y-99764074D01*
X147394327Y-99398686D01*
X147394672Y-99003050D01*
X147394672Y-101723000D01*
X141580422Y-101723000D01*
X139177000Y-99319578D01*
X139177000Y-97494392D01*
X139496950Y-97494672D01*
X139862603Y-97343587D01*
X140142604Y-97064074D01*
X140294327Y-96698686D01*
X140294672Y-96303050D01*
X140143587Y-95937397D01*
X139864074Y-95657396D01*
X139498686Y-95505673D01*
X139177000Y-95505392D01*
X139177000Y-93700000D01*
X139125466Y-93440924D01*
X139125466Y-93440923D01*
X138978711Y-93221289D01*
X136677000Y-90919578D01*
X136677000Y-83200000D01*
X136625466Y-82940924D01*
X136625466Y-82940923D01*
X136552088Y-82831106D01*
X136478711Y-82721289D01*
X136478711Y-82721288D01*
X134378711Y-80621289D01*
X134159077Y-80474534D01*
X133900000Y-80423000D01*
X133600000Y-80423000D01*
X133580422Y-80423000D01*
X133507018Y-80349596D01*
X133542604Y-80314074D01*
X133694327Y-79948686D01*
X133694672Y-79553050D01*
X133543587Y-79187397D01*
X133376828Y-79020347D01*
X133562603Y-78943587D01*
X133842604Y-78664074D01*
X133994327Y-78298686D01*
X133994672Y-77903050D01*
X133843587Y-77537397D01*
X133564074Y-77257396D01*
X133198686Y-77105673D01*
X132803050Y-77105328D01*
X132437397Y-77256413D01*
X132157396Y-77535926D01*
X132005673Y-77901314D01*
X132005328Y-78296950D01*
X132156413Y-78662603D01*
X132323171Y-78829652D01*
X132137397Y-78906413D01*
X131857396Y-79185926D01*
X131705673Y-79551314D01*
X131705328Y-79946950D01*
X131856413Y-80312603D01*
X132023000Y-80479480D01*
X132023000Y-80650000D01*
X132074534Y-80909077D01*
X132221289Y-81128711D01*
X132371289Y-81278711D01*
X132590923Y-81425466D01*
X132590924Y-81425466D01*
X132687193Y-81444615D01*
X132821289Y-81578711D01*
X133040923Y-81725466D01*
X133040924Y-81725466D01*
X133300000Y-81777000D01*
X133600000Y-81777000D01*
X133619577Y-81777000D01*
X135323000Y-83480422D01*
X135323000Y-91200000D01*
X135374534Y-91459077D01*
X135521289Y-91678711D01*
X137823000Y-93980422D01*
X137823000Y-96629590D01*
X137743587Y-96437397D01*
X137464074Y-96157396D01*
X137098686Y-96005673D01*
X136703050Y-96005328D01*
X136337397Y-96156413D01*
X136057396Y-96435926D01*
X135905673Y-96801314D01*
X135905328Y-97196950D01*
X136056413Y-97562603D01*
X136335926Y-97842604D01*
X136573791Y-97941374D01*
X136537397Y-97956413D01*
X136257396Y-98235926D01*
X136105673Y-98601314D01*
X136105328Y-98996950D01*
X136256413Y-99362603D01*
X136535926Y-99642604D01*
X136901314Y-99794327D01*
X137296950Y-99794672D01*
X137662603Y-99643587D01*
X137823000Y-99483469D01*
X137823000Y-99600000D01*
X137874534Y-99859077D01*
X138021289Y-100078711D01*
X140565578Y-102623000D01*
X139629389Y-102623000D01*
X139464074Y-102457396D01*
X139098686Y-102305673D01*
X138703050Y-102305328D01*
X138337397Y-102456413D01*
X138057396Y-102735926D01*
X137905673Y-103101314D01*
X137905328Y-103496950D01*
X138056413Y-103862603D01*
X138335926Y-104142604D01*
X138701314Y-104294327D01*
X139096950Y-104294672D01*
X139462603Y-104143587D01*
X139629480Y-103977000D01*
X154000000Y-103977000D01*
X154259076Y-103925466D01*
X154259077Y-103925466D01*
X154478711Y-103778711D01*
X156705367Y-101552055D01*
X156705328Y-101596950D01*
X156856413Y-101962603D01*
X157135926Y-102242604D01*
X157501314Y-102394327D01*
X157896950Y-102394672D01*
X158262603Y-102243587D01*
X158542604Y-101964074D01*
X158694327Y-101598686D01*
X158694672Y-101203050D01*
X158543587Y-100837397D01*
X158331990Y-100625431D01*
X159378711Y-99578711D01*
X159378712Y-99578711D01*
X159525466Y-99359077D01*
X159525467Y-99359076D01*
X159577000Y-99100000D01*
X159577000Y-96477000D01*
X162119578Y-96477000D01*
X163347945Y-97705367D01*
X163303050Y-97705328D01*
X162937397Y-97856413D01*
X162657396Y-98135926D01*
X162505673Y-98501314D01*
X162505328Y-98896950D01*
X162656413Y-99262603D01*
X162935926Y-99542604D01*
X163301314Y-99694327D01*
X163696950Y-99694672D01*
X164062603Y-99543587D01*
X164342604Y-99264074D01*
X164494327Y-98898686D01*
X164494456Y-98749955D01*
X164601314Y-98794327D01*
X164996950Y-98794672D01*
X165362603Y-98643587D01*
X165642604Y-98364074D01*
X165794327Y-97998686D01*
X165794672Y-97603050D01*
X165794672Y-102008789D01*
X165437397Y-102156413D01*
X165157396Y-102435926D01*
X165005673Y-102801314D01*
X165005328Y-103196950D01*
X165156413Y-103562603D01*
X165435926Y-103842604D01*
X165801314Y-103994327D01*
X166196950Y-103994672D01*
X166562603Y-103843587D01*
X166653614Y-103752733D01*
X166549045Y-104278441D01*
X166644008Y-104755855D01*
X166166594Y-104660892D01*
X165625633Y-104768496D01*
X165167028Y-105074926D01*
X164860598Y-105533531D01*
X164752994Y-106074492D01*
X164793748Y-106279377D01*
X164788765Y-106274394D01*
X164611704Y-106154876D01*
X164395756Y-106110158D01*
X164179264Y-106152163D01*
X163995709Y-106274394D01*
X162774394Y-107495709D01*
X162654876Y-107672770D01*
X162610158Y-107888718D01*
X162652163Y-108105210D01*
X162774394Y-108288765D01*
X162885629Y-108400000D01*
X158800226Y-108400000D01*
X158800226Y-105242548D01*
X158602729Y-104764571D01*
X158237353Y-104398556D01*
X157759721Y-104200226D01*
X157242548Y-104199774D01*
X156764571Y-104397271D01*
X156398556Y-104762647D01*
X156200226Y-105240279D01*
X156199774Y-105757452D01*
X156397271Y-106235429D01*
X156762647Y-106601444D01*
X157240279Y-106799774D01*
X157757452Y-106800226D01*
X158235429Y-106602729D01*
X158601444Y-106237353D01*
X158799774Y-105759721D01*
X158800226Y-105242548D01*
X158800226Y-108400000D01*
X149510733Y-108400000D01*
X149594327Y-108198686D01*
X149594672Y-107803050D01*
X149443587Y-107437397D01*
X149164074Y-107157396D01*
X148798686Y-107005673D01*
X148403050Y-107005328D01*
X148037397Y-107156413D01*
X147757396Y-107435926D01*
X147605673Y-107801314D01*
X147605328Y-108196950D01*
X147689226Y-108400000D01*
X141806440Y-108400000D01*
X141942604Y-108264074D01*
X142094327Y-107898686D01*
X142094672Y-107503050D01*
X141943587Y-107137397D01*
X141664074Y-106857396D01*
X141298686Y-106705673D01*
X140903050Y-106705328D01*
X140537397Y-106856413D01*
X140257396Y-107135926D01*
X140105673Y-107501314D01*
X140105328Y-107896950D01*
X140256413Y-108262603D01*
X140393570Y-108400000D01*
X137048163Y-108400000D01*
X137135159Y-107962645D01*
X137027555Y-107421683D01*
X136911157Y-107247482D01*
X137162603Y-107143587D01*
X137442604Y-106864074D01*
X137594327Y-106498686D01*
X137594672Y-106103050D01*
X137443587Y-105737397D01*
X137164074Y-105457396D01*
X136798686Y-105305673D01*
X136403050Y-105305328D01*
X136037397Y-105456413D01*
X135757396Y-105735926D01*
X135605673Y-106101314D01*
X135605328Y-106496950D01*
X135634045Y-106566452D01*
X135244144Y-106644008D01*
X135339108Y-106166594D01*
X135231504Y-105625632D01*
X135050268Y-105354393D01*
X135050268Y-88593039D01*
X135050268Y-83593039D01*
X134814792Y-83023143D01*
X134379151Y-82586740D01*
X133809667Y-82350270D01*
X133193039Y-82349732D01*
X132623143Y-82585208D01*
X132186740Y-83020849D01*
X131950270Y-83590333D01*
X131949732Y-84206961D01*
X132185208Y-84776857D01*
X132620849Y-85213260D01*
X133190333Y-85449730D01*
X133806961Y-85450268D01*
X134376857Y-85214792D01*
X134813260Y-84779151D01*
X135049730Y-84209667D01*
X135050268Y-83593039D01*
X135050268Y-88593039D01*
X134814792Y-88023143D01*
X134379151Y-87586740D01*
X133809667Y-87350270D01*
X133193039Y-87349732D01*
X132623143Y-87585208D01*
X132186740Y-88020849D01*
X131950270Y-88590333D01*
X131949732Y-89206961D01*
X132185208Y-89776857D01*
X132620849Y-90213260D01*
X133190333Y-90449730D01*
X133806961Y-90450268D01*
X134376857Y-90214792D01*
X134813260Y-89779151D01*
X135049730Y-89209667D01*
X135050268Y-88593039D01*
X135050268Y-105354393D01*
X134925074Y-105167028D01*
X134466470Y-104860598D01*
X134394672Y-104846316D01*
X134394672Y-98003050D01*
X134243587Y-97637397D01*
X133964074Y-97357396D01*
X133598686Y-97205673D01*
X133203050Y-97205328D01*
X132837397Y-97356413D01*
X132557396Y-97635926D01*
X132405673Y-98001314D01*
X132405328Y-98396950D01*
X132556413Y-98762603D01*
X132835926Y-99042604D01*
X133201314Y-99194327D01*
X133596950Y-99194672D01*
X133962603Y-99043587D01*
X134242604Y-98764074D01*
X134394327Y-98398686D01*
X134394672Y-98003050D01*
X134394672Y-104846316D01*
X133925508Y-104752994D01*
X133720622Y-104793748D01*
X133725606Y-104788765D01*
X133845124Y-104611704D01*
X133889842Y-104395756D01*
X133847837Y-104179264D01*
X133725606Y-103995709D01*
X132504291Y-102774394D01*
X132327230Y-102654876D01*
X132111282Y-102610158D01*
X131894790Y-102652163D01*
X131711235Y-102774394D01*
X131600000Y-102885629D01*
X131600000Y-77048163D01*
X132037355Y-77135159D01*
X132578317Y-77027555D01*
X133036921Y-76721125D01*
X133343351Y-76262521D01*
X133450955Y-75721559D01*
X133355991Y-75244144D01*
X133833406Y-75339108D01*
X134374368Y-75231504D01*
X134832972Y-74925074D01*
X135139402Y-74466470D01*
X135247006Y-73925508D01*
X135206251Y-73720622D01*
X135211235Y-73725606D01*
X135388296Y-73845124D01*
X135604244Y-73889842D01*
X135820736Y-73847837D01*
X136004291Y-73725606D01*
X137225606Y-72504291D01*
X137345124Y-72327230D01*
X137389842Y-72111282D01*
X137347837Y-71894790D01*
X137225606Y-71711235D01*
X137114371Y-71600000D01*
X141750000Y-71600000D01*
X141750000Y-76003553D01*
X141996447Y-76250000D01*
X148003553Y-76250000D01*
X148250000Y-76003553D01*
X148250000Y-71600000D01*
X151100130Y-71600000D01*
X151099827Y-71948040D01*
X151251747Y-72315714D01*
X151532806Y-72597264D01*
X151900215Y-72749826D01*
X152298040Y-72750173D01*
X152665714Y-72598253D01*
X152947264Y-72317194D01*
X153099826Y-71949785D01*
X153100131Y-71600000D01*
X157900130Y-71600000D01*
X157899827Y-71948040D01*
X158051747Y-72315714D01*
X158332806Y-72597264D01*
X158700215Y-72749826D01*
X159098040Y-72750173D01*
X159465714Y-72598253D01*
X159747264Y-72317194D01*
X159899826Y-71949785D01*
X159900131Y-71600000D01*
X162951836Y-71600000D01*
X162864841Y-72037355D01*
X162972445Y-72578316D01*
X163278875Y-73036921D01*
X163737480Y-73343351D01*
X164278441Y-73450955D01*
X164755855Y-73355991D01*
X164660892Y-73833406D01*
X164768496Y-74374367D01*
X165074926Y-74832972D01*
X165533531Y-75139402D01*
X166074492Y-75247006D01*
X166279377Y-75206251D01*
X166274394Y-75211235D01*
X166154876Y-75388296D01*
X166110158Y-75604244D01*
X166152163Y-75820736D01*
X166274394Y-76004291D01*
X167495709Y-77225606D01*
X167672770Y-77345124D01*
X167888718Y-77389842D01*
X168105210Y-77347837D01*
X168288765Y-77225606D01*
X168400000Y-77114371D01*
X168400000Y-83494768D01*
X168138009Y-83102671D01*
X167629962Y-82763205D01*
X167030680Y-82644000D01*
X166969320Y-82644000D01*
X166370038Y-82763205D01*
X165861991Y-83102671D01*
X165522525Y-83610718D01*
X165403320Y-84210000D01*
X165522525Y-84809282D01*
X165790756Y-85210718D01*
X165774287Y-85213914D01*
X165589968Y-85334992D01*
X165466587Y-85517776D01*
X165423225Y-85734000D01*
X165423225Y-87766000D01*
X165463914Y-87975713D01*
X165584992Y-88160032D01*
X165749476Y-88271060D01*
X165522525Y-88610718D01*
X165403320Y-89210000D01*
X165522525Y-89809282D01*
X165790756Y-90210718D01*
X165774287Y-90213914D01*
X165589968Y-90334992D01*
X165466587Y-90517776D01*
X165423225Y-90734000D01*
X165423225Y-92766000D01*
X165463914Y-92975713D01*
X165584992Y-93160032D01*
X165767776Y-93283413D01*
X165984000Y-93326775D01*
X168016000Y-93326775D01*
X168225713Y-93286086D01*
X168400000Y-93171597D01*
X168400000Y-102951836D01*
M02*
