G04 #@! TF.FileFunction,Copper,L1,Top,Signal*
%FSLAX46Y46*%
G04 Gerber Fmt 4.6, Leading zero omitted, Abs format (unit mm)*
G04 Created by KiCad (PCBNEW (2014-12-04 BZR 5312)-product) date 8/23/2015 4:43:04 PM*
%MOMM*%
G01*
G04 APERTURE LIST*
%ADD10C,0.100000*%
%ADD11R,0.800000X0.750000*%
%ADD12R,0.600000X0.500000*%
%ADD13R,0.500000X0.600000*%
%ADD14R,0.750000X1.200000*%
%ADD15R,0.750000X0.800000*%
%ADD16R,1.200000X0.750000*%
%ADD17R,2.540000X1.021080*%
%ADD18R,2.032000X2.032000*%
%ADD19O,2.032000X2.032000*%
%ADD20R,0.800100X0.800100*%
%ADD21R,0.400000X0.600000*%
%ADD22R,0.600000X0.400000*%
%ADD23C,0.900000*%
%ADD24R,1.100000X1.900000*%
%ADD25R,0.280000X0.850000*%
%ADD26R,0.850000X0.280000*%
%ADD27R,1.000000X1.000000*%
%ADD28C,1.727200*%
%ADD29R,2.235200X2.235200*%
%ADD30R,1.100000X1.200000*%
%ADD31R,0.300000X0.300000*%
%ADD32R,0.400000X0.950000*%
%ADD33R,1.000000X1.200000*%
%ADD34C,1.500000*%
%ADD35C,2.000000*%
%ADD36R,0.406400X0.660400*%
%ADD37C,0.889000*%
%ADD38C,0.508000*%
%ADD39C,0.254000*%
%ADD40C,0.326800*%
%ADD41C,0.355600*%
%ADD42C,0.203200*%
%ADD43C,0.152400*%
%ADD44C,0.500000*%
G04 APERTURE END LIST*
D10*
G36*
X162135893Y-106445152D02*
X161570137Y-105879396D01*
X162135893Y-105313640D01*
X162701649Y-105879396D01*
X162135893Y-106445152D01*
X162135893Y-106445152D01*
G37*
G36*
X163479396Y-105101649D02*
X162913640Y-104535893D01*
X163479396Y-103970137D01*
X164045152Y-104535893D01*
X163479396Y-105101649D01*
X163479396Y-105101649D01*
G37*
G36*
X161394152Y-104359908D02*
X160828396Y-103794152D01*
X161394152Y-103228396D01*
X161959908Y-103794152D01*
X161394152Y-104359908D01*
X161394152Y-104359908D01*
G37*
D11*
X137000000Y-95750000D03*
X135500000Y-95750000D03*
X140000000Y-83750000D03*
X138500000Y-83750000D03*
X137000000Y-94250000D03*
X135500000Y-94250000D03*
D12*
X142450000Y-86000000D03*
X141350000Y-86000000D03*
D13*
X143000000Y-83550000D03*
X143000000Y-82450000D03*
X143750000Y-95200000D03*
X143750000Y-96300000D03*
X150000000Y-80650000D03*
X150000000Y-79550000D03*
D11*
X138500000Y-99000000D03*
X140000000Y-99000000D03*
D12*
X140050000Y-100500000D03*
X138950000Y-100500000D03*
X156150000Y-90300000D03*
X157250000Y-90300000D03*
D13*
X145250000Y-95950000D03*
X145250000Y-97050000D03*
X151000000Y-97450000D03*
X151000000Y-98550000D03*
X151300000Y-80650000D03*
X151300000Y-79550000D03*
X141800000Y-97950000D03*
X141800000Y-96850000D03*
D12*
X143000000Y-87650000D03*
X141900000Y-87650000D03*
X141650000Y-89600000D03*
X140550000Y-89600000D03*
X142300000Y-93500000D03*
X141200000Y-93500000D03*
D13*
X147400000Y-98650000D03*
X147400000Y-99750000D03*
D12*
X157350000Y-89100000D03*
X158450000Y-89100000D03*
X142850000Y-80600000D03*
X141750000Y-80600000D03*
X154250000Y-80300000D03*
X153150000Y-80300000D03*
D13*
X162500000Y-86300000D03*
X162500000Y-85200000D03*
D12*
X153150000Y-75900000D03*
X154250000Y-75900000D03*
X146724600Y-78000000D03*
X145624600Y-78000000D03*
D14*
X142400000Y-107650000D03*
X142400000Y-105750000D03*
X144200000Y-107650000D03*
X144200000Y-105750000D03*
X146000000Y-107650000D03*
X146000000Y-105750000D03*
D15*
X132400000Y-94550000D03*
X132400000Y-93050000D03*
D16*
X139150000Y-80000000D03*
X137250000Y-80000000D03*
D10*
G36*
X133554848Y-102935893D02*
X134120604Y-102370137D01*
X134686360Y-102935893D01*
X134120604Y-103501649D01*
X133554848Y-102935893D01*
X133554848Y-102935893D01*
G37*
G36*
X134898351Y-104279396D02*
X135464107Y-103713640D01*
X136029863Y-104279396D01*
X135464107Y-104845152D01*
X134898351Y-104279396D01*
X134898351Y-104279396D01*
G37*
G36*
X135640092Y-102194152D02*
X136205848Y-101628396D01*
X136771604Y-102194152D01*
X136205848Y-102759908D01*
X135640092Y-102194152D01*
X135640092Y-102194152D01*
G37*
G36*
X165945152Y-77464107D02*
X165379396Y-78029863D01*
X164813640Y-77464107D01*
X165379396Y-76898351D01*
X165945152Y-77464107D01*
X165945152Y-77464107D01*
G37*
G36*
X164601649Y-76120604D02*
X164035893Y-76686360D01*
X163470137Y-76120604D01*
X164035893Y-75554848D01*
X164601649Y-76120604D01*
X164601649Y-76120604D01*
G37*
G36*
X163859908Y-78205848D02*
X163294152Y-78771604D01*
X162728396Y-78205848D01*
X163294152Y-77640092D01*
X163859908Y-78205848D01*
X163859908Y-78205848D01*
G37*
G36*
X137564107Y-73554848D02*
X138129863Y-74120604D01*
X137564107Y-74686360D01*
X136998351Y-74120604D01*
X137564107Y-73554848D01*
X137564107Y-73554848D01*
G37*
G36*
X136220604Y-74898351D02*
X136786360Y-75464107D01*
X136220604Y-76029863D01*
X135654848Y-75464107D01*
X136220604Y-74898351D01*
X136220604Y-74898351D01*
G37*
G36*
X138305848Y-75640092D02*
X138871604Y-76205848D01*
X138305848Y-76771604D01*
X137740092Y-76205848D01*
X138305848Y-75640092D01*
X138305848Y-75640092D01*
G37*
D17*
X138100000Y-87945540D03*
X138100000Y-85654460D03*
X139250000Y-95104460D03*
X139250000Y-97395540D03*
X136250000Y-90354460D03*
X136250000Y-92645540D03*
D13*
X146718000Y-80050000D03*
X146718000Y-78950000D03*
D18*
X167000000Y-91750000D03*
D19*
X167000000Y-89210000D03*
D20*
X148000760Y-103250000D03*
X148000760Y-101350000D03*
X146001780Y-102300000D03*
X153400760Y-103250000D03*
X153400760Y-101350000D03*
X151401780Y-102300000D03*
X150800760Y-106950000D03*
X150800760Y-105050000D03*
X148801780Y-106000000D03*
X133050000Y-82000760D03*
X134950000Y-82000760D03*
X134000000Y-80001780D03*
D21*
X149250000Y-100800000D03*
X150150000Y-100800000D03*
X154650000Y-100700000D03*
X155550000Y-100700000D03*
D22*
X149500000Y-103050000D03*
X149500000Y-102150000D03*
D21*
X151950000Y-105000000D03*
X152850000Y-105000000D03*
D22*
X154900000Y-102950000D03*
X154900000Y-102050000D03*
X152400000Y-107150000D03*
X152400000Y-106250000D03*
D21*
X141650000Y-104100000D03*
X142550000Y-104100000D03*
X143850000Y-104100000D03*
X144750000Y-104100000D03*
D22*
X147500000Y-106250000D03*
X147500000Y-107150000D03*
D21*
X156850000Y-77100000D03*
X155950000Y-77100000D03*
D22*
X152400000Y-74050000D03*
X152400000Y-73150000D03*
D21*
X143050000Y-84800000D03*
X142150000Y-84800000D03*
D22*
X156600000Y-78650000D03*
X156600000Y-79550000D03*
D21*
X166150000Y-81700000D03*
X167050000Y-81700000D03*
X141850000Y-79300000D03*
X142750000Y-79300000D03*
X159450000Y-83500000D03*
X158550000Y-83500000D03*
X161150000Y-90700000D03*
X160250000Y-90700000D03*
D22*
X149000000Y-98550000D03*
X149000000Y-97650000D03*
D21*
X162250000Y-90700000D03*
X163150000Y-90700000D03*
X160450000Y-86250000D03*
X159550000Y-86250000D03*
D22*
X161000000Y-82550000D03*
X161000000Y-83450000D03*
X153100000Y-98250000D03*
X153100000Y-97350000D03*
X133800000Y-90750000D03*
X133800000Y-91650000D03*
D10*
G36*
X137052513Y-105771751D02*
X136628249Y-105347487D01*
X136911091Y-105064645D01*
X137335355Y-105488909D01*
X137052513Y-105771751D01*
X137052513Y-105771751D01*
G37*
G36*
X137688909Y-105135355D02*
X137264645Y-104711091D01*
X137547487Y-104428249D01*
X137971751Y-104852513D01*
X137688909Y-105135355D01*
X137688909Y-105135355D01*
G37*
D22*
X161300000Y-74850000D03*
X161300000Y-75750000D03*
D10*
G36*
X138547487Y-105428249D02*
X138971751Y-105852513D01*
X138688909Y-106135355D01*
X138264645Y-105711091D01*
X138547487Y-105428249D01*
X138547487Y-105428249D01*
G37*
G36*
X137911091Y-106064645D02*
X138335355Y-106488909D01*
X138052513Y-106771751D01*
X137628249Y-106347487D01*
X137911091Y-106064645D01*
X137911091Y-106064645D01*
G37*
D22*
X159900000Y-73850000D03*
X159900000Y-74750000D03*
X133400000Y-97050000D03*
X133400000Y-96150000D03*
D21*
X138150000Y-81700000D03*
X137250000Y-81700000D03*
D10*
G36*
X166371751Y-101947487D02*
X165947487Y-102371751D01*
X165664645Y-102088909D01*
X166088909Y-101664645D01*
X166371751Y-101947487D01*
X166371751Y-101947487D01*
G37*
G36*
X165735355Y-101311091D02*
X165311091Y-101735355D01*
X165028249Y-101452513D01*
X165452513Y-101028249D01*
X165735355Y-101311091D01*
X165735355Y-101311091D01*
G37*
G36*
X133628249Y-77652513D02*
X134052513Y-77228249D01*
X134335355Y-77511091D01*
X133911091Y-77935355D01*
X133628249Y-77652513D01*
X133628249Y-77652513D01*
G37*
G36*
X134264645Y-78288909D02*
X134688909Y-77864645D01*
X134971751Y-78147487D01*
X134547487Y-78571751D01*
X134264645Y-78288909D01*
X134264645Y-78288909D01*
G37*
G36*
X163928249Y-102552513D02*
X164352513Y-102128249D01*
X164635355Y-102411091D01*
X164211091Y-102835355D01*
X163928249Y-102552513D01*
X163928249Y-102552513D01*
G37*
G36*
X164564645Y-103188909D02*
X164988909Y-102764645D01*
X165271751Y-103047487D01*
X164847487Y-103471751D01*
X164564645Y-103188909D01*
X164564645Y-103188909D01*
G37*
G36*
X135971751Y-77147487D02*
X135547487Y-77571751D01*
X135264645Y-77288909D01*
X135688909Y-76864645D01*
X135971751Y-77147487D01*
X135971751Y-77147487D01*
G37*
G36*
X135335355Y-76511091D02*
X134911091Y-76935355D01*
X134628249Y-76652513D01*
X135052513Y-76228249D01*
X135335355Y-76511091D01*
X135335355Y-76511091D01*
G37*
D23*
X158900000Y-71750000D03*
X152100000Y-71750000D03*
D24*
X141850000Y-99900000D03*
X144350000Y-99900000D03*
D25*
X149750000Y-94475000D03*
X149250000Y-94475000D03*
X148750000Y-94475000D03*
X148250000Y-94475000D03*
X147750000Y-94475000D03*
X147250000Y-94475000D03*
X146750000Y-94475000D03*
X146250000Y-94475000D03*
X150250000Y-94475000D03*
X150750000Y-94475000D03*
X151250000Y-94475000D03*
X151750000Y-94475000D03*
X152250000Y-94475000D03*
X152750000Y-94475000D03*
X153250000Y-94475000D03*
X153750000Y-94475000D03*
X146250000Y-85525000D03*
X146750000Y-85525000D03*
X147250000Y-85525000D03*
X147750000Y-85525000D03*
X148250000Y-85525000D03*
X148750000Y-85525000D03*
X149250000Y-85525000D03*
X149750000Y-85525000D03*
X150250000Y-85525000D03*
X150750000Y-85525000D03*
X151250000Y-85525000D03*
X151750000Y-85525000D03*
X152250000Y-85525000D03*
X152750000Y-85525000D03*
X153250000Y-85525000D03*
X153750000Y-85525000D03*
D26*
X154475000Y-90250000D03*
X154475000Y-90750000D03*
X154475000Y-91250000D03*
X154475000Y-91750000D03*
X154475000Y-92250000D03*
X154475000Y-92750000D03*
X154475000Y-93250000D03*
X154475000Y-93750000D03*
X154475000Y-89750000D03*
X154475000Y-89250000D03*
X154475000Y-88750000D03*
X154475000Y-88250000D03*
X154475000Y-87750000D03*
X154475000Y-87250000D03*
X154475000Y-86750000D03*
X154475000Y-86250000D03*
X145525000Y-89750000D03*
X145525000Y-89250000D03*
X145525000Y-88750000D03*
X145525000Y-88250000D03*
X145525000Y-87750000D03*
X145525000Y-87250000D03*
X145525000Y-86750000D03*
X145525000Y-86250000D03*
X145525000Y-90250000D03*
X145525000Y-90750000D03*
X145525000Y-91250000D03*
X145525000Y-91750000D03*
X145525000Y-92250000D03*
X145525000Y-92750000D03*
X145525000Y-93250000D03*
X145525000Y-93750000D03*
D27*
X150000000Y-90000000D03*
X150000000Y-89000000D03*
X150000000Y-88000000D03*
X150000000Y-87000000D03*
X149000000Y-90000000D03*
X149000000Y-89000000D03*
X149000000Y-88000000D03*
X149000000Y-87000000D03*
X148000000Y-87000000D03*
X148000000Y-88000000D03*
X148000000Y-90000000D03*
X148000000Y-89000000D03*
X147000000Y-87000000D03*
X147000000Y-88000000D03*
X147000000Y-89000000D03*
X147000000Y-90000000D03*
X147000000Y-93000000D03*
X147000000Y-92000000D03*
X147000000Y-91000000D03*
X148000000Y-91000000D03*
X148000000Y-92000000D03*
X148000000Y-93000000D03*
X149000000Y-93000000D03*
X149000000Y-92000000D03*
X149000000Y-91000000D03*
X150000000Y-91000000D03*
X150000000Y-92000000D03*
X150000000Y-93000000D03*
X151000000Y-93000000D03*
X152000000Y-93000000D03*
X153000000Y-93000000D03*
X153000000Y-92000000D03*
X153000000Y-91000000D03*
X153000000Y-90000000D03*
X153000000Y-89000000D03*
X153000000Y-88000000D03*
X153000000Y-87000000D03*
X152000000Y-87000000D03*
X151000000Y-87000000D03*
X151000000Y-88000000D03*
X152000000Y-88000000D03*
X152000000Y-89000000D03*
X151000000Y-89000000D03*
X151000000Y-90000000D03*
X152000000Y-90000000D03*
X152000000Y-91000000D03*
X151000000Y-91000000D03*
X151000000Y-92000000D03*
X152000000Y-92000000D03*
D10*
G36*
X131892237Y-105829078D02*
X130670922Y-104607763D01*
X132107763Y-103170922D01*
X133329078Y-104392237D01*
X131892237Y-105829078D01*
X131892237Y-105829078D01*
G37*
D28*
X133688288Y-106403814D02*
X133903814Y-106188288D01*
X135484339Y-108199865D02*
X135699865Y-107984339D01*
D10*
G36*
X168107763Y-74170922D02*
X169329078Y-75392237D01*
X167892237Y-76829078D01*
X166670922Y-75607763D01*
X168107763Y-74170922D01*
X168107763Y-74170922D01*
G37*
D28*
X166311712Y-73596186D02*
X166096186Y-73811712D01*
X164515661Y-71800135D02*
X164300135Y-72015661D01*
D10*
G36*
X165829078Y-108107763D02*
X164607763Y-109329078D01*
X163170922Y-107892237D01*
X164392237Y-106670922D01*
X165829078Y-108107763D01*
X165829078Y-108107763D01*
G37*
D28*
X166403814Y-106311712D02*
X166188288Y-106096186D01*
X168199865Y-104515661D02*
X167984339Y-104300135D01*
D10*
G36*
X134170922Y-71892237D02*
X135392237Y-70670922D01*
X136829078Y-72107763D01*
X135607763Y-73329078D01*
X134170922Y-71892237D01*
X134170922Y-71892237D01*
G37*
D28*
X133596186Y-73688288D02*
X133811712Y-73903814D01*
X131800135Y-75484339D02*
X132015661Y-75699865D01*
D18*
X167000000Y-86750000D03*
D19*
X167000000Y-84210000D03*
D29*
X167000000Y-94250000D03*
D30*
X154400000Y-78950000D03*
X153000000Y-78950000D03*
X153000000Y-77250000D03*
X154400000Y-77250000D03*
D31*
X146718000Y-80925000D03*
X146718000Y-81575000D03*
D32*
X146078000Y-81250000D03*
X147358000Y-81250000D03*
D33*
X145200000Y-71700000D03*
X142000000Y-71700000D03*
D34*
X157500000Y-105500000D03*
X155500000Y-105500000D03*
D35*
X133500000Y-88900000D03*
X133500000Y-83900000D03*
D36*
X158839600Y-79216000D03*
X160160400Y-79216000D03*
X159500000Y-79216000D03*
X160160400Y-77184000D03*
X158839600Y-77184000D03*
D13*
X158800000Y-101350000D03*
X158800000Y-102450000D03*
X160100000Y-101350000D03*
X160100000Y-102450000D03*
X164700000Y-99000000D03*
X164700000Y-100100000D03*
D18*
X159600000Y-93000000D03*
D19*
X162140000Y-93000000D03*
D10*
G36*
X158149911Y-99344023D02*
X157902424Y-99096536D01*
X158468109Y-98530851D01*
X158715596Y-98778338D01*
X158149911Y-99344023D01*
X158149911Y-99344023D01*
G37*
G36*
X157796357Y-98990469D02*
X157548870Y-98742982D01*
X158114555Y-98177297D01*
X158362042Y-98424784D01*
X157796357Y-98990469D01*
X157796357Y-98990469D01*
G37*
G36*
X157442804Y-98636916D02*
X157195317Y-98389429D01*
X157761002Y-97823744D01*
X158008489Y-98071231D01*
X157442804Y-98636916D01*
X157442804Y-98636916D01*
G37*
G36*
X158503464Y-99697576D02*
X158255977Y-99450089D01*
X158821662Y-98884404D01*
X159069149Y-99131891D01*
X158503464Y-99697576D01*
X158503464Y-99697576D01*
G37*
G36*
X158857018Y-100051130D02*
X158609531Y-99803643D01*
X159175216Y-99237958D01*
X159422703Y-99485445D01*
X158857018Y-100051130D01*
X158857018Y-100051130D01*
G37*
G36*
X159210571Y-100404683D02*
X158963084Y-100157196D01*
X159528769Y-99591511D01*
X159776256Y-99838998D01*
X159210571Y-100404683D01*
X159210571Y-100404683D01*
G37*
G36*
X160271231Y-95808489D02*
X160023744Y-95561002D01*
X160589429Y-94995317D01*
X160836916Y-95242804D01*
X160271231Y-95808489D01*
X160271231Y-95808489D01*
G37*
G36*
X160624784Y-96162042D02*
X160377297Y-95914555D01*
X160942982Y-95348870D01*
X161190469Y-95596357D01*
X160624784Y-96162042D01*
X160624784Y-96162042D01*
G37*
G36*
X160978338Y-96515596D02*
X160730851Y-96268109D01*
X161296536Y-95702424D01*
X161544023Y-95949911D01*
X160978338Y-96515596D01*
X160978338Y-96515596D01*
G37*
G36*
X161331891Y-96869149D02*
X161084404Y-96621662D01*
X161650089Y-96055977D01*
X161897576Y-96303464D01*
X161331891Y-96869149D01*
X161331891Y-96869149D01*
G37*
G36*
X161685445Y-97222703D02*
X161437958Y-96975216D01*
X162003643Y-96409531D01*
X162251130Y-96657018D01*
X161685445Y-97222703D01*
X161685445Y-97222703D01*
G37*
G36*
X162038998Y-97576256D02*
X161791511Y-97328769D01*
X162357196Y-96763084D01*
X162604683Y-97010571D01*
X162038998Y-97576256D01*
X162038998Y-97576256D01*
G37*
G36*
X158821662Y-96515596D02*
X158255977Y-95949911D01*
X158503464Y-95702424D01*
X159069149Y-96268109D01*
X158821662Y-96515596D01*
X158821662Y-96515596D01*
G37*
G36*
X159175216Y-96162042D02*
X158609531Y-95596357D01*
X158857018Y-95348870D01*
X159422703Y-95914555D01*
X159175216Y-96162042D01*
X159175216Y-96162042D01*
G37*
G36*
X159528769Y-95808489D02*
X158963084Y-95242804D01*
X159210571Y-94995317D01*
X159776256Y-95561002D01*
X159528769Y-95808489D01*
X159528769Y-95808489D01*
G37*
G36*
X158468109Y-96869149D02*
X157902424Y-96303464D01*
X158149911Y-96055977D01*
X158715596Y-96621662D01*
X158468109Y-96869149D01*
X158468109Y-96869149D01*
G37*
G36*
X158114555Y-97222703D02*
X157548870Y-96657018D01*
X157796357Y-96409531D01*
X158362042Y-96975216D01*
X158114555Y-97222703D01*
X158114555Y-97222703D01*
G37*
G36*
X157761002Y-97576256D02*
X157195317Y-97010571D01*
X157442804Y-96763084D01*
X158008489Y-97328769D01*
X157761002Y-97576256D01*
X157761002Y-97576256D01*
G37*
G36*
X161650089Y-99344023D02*
X161084404Y-98778338D01*
X161331891Y-98530851D01*
X161897576Y-99096536D01*
X161650089Y-99344023D01*
X161650089Y-99344023D01*
G37*
G36*
X162003643Y-98990469D02*
X161437958Y-98424784D01*
X161685445Y-98177297D01*
X162251130Y-98742982D01*
X162003643Y-98990469D01*
X162003643Y-98990469D01*
G37*
G36*
X162357196Y-98636916D02*
X161791511Y-98071231D01*
X162038998Y-97823744D01*
X162604683Y-98389429D01*
X162357196Y-98636916D01*
X162357196Y-98636916D01*
G37*
G36*
X161296536Y-99697576D02*
X160730851Y-99131891D01*
X160978338Y-98884404D01*
X161544023Y-99450089D01*
X161296536Y-99697576D01*
X161296536Y-99697576D01*
G37*
G36*
X160942982Y-100051130D02*
X160377297Y-99485445D01*
X160624784Y-99237958D01*
X161190469Y-99803643D01*
X160942982Y-100051130D01*
X160942982Y-100051130D01*
G37*
G36*
X160589429Y-100404683D02*
X160023744Y-99838998D01*
X160271231Y-99591511D01*
X160836916Y-100157196D01*
X160589429Y-100404683D01*
X160589429Y-100404683D01*
G37*
G36*
X159900000Y-99467767D02*
X158132233Y-97700000D01*
X159900000Y-95932233D01*
X161667767Y-97700000D01*
X159900000Y-99467767D01*
X159900000Y-99467767D01*
G37*
D15*
X164100000Y-96000000D03*
X164100000Y-94500000D03*
D37*
X158000000Y-103000000D03*
X161850000Y-100900000D03*
X141300000Y-87500000D03*
X166200000Y-80400000D03*
X141200000Y-85000000D03*
X148000000Y-78500000D03*
X148000000Y-81250000D03*
X148000000Y-79750000D03*
X148000000Y-82500000D03*
X148000000Y-83750000D03*
X144750000Y-78500000D03*
X141000000Y-72000000D03*
X141000000Y-74500000D03*
X141750000Y-76750000D03*
X144750000Y-76750000D03*
X145500000Y-79750000D03*
X145500000Y-81250000D03*
X145500000Y-83750000D03*
X145500000Y-82500000D03*
X143250000Y-76750000D03*
X141000000Y-75750000D03*
X141000000Y-73250000D03*
X161100000Y-79000000D03*
X137600000Y-83900000D03*
X152000000Y-104100000D03*
X152500000Y-100900000D03*
X163000000Y-84400000D03*
X152800000Y-80600000D03*
X150700000Y-78800000D03*
X158300000Y-90400000D03*
X141500000Y-94500000D03*
X139600000Y-89500000D03*
X148900000Y-71600000D03*
X148900000Y-75100000D03*
X148000000Y-77000000D03*
X148900000Y-76300000D03*
X148900000Y-73900000D03*
X148900000Y-72700000D03*
X162500000Y-82800000D03*
X146800000Y-100900000D03*
X138600000Y-77900000D03*
X137400000Y-100600000D03*
X157500000Y-79600000D03*
X139700000Y-106200000D03*
X160400000Y-106500000D03*
X133800000Y-92900000D03*
X135500000Y-97000000D03*
X150600000Y-73100000D03*
X160400000Y-73100000D03*
X136900000Y-97000000D03*
X142400000Y-83800000D03*
X138800000Y-86600000D03*
X149400000Y-80600000D03*
X144200000Y-94400000D03*
X156200000Y-90900000D03*
X151000000Y-96300000D03*
X139300000Y-96500000D03*
X137100000Y-98800000D03*
X163500000Y-98700000D03*
X140100000Y-87600000D03*
X141100000Y-107700000D03*
X152800000Y-98700000D03*
X146400000Y-99200000D03*
X162200000Y-89700000D03*
X158100000Y-88100000D03*
X159300000Y-84300000D03*
X163200000Y-87700000D03*
X138300000Y-89700000D03*
X142400000Y-95600000D03*
X157700000Y-101400000D03*
X157900000Y-77200000D03*
X148600000Y-108000000D03*
X141100000Y-79100000D03*
X133400000Y-98200000D03*
X149500000Y-96700000D03*
X152100000Y-97100000D03*
X136600000Y-106300000D03*
X162100000Y-74300000D03*
X166000000Y-103000000D03*
X133000000Y-78100000D03*
X155800000Y-76200000D03*
X151600000Y-74700000D03*
X143800000Y-86000000D03*
X156700000Y-78000000D03*
X155200000Y-85500000D03*
X159700000Y-86900000D03*
X158800000Y-85400000D03*
X157200000Y-94400000D03*
X138900000Y-103300000D03*
X156800000Y-93300000D03*
X164800000Y-97800000D03*
X155500000Y-95900000D03*
X132700000Y-79750000D03*
X156900000Y-85000000D03*
X156700000Y-95850000D03*
X157400000Y-91800000D03*
X154600000Y-82100000D03*
X157000000Y-80900000D03*
X143800000Y-79900000D03*
D38*
X133703949Y-73796051D02*
X134552548Y-73796051D01*
X134552548Y-73796051D02*
X136220604Y-75464107D01*
X135464107Y-104279396D02*
X135464107Y-104627995D01*
X135464107Y-104627995D02*
X133796051Y-106296051D01*
X163479396Y-104535893D02*
X164627995Y-104535893D01*
X164627995Y-104535893D02*
X166296051Y-106203949D01*
X164035893Y-76120604D02*
X164035893Y-75872005D01*
X164035893Y-75872005D02*
X166203949Y-73703949D01*
D39*
X157601903Y-98230330D02*
X157519670Y-98230330D01*
X157519670Y-98230330D02*
X156800000Y-98950000D01*
X156800000Y-98950000D02*
X156800000Y-102150000D01*
X156800000Y-102150000D02*
X157650000Y-103000000D01*
X157650000Y-103000000D02*
X158000000Y-103000000D01*
X158250000Y-103000000D02*
X158000000Y-103000000D01*
X158800000Y-102450000D02*
X158250000Y-103000000D01*
X161850000Y-100050000D02*
X161850000Y-100900000D01*
X161850000Y-100050000D02*
X161137437Y-99337437D01*
X161137437Y-99290990D02*
X161137437Y-99337437D01*
X161844544Y-98583883D02*
X161883883Y-98583883D01*
X161883883Y-98583883D02*
X162850000Y-99550000D01*
X164300000Y-100100000D02*
X164700000Y-100100000D01*
X163750000Y-99550000D02*
X164300000Y-100100000D01*
X162850000Y-99550000D02*
X163750000Y-99550000D01*
X161844544Y-98583883D02*
X161844544Y-98594544D01*
X160430330Y-95401903D02*
X160448097Y-95401903D01*
X160448097Y-95401903D02*
X160800000Y-95050000D01*
X160800000Y-95050000D02*
X162150000Y-95050000D01*
X162150000Y-95050000D02*
X163100000Y-96000000D01*
X163100000Y-96000000D02*
X164100000Y-96000000D01*
D38*
X141450000Y-87650000D02*
X141300000Y-87500000D01*
X141450000Y-87650000D02*
X141900000Y-87650000D01*
X166150000Y-81700000D02*
X166150000Y-80450000D01*
X166150000Y-80450000D02*
X166200000Y-80400000D01*
D39*
X141200000Y-85000000D02*
X141200000Y-83800000D01*
X142550000Y-82450000D02*
X143000000Y-82450000D01*
X141200000Y-83800000D02*
X142550000Y-82450000D01*
D40*
X148000000Y-77000000D02*
X148250000Y-77000000D01*
X148000000Y-81250000D02*
X148000000Y-79750000D01*
X148000000Y-78500000D02*
X148000000Y-79750000D01*
X148000000Y-77000000D02*
X148000000Y-78500000D01*
X148000000Y-83750000D02*
X148000000Y-82500000D01*
X148000000Y-81250000D02*
X147358000Y-81250000D01*
X148000000Y-82500000D02*
X148000000Y-81250000D01*
X145200000Y-71700000D02*
X146668000Y-71700000D01*
X146668000Y-71700000D02*
X146724600Y-71756600D01*
X144750000Y-78500000D02*
X145124600Y-78500000D01*
X145124600Y-78500000D02*
X145624600Y-78000000D01*
X141700000Y-72000000D02*
X141000000Y-72000000D01*
X141000000Y-73250000D02*
X141000000Y-74500000D01*
X141750000Y-76750000D02*
X141250000Y-76250000D01*
X143250000Y-76750000D02*
X144750000Y-76750000D01*
X145500000Y-79750000D02*
X145500000Y-79250000D01*
X145500000Y-82500000D02*
X145500000Y-81250000D01*
X145500000Y-83750000D02*
X145500000Y-82500000D01*
X145500000Y-81250000D02*
X146078000Y-81250000D01*
X145500000Y-79750000D02*
X145500000Y-81250000D01*
X145500000Y-79250000D02*
X144750000Y-78500000D01*
X144750000Y-76750000D02*
X144750000Y-78500000D01*
X141750000Y-76750000D02*
X143250000Y-76750000D01*
X141250000Y-76000000D02*
X141000000Y-75750000D01*
X141250000Y-76250000D02*
X141250000Y-76000000D01*
X141000000Y-74500000D02*
X141000000Y-75750000D01*
X141000000Y-72000000D02*
X141000000Y-73250000D01*
X141700000Y-72000000D02*
X142000000Y-71700000D01*
X146078000Y-81422000D02*
X146078000Y-81250000D01*
X146718000Y-78950000D02*
X146718000Y-78006600D01*
X146718000Y-78006600D02*
X146724600Y-78000000D01*
D39*
X142150000Y-84800000D02*
X142150000Y-84650000D01*
D40*
X146724600Y-71756600D02*
X146718000Y-71750000D01*
X146724600Y-78000000D02*
X146724600Y-71756600D01*
D39*
X142750000Y-82450000D02*
X143000000Y-82450000D01*
X141750000Y-81450000D02*
X142750000Y-82450000D01*
X141750000Y-80600000D02*
X141750000Y-81450000D01*
X144050000Y-97050000D02*
X144300000Y-97050000D01*
X144300000Y-97050000D02*
X145250000Y-97050000D01*
X143750000Y-96750000D02*
X144050000Y-97050000D01*
X143750000Y-96300000D02*
X143750000Y-96750000D01*
D41*
X135500000Y-94250000D02*
X135500000Y-95750000D01*
D39*
X160884000Y-79216000D02*
X161100000Y-79000000D01*
X160160400Y-79216000D02*
X160884000Y-79216000D01*
D38*
X137750000Y-83750000D02*
X137600000Y-83900000D01*
X138500000Y-83750000D02*
X137750000Y-83750000D01*
D39*
X138950000Y-99950000D02*
X138950000Y-100500000D01*
X139100000Y-99800000D02*
X138950000Y-99950000D01*
X139500000Y-99800000D02*
X139100000Y-99800000D01*
X140000000Y-99300000D02*
X139500000Y-99800000D01*
X140000000Y-99000000D02*
X140000000Y-99300000D01*
X140900000Y-98400000D02*
X140900000Y-97300000D01*
X140900000Y-97300000D02*
X141350000Y-96850000D01*
X141350000Y-96850000D02*
X141800000Y-96850000D01*
X140300000Y-99000000D02*
X140900000Y-98400000D01*
X140000000Y-99000000D02*
X140300000Y-99000000D01*
X143200000Y-96850000D02*
X143750000Y-96300000D01*
X141800000Y-96850000D02*
X143200000Y-96850000D01*
D41*
X152000000Y-104950000D02*
X152000000Y-104100000D01*
X151900000Y-105050000D02*
X152000000Y-104950000D01*
X150800760Y-105050000D02*
X151900000Y-105050000D01*
X148550760Y-100800000D02*
X148000760Y-101350000D01*
X149250000Y-100800000D02*
X148550760Y-100800000D01*
X152950000Y-101350000D02*
X152500000Y-100900000D01*
X153400760Y-101350000D02*
X152950000Y-101350000D01*
X154050760Y-100700000D02*
X153400760Y-101350000D01*
X154650000Y-100700000D02*
X154050760Y-100700000D01*
X147400000Y-100749240D02*
X148000760Y-101350000D01*
X147400000Y-99750000D02*
X147400000Y-100749240D01*
X149250000Y-100450000D02*
X149250000Y-100800000D01*
X151000000Y-98700000D02*
X149250000Y-100450000D01*
X151000000Y-98550000D02*
X151000000Y-98700000D01*
D42*
X157250000Y-90300000D02*
X158450000Y-89100000D01*
D39*
X163000000Y-84700000D02*
X163000000Y-84400000D01*
X162500000Y-85200000D02*
X163000000Y-84700000D01*
X161300000Y-85200000D02*
X162500000Y-85200000D01*
X160450000Y-86050000D02*
X161300000Y-85200000D01*
X160450000Y-86250000D02*
X160450000Y-86050000D01*
X153150000Y-79100000D02*
X153000000Y-78950000D01*
X153150000Y-80300000D02*
X153150000Y-79100000D01*
X153100000Y-80300000D02*
X152800000Y-80600000D01*
X153150000Y-80300000D02*
X153100000Y-80300000D01*
X154400000Y-76050000D02*
X154250000Y-75900000D01*
X154400000Y-77250000D02*
X154400000Y-76050000D01*
X150700000Y-78850000D02*
X150700000Y-78800000D01*
X150000000Y-79550000D02*
X150700000Y-78850000D01*
X151300000Y-79550000D02*
X150000000Y-79550000D01*
X159300000Y-102450000D02*
X158800000Y-102450000D01*
X160100000Y-102450000D02*
X159300000Y-102450000D01*
X158200000Y-90300000D02*
X158300000Y-90400000D01*
X157250000Y-90300000D02*
X158200000Y-90300000D01*
X152400000Y-73150000D02*
X152450000Y-73150000D01*
D38*
X141200000Y-94200000D02*
X141500000Y-94500000D01*
X141200000Y-93500000D02*
X141200000Y-94200000D01*
X140550000Y-89600000D02*
X139700000Y-89600000D01*
X139700000Y-89600000D02*
X139600000Y-89500000D01*
D41*
X148900000Y-72700000D02*
X148900000Y-73900000D01*
X148900000Y-73900000D02*
X148900000Y-75100000D01*
X148200000Y-77000000D02*
X148000000Y-77000000D01*
X148200000Y-77000000D02*
X148900000Y-76300000D01*
X148900000Y-75100000D02*
X148900000Y-76300000D01*
X148900000Y-71600000D02*
X148900000Y-72700000D01*
D39*
X162250000Y-82550000D02*
X161000000Y-82550000D01*
X162250000Y-82550000D02*
X162500000Y-82800000D01*
D41*
X147250000Y-101350000D02*
X148000760Y-101350000D01*
X147250000Y-101350000D02*
X146800000Y-100900000D01*
D38*
X137900000Y-77218198D02*
X137918198Y-77218198D01*
X137918198Y-77218198D02*
X138600000Y-77900000D01*
D39*
X135618198Y-77218198D02*
X137900000Y-77218198D01*
X137500000Y-100500000D02*
X138950000Y-100500000D01*
X137500000Y-100500000D02*
X137400000Y-100600000D01*
X141400000Y-84800000D02*
X141200000Y-85000000D01*
X141350000Y-85150000D02*
X141350000Y-86000000D01*
X141350000Y-85150000D02*
X141200000Y-85000000D01*
X142150000Y-84800000D02*
X141400000Y-84800000D01*
D42*
X157450000Y-79550000D02*
X157500000Y-79600000D01*
X156600000Y-79550000D02*
X157450000Y-79550000D01*
D39*
X139281802Y-105781802D02*
X138618198Y-105781802D01*
X139281802Y-105781802D02*
X139700000Y-106200000D01*
D38*
X133800000Y-91650000D02*
X133800000Y-92900000D01*
X135500000Y-95750000D02*
X135500000Y-97000000D01*
X136500000Y-83900000D02*
X137600000Y-83900000D01*
X134950000Y-82350000D02*
X136500000Y-83900000D01*
X134950000Y-82000760D02*
X134950000Y-82350000D01*
X150650000Y-73150000D02*
X150600000Y-73100000D01*
X152400000Y-73150000D02*
X150650000Y-73150000D01*
X159900000Y-73600000D02*
X160400000Y-73100000D01*
X159900000Y-73850000D02*
X159900000Y-73600000D01*
D40*
X137000000Y-95750000D02*
X137000000Y-94250000D01*
D42*
X145525000Y-86250000D02*
X145525000Y-86075000D01*
X145525000Y-86075000D02*
X143000000Y-83550000D01*
D39*
X139700000Y-92100000D02*
X142900000Y-92100000D01*
X142900000Y-92100000D02*
X143000000Y-92000000D01*
X137550000Y-94250000D02*
X137000000Y-94250000D01*
X137750000Y-94050000D02*
X139200000Y-92600000D01*
X137550000Y-94250000D02*
X137750000Y-94050000D01*
D42*
X145525000Y-90750000D02*
X144250000Y-90750000D01*
X143000000Y-92000000D02*
X144250000Y-90750000D01*
D39*
X139200000Y-92600000D02*
X139700000Y-92100000D01*
D42*
X136900000Y-97000000D02*
X137000000Y-96900000D01*
X137000000Y-96900000D02*
X137000000Y-95750000D01*
D38*
X143000000Y-83550000D02*
X142650000Y-83550000D01*
X142650000Y-83550000D02*
X142400000Y-83800000D01*
D42*
X150000000Y-80650000D02*
X150000000Y-81300000D01*
X149750000Y-81550000D02*
X149750000Y-85525000D01*
X150000000Y-81300000D02*
X149750000Y-81550000D01*
X138100000Y-85900000D02*
X138800000Y-86600000D01*
X149450000Y-80650000D02*
X150000000Y-80650000D01*
X149400000Y-80600000D02*
X149450000Y-80650000D01*
X138100000Y-85654460D02*
X138100000Y-85900000D01*
X142500000Y-86750000D02*
X142500000Y-86050000D01*
X142500000Y-86050000D02*
X142450000Y-86000000D01*
D39*
X145525000Y-93750000D02*
X145250000Y-93750000D01*
X145525000Y-93750000D02*
X145500000Y-93750000D01*
D42*
X143050000Y-86750000D02*
X143000000Y-86750000D01*
X144750000Y-87750000D02*
X144000000Y-87000000D01*
X145525000Y-87750000D02*
X144750000Y-87750000D01*
D39*
X143550000Y-87000000D02*
X144000000Y-87000000D01*
X143300000Y-86750000D02*
X143550000Y-87000000D01*
X143000000Y-86750000D02*
X143300000Y-86750000D01*
D42*
X142500000Y-86750000D02*
X143050000Y-86750000D01*
D39*
X138500000Y-85604460D02*
X138500000Y-85700000D01*
X140000000Y-84900000D02*
X140000000Y-83750000D01*
X139245540Y-85654460D02*
X140000000Y-84900000D01*
X138100000Y-85654460D02*
X139245540Y-85654460D01*
X139554460Y-85654460D02*
X140200000Y-86300000D01*
X140200000Y-86300000D02*
X140200000Y-86500000D01*
X140200000Y-86500000D02*
X140450000Y-86750000D01*
X140450000Y-86750000D02*
X140500000Y-86750000D01*
D42*
X140500000Y-86750000D02*
X142500000Y-86750000D01*
D39*
X138100000Y-85654460D02*
X139554460Y-85654460D01*
X144800000Y-95200000D02*
X143750000Y-95200000D01*
X145525000Y-94475000D02*
X144800000Y-95200000D01*
X145525000Y-93750000D02*
X145525000Y-94475000D01*
D43*
X144200000Y-94400000D02*
X143750000Y-94850000D01*
X143750000Y-94850000D02*
X143750000Y-95200000D01*
D39*
X151000000Y-96300000D02*
X150500000Y-96300000D01*
X150500000Y-96300000D02*
X150500000Y-96400000D01*
X150500000Y-96400000D02*
X150500000Y-96300000D01*
X154475000Y-89750000D02*
X155350000Y-89750000D01*
X155350000Y-89750000D02*
X155900000Y-90300000D01*
X155900000Y-90300000D02*
X156150000Y-90300000D01*
X156150000Y-90850000D02*
X156150000Y-90300000D01*
X156200000Y-90900000D02*
X156150000Y-90850000D01*
X150750000Y-96550000D02*
X151000000Y-96300000D01*
X139250000Y-96550000D02*
X139300000Y-96500000D01*
X139250000Y-96550000D02*
X139250000Y-97395540D01*
X138500000Y-99000000D02*
X138500000Y-98145540D01*
X138500000Y-98145540D02*
X139250000Y-97395540D01*
D42*
X151000000Y-96800000D02*
X150750000Y-96550000D01*
X150750000Y-96550000D02*
X150500000Y-96300000D01*
X150500000Y-96300000D02*
X149750000Y-95550000D01*
X149750000Y-95550000D02*
X149750000Y-94475000D01*
X151000000Y-97450000D02*
X151000000Y-96800000D01*
D39*
X137300000Y-99000000D02*
X137100000Y-98800000D01*
X138500000Y-99000000D02*
X137300000Y-99000000D01*
X147750000Y-95350000D02*
X146600000Y-96500000D01*
X146600000Y-96500000D02*
X146600000Y-97900000D01*
X146600000Y-97900000D02*
X145500000Y-99000000D01*
X145500000Y-99000000D02*
X145250000Y-99000000D01*
X145250000Y-99000000D02*
X144350000Y-99900000D01*
X147750000Y-94475000D02*
X147750000Y-95350000D01*
X144350000Y-100150000D02*
X144350000Y-99900000D01*
X140050000Y-100950000D02*
X140600000Y-101500000D01*
X140600000Y-101500000D02*
X143000000Y-101500000D01*
X143000000Y-101500000D02*
X144350000Y-100150000D01*
X140050000Y-100500000D02*
X140050000Y-100950000D01*
D42*
X146250000Y-94475000D02*
X146250000Y-94500000D01*
D39*
X145550000Y-95950000D02*
X146250000Y-95250000D01*
X146250000Y-95250000D02*
X146250000Y-94475000D01*
X145250000Y-95950000D02*
X145550000Y-95950000D01*
X151300000Y-80900000D02*
X151300000Y-80650000D01*
X150250000Y-81950000D02*
X151300000Y-80900000D01*
X150250000Y-85525000D02*
X150250000Y-81950000D01*
X142200000Y-99900000D02*
X141850000Y-99900000D01*
X147250000Y-95150000D02*
X146100000Y-96300000D01*
X146100000Y-96300000D02*
X146100000Y-97700000D01*
X146100000Y-97700000D02*
X145800000Y-98000000D01*
X145800000Y-98000000D02*
X143500000Y-98000000D01*
X143500000Y-98000000D02*
X142900000Y-98600000D01*
X142900000Y-98600000D02*
X142900000Y-99200000D01*
X142900000Y-99200000D02*
X142200000Y-99900000D01*
X147250000Y-94475000D02*
X147250000Y-95150000D01*
X141800000Y-99850000D02*
X141850000Y-99900000D01*
X141800000Y-97950000D02*
X141800000Y-99850000D01*
X163900000Y-98200000D02*
X163900000Y-98300000D01*
X163900000Y-98300000D02*
X163500000Y-98700000D01*
X163250000Y-98050000D02*
X163750000Y-98050000D01*
X162369670Y-97169670D02*
X163250000Y-98050000D01*
X163750000Y-98050000D02*
X163900000Y-98200000D01*
X163900000Y-98200000D02*
X164700000Y-99000000D01*
X160783883Y-99644544D02*
X160794544Y-99644544D01*
X160794544Y-99644544D02*
X161250000Y-100100000D01*
X161250000Y-100100000D02*
X161250000Y-100250000D01*
X161250000Y-100250000D02*
X160750000Y-100750000D01*
X160750000Y-100750000D02*
X159150000Y-100750000D01*
X159150000Y-100750000D02*
X158800000Y-101100000D01*
X158800000Y-101100000D02*
X158800000Y-101350000D01*
X162198097Y-97169670D02*
X162369670Y-97169670D01*
D43*
X145525000Y-88250000D02*
X144650000Y-88250000D01*
X144050000Y-87650000D02*
X143000000Y-87650000D01*
X144650000Y-88250000D02*
X144050000Y-87650000D01*
D41*
X146000000Y-107650000D02*
X146250000Y-107900000D01*
X144200000Y-107650000D02*
X146000000Y-107650000D01*
X142400000Y-107650000D02*
X144200000Y-107650000D01*
D39*
X142350000Y-93450000D02*
X142300000Y-93500000D01*
X144950000Y-91750000D02*
X145525000Y-91750000D01*
X143250000Y-93450000D02*
X144950000Y-91750000D01*
X142350000Y-93450000D02*
X143250000Y-93450000D01*
X143000000Y-87650000D02*
X143000000Y-87700000D01*
X140400000Y-87900000D02*
X140100000Y-87600000D01*
X143000000Y-87700000D02*
X142400000Y-88300000D01*
X140700000Y-88300000D02*
X140400000Y-88000000D01*
X142400000Y-88300000D02*
X140700000Y-88300000D01*
X140400000Y-88000000D02*
X140400000Y-87900000D01*
D41*
X141150000Y-107650000D02*
X141100000Y-107700000D01*
X142400000Y-107650000D02*
X141150000Y-107650000D01*
X148900000Y-98650000D02*
X149000000Y-98550000D01*
X147400000Y-98650000D02*
X148900000Y-98650000D01*
X153100000Y-98400000D02*
X152800000Y-98700000D01*
X153100000Y-98250000D02*
X153100000Y-98400000D01*
X146950000Y-98650000D02*
X146400000Y-99200000D01*
X147400000Y-98650000D02*
X146950000Y-98650000D01*
D42*
X147400000Y-96700000D02*
X148750000Y-95350000D01*
X148750000Y-95350000D02*
X148750000Y-94475000D01*
X147400000Y-98650000D02*
X147400000Y-96700000D01*
X157200000Y-89250000D02*
X157350000Y-89100000D01*
X154475000Y-89250000D02*
X157200000Y-89250000D01*
X157350000Y-89100000D02*
X157400000Y-89100000D01*
X158950000Y-101200000D02*
X158800000Y-101350000D01*
X161150000Y-90700000D02*
X162250000Y-90700000D01*
X162250000Y-90700000D02*
X162250000Y-89750000D01*
X162250000Y-89750000D02*
X162200000Y-89700000D01*
D39*
X157350000Y-88850000D02*
X158100000Y-88100000D01*
X157350000Y-89100000D02*
X157350000Y-88850000D01*
X159300000Y-84300000D02*
X159450000Y-84150000D01*
X159450000Y-84150000D02*
X159450000Y-83500000D01*
X162500000Y-87000000D02*
X163200000Y-87700000D01*
X162500000Y-86300000D02*
X162500000Y-87000000D01*
D41*
X141650000Y-89950000D02*
X141100000Y-90500000D01*
X141100000Y-90500000D02*
X139100000Y-90500000D01*
X139100000Y-90500000D02*
X138300000Y-89700000D01*
X141650000Y-89600000D02*
X141650000Y-89950000D01*
D39*
X142400000Y-89600000D02*
X142750000Y-89250000D01*
X142750000Y-89250000D02*
X145525000Y-89250000D01*
X141650000Y-89600000D02*
X142400000Y-89600000D01*
X142300000Y-94000000D02*
X142600000Y-94300000D01*
X142600000Y-94300000D02*
X142600000Y-95400000D01*
X142600000Y-95400000D02*
X142400000Y-95600000D01*
X142300000Y-93500000D02*
X142300000Y-94000000D01*
X157750000Y-101350000D02*
X158800000Y-101350000D01*
X157750000Y-101350000D02*
X157700000Y-101400000D01*
D42*
X157800000Y-77100000D02*
X157900000Y-77200000D01*
D39*
X157916000Y-77184000D02*
X158839600Y-77184000D01*
X157916000Y-77184000D02*
X157900000Y-77200000D01*
D42*
X156850000Y-77100000D02*
X157800000Y-77100000D01*
D38*
X148600000Y-108000000D02*
X148400000Y-108200000D01*
X148400000Y-108200000D02*
X146550000Y-108200000D01*
X146550000Y-108200000D02*
X146000000Y-107650000D01*
X140200000Y-80000000D02*
X141100000Y-79100000D01*
D39*
X141300000Y-79300000D02*
X141850000Y-79300000D01*
X141300000Y-79300000D02*
X141100000Y-79100000D01*
D38*
X139150000Y-80000000D02*
X140200000Y-80000000D01*
X133400000Y-97050000D02*
X133400000Y-98200000D01*
D39*
X151250000Y-83050000D02*
X153000000Y-81300000D01*
X153000000Y-81300000D02*
X153250000Y-81300000D01*
X153250000Y-81300000D02*
X154250000Y-80300000D01*
X151250000Y-85525000D02*
X151250000Y-83050000D01*
X154400000Y-80150000D02*
X154250000Y-80300000D01*
X154400000Y-78950000D02*
X154400000Y-80150000D01*
X150750000Y-82450000D02*
X152000000Y-81200000D01*
X152000000Y-81200000D02*
X152000000Y-78250000D01*
X152000000Y-78250000D02*
X153000000Y-77250000D01*
X150750000Y-85525000D02*
X150750000Y-82450000D01*
X153000000Y-76050000D02*
X153150000Y-75900000D01*
X153000000Y-77250000D02*
X153000000Y-76050000D01*
D42*
X141650000Y-105050000D02*
X141650000Y-104100000D01*
X142350000Y-105750000D02*
X141650000Y-105050000D01*
X142400000Y-105750000D02*
X142350000Y-105750000D01*
D39*
X144200000Y-105750000D02*
X144200000Y-105700000D01*
D42*
X143850000Y-104850000D02*
X143850000Y-104100000D01*
X144200000Y-105200000D02*
X143850000Y-104850000D01*
X144200000Y-105750000D02*
X144200000Y-105200000D01*
X147250000Y-105750000D02*
X147500000Y-106000000D01*
X147500000Y-106000000D02*
X147500000Y-106250000D01*
X146000000Y-105750000D02*
X147250000Y-105750000D01*
D38*
X132400000Y-95150000D02*
X133400000Y-96150000D01*
X132400000Y-94550000D02*
X132400000Y-95150000D01*
X138150000Y-80950000D02*
X138150000Y-81700000D01*
X137250000Y-80050000D02*
X138150000Y-80950000D01*
X137250000Y-80000000D02*
X137250000Y-80050000D01*
X134120604Y-102935893D02*
X133564107Y-102935893D01*
X133564107Y-102935893D02*
X132000000Y-104500000D01*
X132000000Y-104500000D02*
X132556497Y-104500000D01*
X165379396Y-77464107D02*
X166035893Y-77464107D01*
X166035893Y-77464107D02*
X168000000Y-75500000D01*
X162135893Y-105879396D02*
X162379396Y-105879396D01*
X162379396Y-105879396D02*
X164500000Y-108000000D01*
X137564107Y-74120604D02*
X137564107Y-74064107D01*
X137564107Y-74064107D02*
X135500000Y-72000000D01*
D39*
X139145540Y-87945540D02*
X138100000Y-87945540D01*
X139950000Y-88750000D02*
X139145540Y-87945540D01*
X145525000Y-88750000D02*
X139950000Y-88750000D01*
D41*
X140400000Y-92700000D02*
X139500000Y-93600000D01*
D39*
X144550000Y-91250000D02*
X143200000Y-92600000D01*
X143200000Y-92600000D02*
X140500000Y-92600000D01*
X140500000Y-92600000D02*
X140400000Y-92700000D01*
X145525000Y-91250000D02*
X144550000Y-91250000D01*
D41*
X139500000Y-93600000D02*
X139500000Y-94854460D01*
X139500000Y-94854460D02*
X139250000Y-95104460D01*
D42*
X137854460Y-90354460D02*
X138500000Y-91000000D01*
X138500000Y-91000000D02*
X142250000Y-91000000D01*
X142250000Y-91000000D02*
X143500000Y-89750000D01*
X143500000Y-89750000D02*
X145525000Y-89750000D01*
X136250000Y-90354460D02*
X137854460Y-90354460D01*
X137854460Y-92645540D02*
X139000000Y-91500000D01*
X139000000Y-91500000D02*
X142500000Y-91500000D01*
X142500000Y-91500000D02*
X143750000Y-90250000D01*
X143750000Y-90250000D02*
X145525000Y-90250000D01*
X136250000Y-92645540D02*
X137854460Y-92645540D01*
D40*
X146718000Y-80925000D02*
X146718000Y-80050000D01*
D43*
X160160400Y-77184000D02*
X160416000Y-77184000D01*
X161300000Y-76300000D02*
X161300000Y-75750000D01*
X160416000Y-77184000D02*
X161300000Y-76300000D01*
D42*
X149250000Y-95650000D02*
X149000000Y-95900000D01*
X149000000Y-96700000D02*
X149000000Y-97650000D01*
X149000000Y-95900000D02*
X149000000Y-96700000D01*
X149250000Y-94475000D02*
X149250000Y-95650000D01*
D39*
X149000000Y-96700000D02*
X149500000Y-96700000D01*
X152600000Y-96700000D02*
X152500000Y-96700000D01*
X152500000Y-96700000D02*
X152100000Y-97100000D01*
D42*
X150250000Y-95250000D02*
X150250000Y-94475000D01*
X150500000Y-95500000D02*
X150250000Y-95250000D01*
X151400000Y-95500000D02*
X150500000Y-95500000D01*
X152600000Y-96700000D02*
X151400000Y-95500000D01*
X153100000Y-97200000D02*
X152600000Y-96700000D01*
X153100000Y-97350000D02*
X153100000Y-97200000D01*
X149300000Y-103250000D02*
X149500000Y-103050000D01*
X148000760Y-103250000D02*
X149300000Y-103250000D01*
X142550000Y-103750000D02*
X143200000Y-103100000D01*
X143200000Y-103100000D02*
X145201780Y-103100000D01*
X145201780Y-103100000D02*
X146001780Y-102300000D01*
X142550000Y-104100000D02*
X142550000Y-103750000D01*
X154600000Y-103250000D02*
X154900000Y-102950000D01*
X153400760Y-103250000D02*
X154600000Y-103250000D01*
X146500000Y-104100000D02*
X146800000Y-104400000D01*
X146800000Y-104400000D02*
X150100000Y-104400000D01*
X150100000Y-104400000D02*
X151401780Y-103098220D01*
X151401780Y-103098220D02*
X151401780Y-102300000D01*
X144750000Y-104100000D02*
X146500000Y-104100000D01*
X151000760Y-107150000D02*
X150800760Y-106950000D01*
X152400000Y-107150000D02*
X151000760Y-107150000D01*
X148350000Y-107150000D02*
X148801780Y-106698220D01*
X148801780Y-106698220D02*
X148801780Y-106000000D01*
X147500000Y-107150000D02*
X148350000Y-107150000D01*
D41*
X136981802Y-105418198D02*
X137981802Y-106418198D01*
D38*
X136718198Y-106418198D02*
X136600000Y-106300000D01*
X137981802Y-106418198D02*
X136718198Y-106418198D01*
D39*
X161550000Y-74850000D02*
X162100000Y-74300000D01*
X161300000Y-74850000D02*
X161550000Y-74850000D01*
D38*
X160000000Y-74850000D02*
X159900000Y-74750000D01*
X161300000Y-74850000D02*
X160000000Y-74850000D01*
X135001780Y-80001780D02*
X136700000Y-81700000D01*
X136700000Y-81700000D02*
X137250000Y-81700000D01*
X134000000Y-80001780D02*
X135001780Y-80001780D01*
D39*
X164918198Y-103118198D02*
X166018198Y-102018198D01*
D38*
X166018198Y-102981802D02*
X166018198Y-102018198D01*
X166000000Y-103000000D02*
X166018198Y-102981802D01*
D39*
X133981802Y-77581802D02*
X134981802Y-76581802D01*
D38*
X133518198Y-77581802D02*
X133981802Y-77581802D01*
X133000000Y-78100000D02*
X133518198Y-77581802D01*
D42*
X150150000Y-101450000D02*
X150150000Y-100800000D01*
X149500000Y-102100000D02*
X150150000Y-101450000D01*
X149500000Y-102150000D02*
X149500000Y-102100000D01*
X152250000Y-95550000D02*
X153100000Y-96400000D01*
X153100000Y-96400000D02*
X153600000Y-96400000D01*
X153600000Y-96400000D02*
X154100000Y-96900000D01*
X154100000Y-96900000D02*
X154100000Y-98700000D01*
X154100000Y-98700000D02*
X153300000Y-99500000D01*
X153300000Y-99500000D02*
X150900000Y-99500000D01*
X150900000Y-99500000D02*
X150150000Y-100250000D01*
X150150000Y-100250000D02*
X150150000Y-100800000D01*
X152250000Y-94475000D02*
X152250000Y-95550000D01*
X155550000Y-101350000D02*
X155550000Y-100700000D01*
X154900000Y-102000000D02*
X155550000Y-101350000D01*
X154900000Y-102050000D02*
X154900000Y-102000000D01*
X152750000Y-95450000D02*
X153300000Y-96000000D01*
X153300000Y-96000000D02*
X153800000Y-96000000D01*
X153800000Y-96000000D02*
X154500000Y-96700000D01*
X154500000Y-96700000D02*
X154500000Y-99200000D01*
X154500000Y-99200000D02*
X155550000Y-100250000D01*
X155550000Y-100250000D02*
X155550000Y-100700000D01*
X152750000Y-94475000D02*
X152750000Y-95450000D01*
X152850000Y-105750000D02*
X152850000Y-105000000D01*
X152400000Y-106200000D02*
X152850000Y-105750000D01*
X152400000Y-106250000D02*
X152400000Y-106200000D01*
X153250000Y-95150000D02*
X153700000Y-95600000D01*
X153700000Y-95600000D02*
X154000000Y-95600000D01*
X154000000Y-95600000D02*
X155000000Y-96600000D01*
X155000000Y-96600000D02*
X155000000Y-99100000D01*
X155000000Y-99100000D02*
X155600000Y-99700000D01*
X155600000Y-99700000D02*
X156100000Y-99700000D01*
X156100000Y-99700000D02*
X156400000Y-100000000D01*
X156400000Y-100000000D02*
X156400000Y-103000000D01*
X156400000Y-103000000D02*
X155600000Y-103800000D01*
X155600000Y-103800000D02*
X154600000Y-103800000D01*
X154600000Y-103800000D02*
X153400000Y-105000000D01*
X153400000Y-105000000D02*
X152850000Y-105000000D01*
X153250000Y-94475000D02*
X153250000Y-95150000D01*
X155950000Y-76350000D02*
X155800000Y-76200000D01*
X155950000Y-77100000D02*
X155950000Y-76350000D01*
X152400000Y-74050000D02*
X151850000Y-74050000D01*
X151600000Y-74300000D02*
X151600000Y-74700000D01*
X151850000Y-74050000D02*
X151600000Y-74300000D01*
D39*
X145525000Y-87250000D02*
X144850000Y-87250000D01*
X143800000Y-86200000D02*
X143800000Y-86000000D01*
X144850000Y-87250000D02*
X143800000Y-86200000D01*
D43*
X145525000Y-86750000D02*
X144950000Y-86750000D01*
X143783024Y-84800000D02*
X143050000Y-84800000D01*
X144600000Y-85616976D02*
X143783024Y-84800000D01*
X144600000Y-86400000D02*
X144600000Y-85616976D01*
X144950000Y-86750000D02*
X144600000Y-86400000D01*
D42*
X151750000Y-83650000D02*
X154200000Y-81200000D01*
X154200000Y-81200000D02*
X154900000Y-81200000D01*
X154900000Y-81200000D02*
X155300000Y-80800000D01*
X155300000Y-80800000D02*
X155300000Y-79100000D01*
X155300000Y-79100000D02*
X155750000Y-78650000D01*
X155750000Y-78650000D02*
X156600000Y-78650000D01*
X151750000Y-85525000D02*
X151750000Y-83650000D01*
X156600000Y-78100000D02*
X156700000Y-78000000D01*
X156600000Y-78650000D02*
X156600000Y-78100000D01*
X157300000Y-83500000D02*
X158550000Y-83500000D01*
X155400000Y-85400000D02*
X157300000Y-83500000D01*
X155400000Y-85600000D02*
X155400000Y-85400000D01*
X155400000Y-87100000D02*
X155400000Y-85600000D01*
X155250000Y-87250000D02*
X155400000Y-87100000D01*
X154475000Y-87250000D02*
X155250000Y-87250000D01*
D39*
X155300000Y-85600000D02*
X155200000Y-85500000D01*
X155400000Y-85600000D02*
X155300000Y-85600000D01*
D42*
X158150000Y-86250000D02*
X157000000Y-87400000D01*
X155650000Y-88750000D02*
X154475000Y-88750000D01*
X155650000Y-88750000D02*
X157000000Y-87400000D01*
X159550000Y-86250000D02*
X158150000Y-86250000D01*
D39*
X159550000Y-86750000D02*
X159700000Y-86900000D01*
X159550000Y-86250000D02*
X159550000Y-86750000D01*
D42*
X158800000Y-85400000D02*
X159700000Y-85400000D01*
X161000000Y-84100000D02*
X161000000Y-83450000D01*
X159700000Y-85400000D02*
X161000000Y-84100000D01*
D39*
X156400000Y-86500000D02*
X156800000Y-86100000D01*
X156800000Y-86100000D02*
X157500000Y-86100000D01*
X157500000Y-86100000D02*
X158200000Y-85400000D01*
X158200000Y-85400000D02*
X158800000Y-85400000D01*
D42*
X154475000Y-88250000D02*
X155450000Y-88250000D01*
X156400000Y-87300000D02*
X156400000Y-86600000D01*
X155450000Y-88250000D02*
X156400000Y-87300000D01*
D39*
X156400000Y-86600000D02*
X156400000Y-86500000D01*
D38*
X133800000Y-89200000D02*
X133500000Y-88900000D01*
X133800000Y-90750000D02*
X133800000Y-89200000D01*
D39*
X154475000Y-93750000D02*
X155850000Y-93750000D01*
X156500000Y-94400000D02*
X157200000Y-94400000D01*
X155850000Y-93750000D02*
X156500000Y-94400000D01*
X138900000Y-103300000D02*
X137618198Y-104581802D01*
X154475000Y-93750000D02*
X154750000Y-93750000D01*
X154475000Y-93750000D02*
X154500000Y-93750000D01*
X137618198Y-104781802D02*
X137618198Y-104581802D01*
X154475000Y-93250000D02*
X156750000Y-93250000D01*
X156750000Y-93250000D02*
X156800000Y-93300000D01*
X165900000Y-97800000D02*
X164800000Y-97800000D01*
X166600000Y-98500000D02*
X165900000Y-97800000D01*
X166600000Y-100200000D02*
X166600000Y-98500000D01*
X166600000Y-100200000D02*
X165418198Y-101381802D01*
X165381802Y-101381802D02*
X165418198Y-101381802D01*
X153750000Y-94750000D02*
X154200000Y-95200000D01*
X154800000Y-95200000D02*
X155500000Y-95900000D01*
X154200000Y-95200000D02*
X154800000Y-95200000D01*
X133450000Y-79000000D02*
X132700000Y-79750000D01*
X134100000Y-79000000D02*
X134618198Y-78481802D01*
X134100000Y-79000000D02*
X133450000Y-79000000D01*
X134618198Y-78481802D02*
X134618198Y-78218198D01*
X153750000Y-94475000D02*
X153750000Y-94750000D01*
D40*
X146750000Y-85525000D02*
X146750000Y-81607000D01*
X146750000Y-81607000D02*
X146718000Y-81575000D01*
D39*
X155350000Y-87750000D02*
X155900000Y-87200000D01*
X155900000Y-87200000D02*
X155900000Y-86100000D01*
X155900000Y-86100000D02*
X156900000Y-85100000D01*
X156900000Y-85100000D02*
X156900000Y-85000000D01*
X154475000Y-87750000D02*
X155350000Y-87750000D01*
X161490990Y-98937437D02*
X161490990Y-98940990D01*
X161490990Y-98940990D02*
X162850000Y-100300000D01*
X160650000Y-101900000D02*
X160100000Y-101350000D01*
X161700000Y-101900000D02*
X160650000Y-101900000D01*
X162500000Y-101900000D02*
X161700000Y-101900000D01*
X162850000Y-101550000D02*
X162500000Y-101900000D01*
X162850000Y-100300000D02*
X162850000Y-101550000D01*
X161490990Y-98937437D02*
X161537437Y-98937437D01*
D42*
X159950000Y-101200000D02*
X160100000Y-101350000D01*
X153250000Y-85050000D02*
X153700000Y-84600000D01*
X153250000Y-85525000D02*
X153250000Y-85050000D01*
X153700000Y-84600000D02*
X154400000Y-84600000D01*
X158839600Y-80160400D02*
X158839600Y-79216000D01*
X154400000Y-84600000D02*
X158839600Y-80160400D01*
X153750000Y-85525000D02*
X154175000Y-85525000D01*
X159500000Y-80900000D02*
X159500000Y-79216000D01*
X158400000Y-82000000D02*
X159500000Y-80900000D01*
X157700000Y-82000000D02*
X158400000Y-82000000D01*
X154175000Y-85525000D02*
X157700000Y-82000000D01*
D39*
X159016117Y-95755456D02*
X159005456Y-95755456D01*
X159005456Y-95755456D02*
X158550000Y-95300000D01*
X158850000Y-94600000D02*
X164000000Y-94600000D01*
X158550000Y-94900000D02*
X158850000Y-94600000D01*
X158550000Y-95300000D02*
X158550000Y-94900000D01*
X164000000Y-94600000D02*
X164100000Y-94500000D01*
X159016117Y-95755456D02*
X158955456Y-95755456D01*
X157601903Y-97169670D02*
X157601903Y-97151903D01*
X157601903Y-97151903D02*
X156700000Y-96250000D01*
X156700000Y-96250000D02*
X156700000Y-95850000D01*
D42*
X154475000Y-91250000D02*
X155250000Y-91250000D01*
X155800000Y-91800000D02*
X157400000Y-91800000D01*
X155250000Y-91250000D02*
X155800000Y-91800000D01*
X163150000Y-91850000D02*
X163150000Y-90700000D01*
X162140000Y-92860000D02*
X163150000Y-91850000D01*
X162140000Y-93000000D02*
X162140000Y-92860000D01*
D39*
X157955456Y-96816117D02*
X157955456Y-96805456D01*
X157955456Y-96805456D02*
X157450000Y-96300000D01*
X157450000Y-96300000D02*
X157450000Y-95550000D01*
X157450000Y-95550000D02*
X158050000Y-94950000D01*
X158050000Y-94950000D02*
X158050000Y-94550000D01*
X158050000Y-94550000D02*
X159600000Y-93000000D01*
X159600000Y-93450000D02*
X159600000Y-93000000D01*
D42*
X159100000Y-92500000D02*
X159600000Y-93000000D01*
X155050000Y-91750000D02*
X155800000Y-92500000D01*
X155800000Y-92500000D02*
X159100000Y-92500000D01*
X154475000Y-91750000D02*
X155050000Y-91750000D01*
X159600000Y-91350000D02*
X160250000Y-90700000D01*
X159600000Y-93000000D02*
X159600000Y-91350000D01*
D39*
X154500000Y-82200000D02*
X154600000Y-82100000D01*
X152250000Y-85525000D02*
X152250000Y-84150000D01*
X152250000Y-84150000D02*
X154200000Y-82200000D01*
X154200000Y-82200000D02*
X154500000Y-82200000D01*
D43*
X167000000Y-81750000D02*
X167050000Y-81700000D01*
X156800000Y-81100000D02*
X157000000Y-80900000D01*
D39*
X152750000Y-84750000D02*
X153800000Y-83700000D01*
X153800000Y-83700000D02*
X154200000Y-83700000D01*
X154200000Y-83700000D02*
X157000000Y-80900000D01*
X152750000Y-85525000D02*
X152750000Y-84750000D01*
X167050000Y-84160000D02*
X167000000Y-84210000D01*
X167050000Y-81700000D02*
X167050000Y-84160000D01*
D38*
X143100000Y-80600000D02*
X143800000Y-79900000D01*
D39*
X146250000Y-85525000D02*
X146225000Y-85525000D01*
X146225000Y-85525000D02*
X144500000Y-83800000D01*
X144500000Y-83800000D02*
X144500000Y-81600000D01*
X144500000Y-81600000D02*
X143500000Y-80600000D01*
X143500000Y-80600000D02*
X142850000Y-80600000D01*
X142850000Y-79400000D02*
X142750000Y-79300000D01*
X142850000Y-80600000D02*
X142850000Y-79400000D01*
D38*
X133050000Y-83450000D02*
X133500000Y-83900000D01*
X133050000Y-82000760D02*
X133050000Y-83450000D01*
X142850000Y-80600000D02*
X143100000Y-80600000D01*
X132400000Y-91000000D02*
X131900000Y-90500000D01*
X131900000Y-90500000D02*
X131900000Y-85500000D01*
X131900000Y-85500000D02*
X133500000Y-83900000D01*
X132400000Y-93050000D02*
X132400000Y-91000000D01*
D44*
G36*
X136350000Y-88850000D02*
X136108050Y-88850000D01*
X134950044Y-88850000D01*
X134950251Y-88612843D01*
X134729967Y-88079714D01*
X134322431Y-87671467D01*
X133789688Y-87450252D01*
X133212843Y-87449749D01*
X132679714Y-87670033D01*
X132604000Y-87745615D01*
X132604000Y-85791606D01*
X133094109Y-85301496D01*
X133210312Y-85349748D01*
X133787157Y-85350251D01*
X134320286Y-85129967D01*
X134728533Y-84722431D01*
X134949748Y-84189688D01*
X134950251Y-83612843D01*
X134760850Y-83154459D01*
X134946000Y-82969310D01*
X134946000Y-82004760D01*
X134926000Y-82004760D01*
X134926000Y-81996760D01*
X134946000Y-81996760D01*
X134946000Y-81976760D01*
X134954000Y-81976760D01*
X134954000Y-81996760D01*
X134974000Y-81996760D01*
X134974000Y-82004760D01*
X134954000Y-82004760D01*
X134954000Y-82969310D01*
X135143500Y-83158810D01*
X135500826Y-83158810D01*
X135779423Y-83043411D01*
X135992652Y-82830182D01*
X136108050Y-82551585D01*
X136108050Y-82250034D01*
X136108050Y-82194260D01*
X135918552Y-82004762D01*
X136009155Y-82004762D01*
X136202197Y-82197803D01*
X136350000Y-82296561D01*
X136350000Y-88850000D01*
X136350000Y-88850000D01*
G37*
X136350000Y-88850000D02*
X136108050Y-88850000D01*
X134950044Y-88850000D01*
X134950251Y-88612843D01*
X134729967Y-88079714D01*
X134322431Y-87671467D01*
X133789688Y-87450252D01*
X133212843Y-87449749D01*
X132679714Y-87670033D01*
X132604000Y-87745615D01*
X132604000Y-85791606D01*
X133094109Y-85301496D01*
X133210312Y-85349748D01*
X133787157Y-85350251D01*
X134320286Y-85129967D01*
X134728533Y-84722431D01*
X134949748Y-84189688D01*
X134950251Y-83612843D01*
X134760850Y-83154459D01*
X134946000Y-82969310D01*
X134946000Y-82004760D01*
X134926000Y-82004760D01*
X134926000Y-81996760D01*
X134946000Y-81996760D01*
X134946000Y-81976760D01*
X134954000Y-81976760D01*
X134954000Y-81996760D01*
X134974000Y-81996760D01*
X134974000Y-82004760D01*
X134954000Y-82004760D01*
X134954000Y-82969310D01*
X135143500Y-83158810D01*
X135500826Y-83158810D01*
X135779423Y-83043411D01*
X135992652Y-82830182D01*
X136108050Y-82551585D01*
X136108050Y-82250034D01*
X136108050Y-82194260D01*
X135918552Y-82004762D01*
X136009155Y-82004762D01*
X136202197Y-82197803D01*
X136350000Y-82296561D01*
X136350000Y-88850000D01*
G36*
X137633998Y-103750000D02*
X137381862Y-104002135D01*
X137373237Y-104003809D01*
X137223055Y-104103817D01*
X136940213Y-104386659D01*
X136842426Y-104531527D01*
X136823398Y-104623410D01*
X136736841Y-104640205D01*
X136586659Y-104740213D01*
X136303817Y-105023055D01*
X136206030Y-105167923D01*
X136169442Y-105344608D01*
X136199159Y-105497773D01*
X136093969Y-105541238D01*
X135842122Y-105792645D01*
X135705656Y-106121292D01*
X135705345Y-106477146D01*
X135782028Y-106662734D01*
X135720174Y-106650431D01*
X135217481Y-106750422D01*
X134977140Y-106911012D01*
X135137731Y-106670672D01*
X135237722Y-106167979D01*
X135184963Y-105902744D01*
X135961910Y-105125798D01*
X136114518Y-104897404D01*
X136127876Y-104830246D01*
X136354295Y-104603828D01*
X136452082Y-104458960D01*
X136488670Y-104282275D01*
X136454303Y-104105146D01*
X136354295Y-103954964D01*
X135788539Y-103389208D01*
X135643671Y-103291421D01*
X135466986Y-103254833D01*
X135289857Y-103289200D01*
X135139675Y-103389208D01*
X134573919Y-103954964D01*
X134476132Y-104099832D01*
X134439544Y-104276517D01*
X134473911Y-104453646D01*
X134541440Y-104555055D01*
X134189357Y-104907138D01*
X133924123Y-104854380D01*
X133421430Y-104954371D01*
X133404487Y-104965691D01*
X133653510Y-104716669D01*
X133751297Y-104571801D01*
X133787885Y-104395116D01*
X133753518Y-104217987D01*
X133653510Y-104067805D01*
X133540655Y-103954950D01*
X133732848Y-103762757D01*
X133796172Y-103826081D01*
X133941040Y-103923868D01*
X134117725Y-103960456D01*
X134294854Y-103926089D01*
X134445036Y-103826081D01*
X135010792Y-103260325D01*
X135108579Y-103115457D01*
X135145167Y-102938772D01*
X135110800Y-102761643D01*
X135010792Y-102611461D01*
X134445036Y-102045705D01*
X134300168Y-101947918D01*
X134123483Y-101911330D01*
X133946354Y-101945697D01*
X133796172Y-102045705D01*
X133609984Y-102231893D01*
X133564107Y-102231893D01*
X133294698Y-102285482D01*
X133066304Y-102438090D01*
X132545049Y-102959344D01*
X132432195Y-102846490D01*
X132287327Y-102748703D01*
X132110642Y-102712115D01*
X131933513Y-102746482D01*
X131783331Y-102846490D01*
X131500000Y-103129821D01*
X131500000Y-91095606D01*
X131696000Y-91291606D01*
X131696000Y-92333331D01*
X131601662Y-92473090D01*
X131566184Y-92650000D01*
X131566184Y-93450000D01*
X131599475Y-93621583D01*
X131698539Y-93772390D01*
X131738949Y-93799667D01*
X131702610Y-93823539D01*
X131601662Y-93973090D01*
X131566184Y-94150000D01*
X131566184Y-94950000D01*
X131599475Y-95121583D01*
X131698539Y-95272390D01*
X131723726Y-95289392D01*
X131749589Y-95419409D01*
X131902197Y-95647803D01*
X132650040Y-96395646D01*
X132674475Y-96521583D01*
X132725992Y-96600008D01*
X132676662Y-96673090D01*
X132641184Y-96850000D01*
X132641184Y-97250000D01*
X132674475Y-97421583D01*
X132696000Y-97454350D01*
X132696000Y-97638861D01*
X132642122Y-97692645D01*
X132505656Y-98021292D01*
X132505345Y-98377146D01*
X132641238Y-98706031D01*
X132892645Y-98957878D01*
X133221292Y-99094344D01*
X133577146Y-99094655D01*
X133906031Y-98958762D01*
X134157878Y-98707355D01*
X134294344Y-98378708D01*
X134294655Y-98022854D01*
X134158762Y-97693969D01*
X134104000Y-97639111D01*
X134104000Y-97455558D01*
X134123338Y-97426910D01*
X134158816Y-97250000D01*
X134158816Y-96850000D01*
X134125525Y-96678417D01*
X134074007Y-96599991D01*
X134123338Y-96526910D01*
X134158816Y-96350000D01*
X134158816Y-95950000D01*
X134125525Y-95778417D01*
X134026461Y-95627610D01*
X133876910Y-95526662D01*
X133746018Y-95500412D01*
X133227433Y-94981827D01*
X133233816Y-94950000D01*
X133233816Y-94150000D01*
X133200525Y-93978417D01*
X133101461Y-93827610D01*
X133061050Y-93800332D01*
X133097390Y-93776461D01*
X133198338Y-93626910D01*
X133233816Y-93450000D01*
X133233816Y-92650000D01*
X133214869Y-92552348D01*
X133349225Y-92608000D01*
X133606500Y-92608000D01*
X133796000Y-92418500D01*
X133796000Y-91654000D01*
X133776000Y-91654000D01*
X133776000Y-91646000D01*
X133796000Y-91646000D01*
X133796000Y-91626000D01*
X133804000Y-91626000D01*
X133804000Y-91646000D01*
X133824000Y-91646000D01*
X133824000Y-91654000D01*
X133804000Y-91654000D01*
X133804000Y-92418500D01*
X133993500Y-92608000D01*
X134250000Y-92608000D01*
X134250000Y-97050000D01*
X136005456Y-97050000D01*
X136005345Y-97177146D01*
X136141238Y-97506031D01*
X136392645Y-97757878D01*
X136721292Y-97894344D01*
X137077146Y-97894655D01*
X137150000Y-97864552D01*
X137150000Y-97905543D01*
X136922854Y-97905345D01*
X136593969Y-98041238D01*
X136342122Y-98292645D01*
X136205656Y-98621292D01*
X136205345Y-98977146D01*
X136341238Y-99306031D01*
X136592645Y-99557878D01*
X136921292Y-99694344D01*
X137150000Y-99694543D01*
X137150000Y-100450000D01*
X137200000Y-100450000D01*
X137200000Y-102040291D01*
X137196044Y-102019902D01*
X137096036Y-101869720D01*
X136530280Y-101303964D01*
X136385412Y-101206177D01*
X136208727Y-101169589D01*
X136031598Y-101203956D01*
X135881416Y-101303964D01*
X135315660Y-101869720D01*
X135217873Y-102014588D01*
X135181285Y-102191273D01*
X135215652Y-102368402D01*
X135315660Y-102518584D01*
X135881416Y-103084340D01*
X136026284Y-103182127D01*
X136202969Y-103218715D01*
X136380098Y-103184348D01*
X136530280Y-103084340D01*
X137096036Y-102518584D01*
X137193823Y-102373716D01*
X137200000Y-102343887D01*
X137200000Y-103750000D01*
X137633998Y-103750000D01*
X137633998Y-103750000D01*
G37*
X137633998Y-103750000D02*
X137381862Y-104002135D01*
X137373237Y-104003809D01*
X137223055Y-104103817D01*
X136940213Y-104386659D01*
X136842426Y-104531527D01*
X136823398Y-104623410D01*
X136736841Y-104640205D01*
X136586659Y-104740213D01*
X136303817Y-105023055D01*
X136206030Y-105167923D01*
X136169442Y-105344608D01*
X136199159Y-105497773D01*
X136093969Y-105541238D01*
X135842122Y-105792645D01*
X135705656Y-106121292D01*
X135705345Y-106477146D01*
X135782028Y-106662734D01*
X135720174Y-106650431D01*
X135217481Y-106750422D01*
X134977140Y-106911012D01*
X135137731Y-106670672D01*
X135237722Y-106167979D01*
X135184963Y-105902744D01*
X135961910Y-105125798D01*
X136114518Y-104897404D01*
X136127876Y-104830246D01*
X136354295Y-104603828D01*
X136452082Y-104458960D01*
X136488670Y-104282275D01*
X136454303Y-104105146D01*
X136354295Y-103954964D01*
X135788539Y-103389208D01*
X135643671Y-103291421D01*
X135466986Y-103254833D01*
X135289857Y-103289200D01*
X135139675Y-103389208D01*
X134573919Y-103954964D01*
X134476132Y-104099832D01*
X134439544Y-104276517D01*
X134473911Y-104453646D01*
X134541440Y-104555055D01*
X134189357Y-104907138D01*
X133924123Y-104854380D01*
X133421430Y-104954371D01*
X133404487Y-104965691D01*
X133653510Y-104716669D01*
X133751297Y-104571801D01*
X133787885Y-104395116D01*
X133753518Y-104217987D01*
X133653510Y-104067805D01*
X133540655Y-103954950D01*
X133732848Y-103762757D01*
X133796172Y-103826081D01*
X133941040Y-103923868D01*
X134117725Y-103960456D01*
X134294854Y-103926089D01*
X134445036Y-103826081D01*
X135010792Y-103260325D01*
X135108579Y-103115457D01*
X135145167Y-102938772D01*
X135110800Y-102761643D01*
X135010792Y-102611461D01*
X134445036Y-102045705D01*
X134300168Y-101947918D01*
X134123483Y-101911330D01*
X133946354Y-101945697D01*
X133796172Y-102045705D01*
X133609984Y-102231893D01*
X133564107Y-102231893D01*
X133294698Y-102285482D01*
X133066304Y-102438090D01*
X132545049Y-102959344D01*
X132432195Y-102846490D01*
X132287327Y-102748703D01*
X132110642Y-102712115D01*
X131933513Y-102746482D01*
X131783331Y-102846490D01*
X131500000Y-103129821D01*
X131500000Y-91095606D01*
X131696000Y-91291606D01*
X131696000Y-92333331D01*
X131601662Y-92473090D01*
X131566184Y-92650000D01*
X131566184Y-93450000D01*
X131599475Y-93621583D01*
X131698539Y-93772390D01*
X131738949Y-93799667D01*
X131702610Y-93823539D01*
X131601662Y-93973090D01*
X131566184Y-94150000D01*
X131566184Y-94950000D01*
X131599475Y-95121583D01*
X131698539Y-95272390D01*
X131723726Y-95289392D01*
X131749589Y-95419409D01*
X131902197Y-95647803D01*
X132650040Y-96395646D01*
X132674475Y-96521583D01*
X132725992Y-96600008D01*
X132676662Y-96673090D01*
X132641184Y-96850000D01*
X132641184Y-97250000D01*
X132674475Y-97421583D01*
X132696000Y-97454350D01*
X132696000Y-97638861D01*
X132642122Y-97692645D01*
X132505656Y-98021292D01*
X132505345Y-98377146D01*
X132641238Y-98706031D01*
X132892645Y-98957878D01*
X133221292Y-99094344D01*
X133577146Y-99094655D01*
X133906031Y-98958762D01*
X134157878Y-98707355D01*
X134294344Y-98378708D01*
X134294655Y-98022854D01*
X134158762Y-97693969D01*
X134104000Y-97639111D01*
X134104000Y-97455558D01*
X134123338Y-97426910D01*
X134158816Y-97250000D01*
X134158816Y-96850000D01*
X134125525Y-96678417D01*
X134074007Y-96599991D01*
X134123338Y-96526910D01*
X134158816Y-96350000D01*
X134158816Y-95950000D01*
X134125525Y-95778417D01*
X134026461Y-95627610D01*
X133876910Y-95526662D01*
X133746018Y-95500412D01*
X133227433Y-94981827D01*
X133233816Y-94950000D01*
X133233816Y-94150000D01*
X133200525Y-93978417D01*
X133101461Y-93827610D01*
X133061050Y-93800332D01*
X133097390Y-93776461D01*
X133198338Y-93626910D01*
X133233816Y-93450000D01*
X133233816Y-92650000D01*
X133214869Y-92552348D01*
X133349225Y-92608000D01*
X133606500Y-92608000D01*
X133796000Y-92418500D01*
X133796000Y-91654000D01*
X133776000Y-91654000D01*
X133776000Y-91646000D01*
X133796000Y-91646000D01*
X133796000Y-91626000D01*
X133804000Y-91626000D01*
X133804000Y-91646000D01*
X133824000Y-91646000D01*
X133824000Y-91654000D01*
X133804000Y-91654000D01*
X133804000Y-92418500D01*
X133993500Y-92608000D01*
X134250000Y-92608000D01*
X134250000Y-97050000D01*
X136005456Y-97050000D01*
X136005345Y-97177146D01*
X136141238Y-97506031D01*
X136392645Y-97757878D01*
X136721292Y-97894344D01*
X137077146Y-97894655D01*
X137150000Y-97864552D01*
X137150000Y-97905543D01*
X136922854Y-97905345D01*
X136593969Y-98041238D01*
X136342122Y-98292645D01*
X136205656Y-98621292D01*
X136205345Y-98977146D01*
X136341238Y-99306031D01*
X136592645Y-99557878D01*
X136921292Y-99694344D01*
X137150000Y-99694543D01*
X137150000Y-100450000D01*
X137200000Y-100450000D01*
X137200000Y-102040291D01*
X137196044Y-102019902D01*
X137096036Y-101869720D01*
X136530280Y-101303964D01*
X136385412Y-101206177D01*
X136208727Y-101169589D01*
X136031598Y-101203956D01*
X135881416Y-101303964D01*
X135315660Y-101869720D01*
X135217873Y-102014588D01*
X135181285Y-102191273D01*
X135215652Y-102368402D01*
X135315660Y-102518584D01*
X135881416Y-103084340D01*
X136026284Y-103182127D01*
X136202969Y-103218715D01*
X136380098Y-103184348D01*
X136530280Y-103084340D01*
X137096036Y-102518584D01*
X137193823Y-102373716D01*
X137200000Y-102343887D01*
X137200000Y-103750000D01*
X137633998Y-103750000D01*
G36*
X141738949Y-106699667D02*
X141702610Y-106723539D01*
X141601662Y-106873090D01*
X141589319Y-106934633D01*
X141278708Y-106805656D01*
X140922854Y-106805345D01*
X140593969Y-106941238D01*
X140342122Y-107192645D01*
X140205656Y-107521292D01*
X140205345Y-107877146D01*
X140341238Y-108206031D01*
X140592645Y-108457878D01*
X140694086Y-108500000D01*
X139729751Y-108500000D01*
X139729751Y-106003288D01*
X139729751Y-105701736D01*
X139614352Y-105423140D01*
X139432431Y-105241219D01*
X139164438Y-105241219D01*
X138623855Y-105781802D01*
X139235149Y-106393096D01*
X139503142Y-106393096D01*
X139614353Y-106281885D01*
X139729751Y-106003288D01*
X139729751Y-108500000D01*
X136911547Y-108500000D01*
X136933782Y-108466723D01*
X137033773Y-107964030D01*
X136933782Y-107461337D01*
X136755577Y-107194636D01*
X136777146Y-107194655D01*
X136952504Y-107122198D01*
X137766621Y-107122198D01*
X137872949Y-107193970D01*
X138049634Y-107230558D01*
X138226763Y-107196191D01*
X138376945Y-107096183D01*
X138579773Y-106893355D01*
X138839684Y-106893355D01*
X139118281Y-106777957D01*
X139229492Y-106666746D01*
X139229492Y-106398753D01*
X138618198Y-105787459D01*
X138604055Y-105801600D01*
X138598398Y-105795943D01*
X138612541Y-105781802D01*
X138598399Y-105767660D01*
X138604056Y-105762003D01*
X138618198Y-105776145D01*
X139158781Y-105235562D01*
X139158781Y-104967569D01*
X138976860Y-104785648D01*
X138698264Y-104670249D01*
X138396712Y-104670249D01*
X138392120Y-104672150D01*
X138372825Y-104643175D01*
X138821569Y-104194431D01*
X139077146Y-104194655D01*
X139406031Y-104058762D01*
X139657878Y-103807355D01*
X139681693Y-103750000D01*
X141001211Y-103750000D01*
X140991184Y-103800000D01*
X140991184Y-104400000D01*
X141024475Y-104571583D01*
X141098400Y-104684120D01*
X141098400Y-105050000D01*
X141140388Y-105261088D01*
X141259960Y-105440040D01*
X141566184Y-105746264D01*
X141566184Y-106350000D01*
X141599475Y-106521583D01*
X141698539Y-106672390D01*
X141738949Y-106699667D01*
X141738949Y-106699667D01*
G37*
X141738949Y-106699667D02*
X141702610Y-106723539D01*
X141601662Y-106873090D01*
X141589319Y-106934633D01*
X141278708Y-106805656D01*
X140922854Y-106805345D01*
X140593969Y-106941238D01*
X140342122Y-107192645D01*
X140205656Y-107521292D01*
X140205345Y-107877146D01*
X140341238Y-108206031D01*
X140592645Y-108457878D01*
X140694086Y-108500000D01*
X139729751Y-108500000D01*
X139729751Y-106003288D01*
X139729751Y-105701736D01*
X139614352Y-105423140D01*
X139432431Y-105241219D01*
X139164438Y-105241219D01*
X138623855Y-105781802D01*
X139235149Y-106393096D01*
X139503142Y-106393096D01*
X139614353Y-106281885D01*
X139729751Y-106003288D01*
X139729751Y-108500000D01*
X136911547Y-108500000D01*
X136933782Y-108466723D01*
X137033773Y-107964030D01*
X136933782Y-107461337D01*
X136755577Y-107194636D01*
X136777146Y-107194655D01*
X136952504Y-107122198D01*
X137766621Y-107122198D01*
X137872949Y-107193970D01*
X138049634Y-107230558D01*
X138226763Y-107196191D01*
X138376945Y-107096183D01*
X138579773Y-106893355D01*
X138839684Y-106893355D01*
X139118281Y-106777957D01*
X139229492Y-106666746D01*
X139229492Y-106398753D01*
X138618198Y-105787459D01*
X138604055Y-105801600D01*
X138598398Y-105795943D01*
X138612541Y-105781802D01*
X138598399Y-105767660D01*
X138604056Y-105762003D01*
X138618198Y-105776145D01*
X139158781Y-105235562D01*
X139158781Y-104967569D01*
X138976860Y-104785648D01*
X138698264Y-104670249D01*
X138396712Y-104670249D01*
X138392120Y-104672150D01*
X138372825Y-104643175D01*
X138821569Y-104194431D01*
X139077146Y-104194655D01*
X139406031Y-104058762D01*
X139657878Y-103807355D01*
X139681693Y-103750000D01*
X141001211Y-103750000D01*
X140991184Y-103800000D01*
X140991184Y-104400000D01*
X141024475Y-104571583D01*
X141098400Y-104684120D01*
X141098400Y-105050000D01*
X141140388Y-105261088D01*
X141259960Y-105440040D01*
X141566184Y-105746264D01*
X141566184Y-106350000D01*
X141599475Y-106521583D01*
X141698539Y-106672390D01*
X141738949Y-106699667D01*
G36*
X141774000Y-80604000D02*
X141754000Y-80604000D01*
X141754000Y-80624000D01*
X141746000Y-80624000D01*
X141746000Y-80604000D01*
X140881500Y-80604000D01*
X140692000Y-80793500D01*
X140692000Y-81000775D01*
X140795231Y-81250000D01*
X138854000Y-81250000D01*
X138854000Y-80950000D01*
X138830889Y-80833816D01*
X139750000Y-80833816D01*
X139921583Y-80800525D01*
X140068524Y-80704000D01*
X140200000Y-80704000D01*
X140469409Y-80650411D01*
X140697803Y-80497803D01*
X140740553Y-80455053D01*
X140881500Y-80596000D01*
X141746000Y-80596000D01*
X141746000Y-80576000D01*
X141754000Y-80576000D01*
X141754000Y-80596000D01*
X141774000Y-80596000D01*
X141774000Y-80604000D01*
X141774000Y-80604000D01*
G37*
X141774000Y-80604000D02*
X141754000Y-80604000D01*
X141754000Y-80624000D01*
X141746000Y-80624000D01*
X141746000Y-80604000D01*
X140881500Y-80604000D01*
X140692000Y-80793500D01*
X140692000Y-81000775D01*
X140795231Y-81250000D01*
X138854000Y-81250000D01*
X138854000Y-80950000D01*
X138830889Y-80833816D01*
X139750000Y-80833816D01*
X139921583Y-80800525D01*
X140068524Y-80704000D01*
X140200000Y-80704000D01*
X140469409Y-80650411D01*
X140697803Y-80497803D01*
X140740553Y-80455053D01*
X140881500Y-80596000D01*
X141746000Y-80596000D01*
X141746000Y-80576000D01*
X141754000Y-80576000D01*
X141754000Y-80596000D01*
X141774000Y-80596000D01*
X141774000Y-80604000D01*
G36*
X145956432Y-76250000D02*
X145955932Y-76992000D01*
X145818100Y-76992000D01*
X145628600Y-77181500D01*
X145628600Y-77996000D01*
X145648600Y-77996000D01*
X145648600Y-78004000D01*
X145628600Y-78004000D01*
X145628600Y-78818500D01*
X145818100Y-79008000D01*
X145845500Y-79008000D01*
X145710000Y-79143500D01*
X145710000Y-79400776D01*
X145825399Y-79679373D01*
X145954035Y-79808009D01*
X145953847Y-80086347D01*
X145884500Y-80017000D01*
X145727224Y-80017000D01*
X145620600Y-80061165D01*
X145620600Y-78818500D01*
X145620600Y-78004000D01*
X145620600Y-77996000D01*
X145620600Y-77181500D01*
X145431100Y-76992000D01*
X145173824Y-76992000D01*
X144895227Y-77107399D01*
X144681998Y-77320628D01*
X144566600Y-77599225D01*
X144566600Y-77806500D01*
X144756100Y-77996000D01*
X145620600Y-77996000D01*
X145620600Y-78004000D01*
X144756100Y-78004000D01*
X144566600Y-78193500D01*
X144566600Y-78400775D01*
X144681998Y-78679372D01*
X144895227Y-78892601D01*
X145173824Y-79008000D01*
X145431100Y-79008000D01*
X145620600Y-78818500D01*
X145620600Y-80061165D01*
X145448627Y-80132399D01*
X145235398Y-80345628D01*
X145120000Y-80624225D01*
X145120000Y-80925776D01*
X145120000Y-81056500D01*
X145309500Y-81246000D01*
X145953066Y-81246000D01*
X145953061Y-81254000D01*
X145309500Y-81254000D01*
X145120000Y-81443500D01*
X145120000Y-81574224D01*
X145120000Y-81875775D01*
X145235398Y-82154372D01*
X145448627Y-82367601D01*
X145727224Y-82483000D01*
X145884500Y-82483000D01*
X145952279Y-82415220D01*
X145950918Y-84434917D01*
X145077000Y-83560998D01*
X145077000Y-81600005D01*
X145077000Y-81600000D01*
X145077001Y-81600000D01*
X145033078Y-81379192D01*
X144908001Y-81192000D01*
X144908001Y-81191999D01*
X144907997Y-81191996D01*
X144340427Y-80624425D01*
X144557878Y-80407355D01*
X144694344Y-80078708D01*
X144694655Y-79722854D01*
X144558762Y-79393969D01*
X144307355Y-79142122D01*
X143978708Y-79005656D01*
X143622854Y-79005345D01*
X143408816Y-79093784D01*
X143408816Y-79000000D01*
X143375525Y-78828417D01*
X143276461Y-78677610D01*
X143126910Y-78576662D01*
X142950000Y-78541184D01*
X142550000Y-78541184D01*
X142378417Y-78574475D01*
X142299991Y-78625992D01*
X142226910Y-78576662D01*
X142050000Y-78541184D01*
X141806069Y-78541184D01*
X141607355Y-78342122D01*
X141278708Y-78205656D01*
X140922854Y-78205345D01*
X140593969Y-78341238D01*
X140342122Y-78592645D01*
X140205656Y-78921292D01*
X140205588Y-78998805D01*
X139972176Y-79232217D01*
X139926910Y-79201662D01*
X139750000Y-79166184D01*
X139330411Y-79166184D01*
X139330411Y-76208727D01*
X139296044Y-76031598D01*
X139196036Y-75881416D01*
X138630280Y-75315660D01*
X138485412Y-75217873D01*
X138308727Y-75181285D01*
X138131598Y-75215652D01*
X137981416Y-75315660D01*
X137415660Y-75881416D01*
X137317873Y-76026284D01*
X137281285Y-76202969D01*
X137315652Y-76380098D01*
X137415660Y-76530280D01*
X137981416Y-77096036D01*
X138126284Y-77193823D01*
X138302969Y-77230411D01*
X138480098Y-77196044D01*
X138630280Y-77096036D01*
X139196036Y-76530280D01*
X139293823Y-76385412D01*
X139330411Y-76208727D01*
X139330411Y-79166184D01*
X138550000Y-79166184D01*
X138378417Y-79199475D01*
X138227610Y-79298539D01*
X138200332Y-79338949D01*
X138176461Y-79302610D01*
X138026910Y-79201662D01*
X137850000Y-79166184D01*
X136729751Y-79166184D01*
X136729751Y-77298264D01*
X136729751Y-76996712D01*
X136614353Y-76718115D01*
X136503142Y-76606904D01*
X136235149Y-76606904D01*
X135623855Y-77218198D01*
X136164438Y-77758781D01*
X136432431Y-77758781D01*
X136614352Y-77576860D01*
X136729751Y-77298264D01*
X136729751Y-79166184D01*
X136650000Y-79166184D01*
X136478417Y-79199475D01*
X136327610Y-79298539D01*
X136226662Y-79448090D01*
X136191184Y-79625000D01*
X136191184Y-80195578D01*
X135499583Y-79503977D01*
X135271189Y-79351369D01*
X135001780Y-79297780D01*
X134738624Y-79297780D01*
X134726511Y-79279340D01*
X134672869Y-79243131D01*
X135026195Y-78889805D01*
X135026199Y-78889803D01*
X135026199Y-78889802D01*
X135151276Y-78702610D01*
X135172577Y-78595524D01*
X135296183Y-78471919D01*
X135393144Y-78328273D01*
X135396712Y-78329751D01*
X135698264Y-78329751D01*
X135976860Y-78214352D01*
X136158781Y-78032431D01*
X136158781Y-77764438D01*
X135618198Y-77223855D01*
X135604055Y-77237996D01*
X135598398Y-77232339D01*
X135612541Y-77218198D01*
X135598399Y-77204055D01*
X135604056Y-77198399D01*
X135618198Y-77212541D01*
X136229492Y-76601247D01*
X136229492Y-76486386D01*
X136394854Y-76454303D01*
X136545036Y-76354295D01*
X137110792Y-75788539D01*
X137208579Y-75643671D01*
X137245167Y-75466986D01*
X137210800Y-75289857D01*
X137110792Y-75139675D01*
X136545036Y-74573919D01*
X136400168Y-74476132D01*
X136223483Y-74439544D01*
X136196820Y-74444717D01*
X135523039Y-73770936D01*
X135604884Y-73787885D01*
X135782013Y-73753518D01*
X135932195Y-73653510D01*
X136045049Y-73540655D01*
X136553710Y-74049316D01*
X136539544Y-74117725D01*
X136573911Y-74294854D01*
X136673919Y-74445036D01*
X137239675Y-75010792D01*
X137384543Y-75108579D01*
X137561228Y-75145167D01*
X137738357Y-75110800D01*
X137888539Y-75010792D01*
X138454295Y-74445036D01*
X138552082Y-74300168D01*
X138588670Y-74123483D01*
X138554303Y-73946354D01*
X138454295Y-73796172D01*
X137888539Y-73230416D01*
X137743671Y-73132629D01*
X137598087Y-73102481D01*
X137040655Y-72545049D01*
X137153510Y-72432195D01*
X137251297Y-72287327D01*
X137287885Y-72110642D01*
X137253518Y-71933513D01*
X137153510Y-71783331D01*
X136870179Y-71500000D01*
X140742000Y-71500000D01*
X140742000Y-71506500D01*
X140931500Y-71696000D01*
X141750000Y-71696000D01*
X141750000Y-71704000D01*
X140931500Y-71704000D01*
X140742000Y-71893500D01*
X140742000Y-72149224D01*
X140742000Y-72450775D01*
X140857398Y-72729372D01*
X141070627Y-72942601D01*
X141349224Y-73058000D01*
X141750000Y-73058000D01*
X141750000Y-76250000D01*
X145956432Y-76250000D01*
X145956432Y-76250000D01*
G37*
X145956432Y-76250000D02*
X145955932Y-76992000D01*
X145818100Y-76992000D01*
X145628600Y-77181500D01*
X145628600Y-77996000D01*
X145648600Y-77996000D01*
X145648600Y-78004000D01*
X145628600Y-78004000D01*
X145628600Y-78818500D01*
X145818100Y-79008000D01*
X145845500Y-79008000D01*
X145710000Y-79143500D01*
X145710000Y-79400776D01*
X145825399Y-79679373D01*
X145954035Y-79808009D01*
X145953847Y-80086347D01*
X145884500Y-80017000D01*
X145727224Y-80017000D01*
X145620600Y-80061165D01*
X145620600Y-78818500D01*
X145620600Y-78004000D01*
X145620600Y-77996000D01*
X145620600Y-77181500D01*
X145431100Y-76992000D01*
X145173824Y-76992000D01*
X144895227Y-77107399D01*
X144681998Y-77320628D01*
X144566600Y-77599225D01*
X144566600Y-77806500D01*
X144756100Y-77996000D01*
X145620600Y-77996000D01*
X145620600Y-78004000D01*
X144756100Y-78004000D01*
X144566600Y-78193500D01*
X144566600Y-78400775D01*
X144681998Y-78679372D01*
X144895227Y-78892601D01*
X145173824Y-79008000D01*
X145431100Y-79008000D01*
X145620600Y-78818500D01*
X145620600Y-80061165D01*
X145448627Y-80132399D01*
X145235398Y-80345628D01*
X145120000Y-80624225D01*
X145120000Y-80925776D01*
X145120000Y-81056500D01*
X145309500Y-81246000D01*
X145953066Y-81246000D01*
X145953061Y-81254000D01*
X145309500Y-81254000D01*
X145120000Y-81443500D01*
X145120000Y-81574224D01*
X145120000Y-81875775D01*
X145235398Y-82154372D01*
X145448627Y-82367601D01*
X145727224Y-82483000D01*
X145884500Y-82483000D01*
X145952279Y-82415220D01*
X145950918Y-84434917D01*
X145077000Y-83560998D01*
X145077000Y-81600005D01*
X145077000Y-81600000D01*
X145077001Y-81600000D01*
X145033078Y-81379192D01*
X144908001Y-81192000D01*
X144908001Y-81191999D01*
X144907997Y-81191996D01*
X144340427Y-80624425D01*
X144557878Y-80407355D01*
X144694344Y-80078708D01*
X144694655Y-79722854D01*
X144558762Y-79393969D01*
X144307355Y-79142122D01*
X143978708Y-79005656D01*
X143622854Y-79005345D01*
X143408816Y-79093784D01*
X143408816Y-79000000D01*
X143375525Y-78828417D01*
X143276461Y-78677610D01*
X143126910Y-78576662D01*
X142950000Y-78541184D01*
X142550000Y-78541184D01*
X142378417Y-78574475D01*
X142299991Y-78625992D01*
X142226910Y-78576662D01*
X142050000Y-78541184D01*
X141806069Y-78541184D01*
X141607355Y-78342122D01*
X141278708Y-78205656D01*
X140922854Y-78205345D01*
X140593969Y-78341238D01*
X140342122Y-78592645D01*
X140205656Y-78921292D01*
X140205588Y-78998805D01*
X139972176Y-79232217D01*
X139926910Y-79201662D01*
X139750000Y-79166184D01*
X139330411Y-79166184D01*
X139330411Y-76208727D01*
X139296044Y-76031598D01*
X139196036Y-75881416D01*
X138630280Y-75315660D01*
X138485412Y-75217873D01*
X138308727Y-75181285D01*
X138131598Y-75215652D01*
X137981416Y-75315660D01*
X137415660Y-75881416D01*
X137317873Y-76026284D01*
X137281285Y-76202969D01*
X137315652Y-76380098D01*
X137415660Y-76530280D01*
X137981416Y-77096036D01*
X138126284Y-77193823D01*
X138302969Y-77230411D01*
X138480098Y-77196044D01*
X138630280Y-77096036D01*
X139196036Y-76530280D01*
X139293823Y-76385412D01*
X139330411Y-76208727D01*
X139330411Y-79166184D01*
X138550000Y-79166184D01*
X138378417Y-79199475D01*
X138227610Y-79298539D01*
X138200332Y-79338949D01*
X138176461Y-79302610D01*
X138026910Y-79201662D01*
X137850000Y-79166184D01*
X136729751Y-79166184D01*
X136729751Y-77298264D01*
X136729751Y-76996712D01*
X136614353Y-76718115D01*
X136503142Y-76606904D01*
X136235149Y-76606904D01*
X135623855Y-77218198D01*
X136164438Y-77758781D01*
X136432431Y-77758781D01*
X136614352Y-77576860D01*
X136729751Y-77298264D01*
X136729751Y-79166184D01*
X136650000Y-79166184D01*
X136478417Y-79199475D01*
X136327610Y-79298539D01*
X136226662Y-79448090D01*
X136191184Y-79625000D01*
X136191184Y-80195578D01*
X135499583Y-79503977D01*
X135271189Y-79351369D01*
X135001780Y-79297780D01*
X134738624Y-79297780D01*
X134726511Y-79279340D01*
X134672869Y-79243131D01*
X135026195Y-78889805D01*
X135026199Y-78889803D01*
X135026199Y-78889802D01*
X135151276Y-78702610D01*
X135172577Y-78595524D01*
X135296183Y-78471919D01*
X135393144Y-78328273D01*
X135396712Y-78329751D01*
X135698264Y-78329751D01*
X135976860Y-78214352D01*
X136158781Y-78032431D01*
X136158781Y-77764438D01*
X135618198Y-77223855D01*
X135604055Y-77237996D01*
X135598398Y-77232339D01*
X135612541Y-77218198D01*
X135598399Y-77204055D01*
X135604056Y-77198399D01*
X135618198Y-77212541D01*
X136229492Y-76601247D01*
X136229492Y-76486386D01*
X136394854Y-76454303D01*
X136545036Y-76354295D01*
X137110792Y-75788539D01*
X137208579Y-75643671D01*
X137245167Y-75466986D01*
X137210800Y-75289857D01*
X137110792Y-75139675D01*
X136545036Y-74573919D01*
X136400168Y-74476132D01*
X136223483Y-74439544D01*
X136196820Y-74444717D01*
X135523039Y-73770936D01*
X135604884Y-73787885D01*
X135782013Y-73753518D01*
X135932195Y-73653510D01*
X136045049Y-73540655D01*
X136553710Y-74049316D01*
X136539544Y-74117725D01*
X136573911Y-74294854D01*
X136673919Y-74445036D01*
X137239675Y-75010792D01*
X137384543Y-75108579D01*
X137561228Y-75145167D01*
X137738357Y-75110800D01*
X137888539Y-75010792D01*
X138454295Y-74445036D01*
X138552082Y-74300168D01*
X138588670Y-74123483D01*
X138554303Y-73946354D01*
X138454295Y-73796172D01*
X137888539Y-73230416D01*
X137743671Y-73132629D01*
X137598087Y-73102481D01*
X137040655Y-72545049D01*
X137153510Y-72432195D01*
X137251297Y-72287327D01*
X137287885Y-72110642D01*
X137253518Y-71933513D01*
X137153510Y-71783331D01*
X136870179Y-71500000D01*
X140742000Y-71500000D01*
X140742000Y-71506500D01*
X140931500Y-71696000D01*
X141750000Y-71696000D01*
X141750000Y-71704000D01*
X140931500Y-71704000D01*
X140742000Y-71893500D01*
X140742000Y-72149224D01*
X140742000Y-72450775D01*
X140857398Y-72729372D01*
X141070627Y-72942601D01*
X141349224Y-73058000D01*
X141750000Y-73058000D01*
X141750000Y-76250000D01*
X145956432Y-76250000D01*
G36*
X150824760Y-105054000D02*
X150804760Y-105054000D01*
X150804760Y-105074000D01*
X150796760Y-105074000D01*
X150796760Y-105054000D01*
X149832210Y-105054000D01*
X149642710Y-105243500D01*
X149642710Y-105507507D01*
X149627355Y-105428367D01*
X149528291Y-105277560D01*
X149378740Y-105176612D01*
X149201830Y-105141134D01*
X148401730Y-105141134D01*
X148230147Y-105174425D01*
X148079340Y-105273489D01*
X147978392Y-105423040D01*
X147942914Y-105599950D01*
X147942914Y-105619844D01*
X147889140Y-105609060D01*
X147640040Y-105359960D01*
X147461088Y-105240388D01*
X147250000Y-105198400D01*
X146833816Y-105198400D01*
X146833816Y-105150000D01*
X146800525Y-104978417D01*
X146780340Y-104947689D01*
X146800000Y-104951600D01*
X149737810Y-104951600D01*
X149832210Y-105046000D01*
X150796760Y-105046000D01*
X150796760Y-105026000D01*
X150804760Y-105026000D01*
X150804760Y-105046000D01*
X150824760Y-105046000D01*
X150824760Y-105054000D01*
X150824760Y-105054000D01*
G37*
X150824760Y-105054000D02*
X150804760Y-105054000D01*
X150804760Y-105074000D01*
X150796760Y-105074000D01*
X150796760Y-105054000D01*
X149832210Y-105054000D01*
X149642710Y-105243500D01*
X149642710Y-105507507D01*
X149627355Y-105428367D01*
X149528291Y-105277560D01*
X149378740Y-105176612D01*
X149201830Y-105141134D01*
X148401730Y-105141134D01*
X148230147Y-105174425D01*
X148079340Y-105273489D01*
X147978392Y-105423040D01*
X147942914Y-105599950D01*
X147942914Y-105619844D01*
X147889140Y-105609060D01*
X147640040Y-105359960D01*
X147461088Y-105240388D01*
X147250000Y-105198400D01*
X146833816Y-105198400D01*
X146833816Y-105150000D01*
X146800525Y-104978417D01*
X146780340Y-104947689D01*
X146800000Y-104951600D01*
X149737810Y-104951600D01*
X149832210Y-105046000D01*
X150796760Y-105046000D01*
X150796760Y-105026000D01*
X150804760Y-105026000D01*
X150804760Y-105046000D01*
X150824760Y-105046000D01*
X150824760Y-105054000D01*
G36*
X151974000Y-105004000D02*
X151954000Y-105004000D01*
X151954000Y-105024000D01*
X151946000Y-105024000D01*
X151946000Y-105004000D01*
X151926000Y-105004000D01*
X151926000Y-104996000D01*
X151946000Y-104996000D01*
X151946000Y-104976000D01*
X151954000Y-104976000D01*
X151954000Y-104996000D01*
X151974000Y-104996000D01*
X151974000Y-105004000D01*
X151974000Y-105004000D01*
G37*
X151974000Y-105004000D02*
X151954000Y-105004000D01*
X151954000Y-105024000D01*
X151946000Y-105024000D01*
X151946000Y-105004000D01*
X151926000Y-105004000D01*
X151926000Y-104996000D01*
X151946000Y-104996000D01*
X151946000Y-104976000D01*
X151954000Y-104976000D01*
X151954000Y-104996000D01*
X151974000Y-104996000D01*
X151974000Y-105004000D01*
G36*
X162273000Y-101310998D02*
X162260998Y-101323000D01*
X161700000Y-101323000D01*
X161450000Y-101323000D01*
X161450000Y-100866001D01*
X161657997Y-100658003D01*
X161658001Y-100658001D01*
X161658001Y-100658000D01*
X161783078Y-100470808D01*
X161827000Y-100250000D01*
X161827001Y-100250000D01*
X161827000Y-100249994D01*
X161827000Y-100100005D01*
X161827000Y-100100000D01*
X161827001Y-100100000D01*
X161825263Y-100091264D01*
X162273000Y-100539001D01*
X162273000Y-101310998D01*
X162273000Y-101310998D01*
G37*
X162273000Y-101310998D02*
X162260998Y-101323000D01*
X161700000Y-101323000D01*
X161450000Y-101323000D01*
X161450000Y-100866001D01*
X161657997Y-100658003D01*
X161658001Y-100658001D01*
X161658001Y-100658000D01*
X161783078Y-100470808D01*
X161827000Y-100250000D01*
X161827001Y-100250000D01*
X161827000Y-100249994D01*
X161827000Y-100100005D01*
X161827000Y-100100000D01*
X161827001Y-100100000D01*
X161825263Y-100091264D01*
X162273000Y-100539001D01*
X162273000Y-101310998D01*
G36*
X166023000Y-99960998D02*
X165699249Y-100284749D01*
X165518500Y-100104000D01*
X164704000Y-100104000D01*
X164704000Y-100124000D01*
X164696000Y-100124000D01*
X164696000Y-100104000D01*
X163881500Y-100104000D01*
X163692000Y-100293500D01*
X163692000Y-100550776D01*
X163807399Y-100829373D01*
X164020628Y-101042602D01*
X164299225Y-101158000D01*
X164506500Y-101158000D01*
X164695998Y-100968502D01*
X164695998Y-101139663D01*
X164606030Y-101272949D01*
X164579356Y-101401757D01*
X164503288Y-101370249D01*
X164201736Y-101370249D01*
X163923140Y-101485648D01*
X163709911Y-101698876D01*
X163741219Y-101667569D01*
X163741219Y-101935562D01*
X164281802Y-102476145D01*
X164295943Y-102462002D01*
X164301600Y-102467659D01*
X164287459Y-102481802D01*
X164301600Y-102495944D01*
X164295944Y-102501601D01*
X164281802Y-102487459D01*
X164276145Y-102493116D01*
X164276145Y-102481802D01*
X163735562Y-101941219D01*
X163467569Y-101941219D01*
X163498876Y-101909911D01*
X163285648Y-102123140D01*
X163170249Y-102401736D01*
X163170249Y-102703288D01*
X163285647Y-102981885D01*
X163396858Y-103093096D01*
X163664851Y-103093096D01*
X164276145Y-102481802D01*
X164276145Y-102493116D01*
X163670508Y-103098753D01*
X163670508Y-103366746D01*
X163781719Y-103477957D01*
X164060316Y-103593355D01*
X164320227Y-103593355D01*
X164523055Y-103796183D01*
X164575958Y-103831893D01*
X163990016Y-103831893D01*
X163803828Y-103645705D01*
X163658960Y-103547918D01*
X163482275Y-103511330D01*
X163305146Y-103545697D01*
X163154964Y-103645705D01*
X162589208Y-104211461D01*
X162491421Y-104356329D01*
X162454833Y-104533014D01*
X162489200Y-104710143D01*
X162589208Y-104860325D01*
X163154964Y-105426081D01*
X163299832Y-105523868D01*
X163476517Y-105560456D01*
X163653646Y-105526089D01*
X163803828Y-105426081D01*
X163990016Y-105239893D01*
X164336389Y-105239893D01*
X164907138Y-105810642D01*
X164854380Y-106075877D01*
X164954371Y-106578570D01*
X164965691Y-106595512D01*
X164716669Y-106346490D01*
X164571801Y-106248703D01*
X164395116Y-106212115D01*
X164217987Y-106246482D01*
X164067805Y-106346490D01*
X163954950Y-106459344D01*
X162877199Y-105381593D01*
X162803397Y-105332280D01*
X162460325Y-104989208D01*
X162315457Y-104891421D01*
X162138772Y-104854833D01*
X161961643Y-104889200D01*
X161811461Y-104989208D01*
X161245705Y-105554964D01*
X161147918Y-105699832D01*
X161111330Y-105876517D01*
X161145697Y-106053646D01*
X161245705Y-106203828D01*
X161811461Y-106769584D01*
X161956329Y-106867371D01*
X162133014Y-106903959D01*
X162310143Y-106869592D01*
X162348466Y-106844072D01*
X162959344Y-107454950D01*
X162846490Y-107567805D01*
X162748703Y-107712673D01*
X162712115Y-107889358D01*
X162746482Y-108066487D01*
X162846490Y-108216669D01*
X163129820Y-108500000D01*
X158700207Y-108500000D01*
X158700207Y-105262353D01*
X158517903Y-104821143D01*
X158180633Y-104483283D01*
X157739742Y-104300209D01*
X157262353Y-104299793D01*
X156821143Y-104482097D01*
X156709812Y-104593233D01*
X156456035Y-104549622D01*
X155505657Y-105500000D01*
X156456035Y-106450378D01*
X156709638Y-106406796D01*
X156819367Y-106516717D01*
X157260258Y-106699791D01*
X157737647Y-106700207D01*
X158178857Y-106517903D01*
X158516717Y-106180633D01*
X158699791Y-105739742D01*
X158700207Y-105262353D01*
X158700207Y-108500000D01*
X156450378Y-108500000D01*
X156450378Y-106456035D01*
X155500000Y-105505657D01*
X154549622Y-106456035D01*
X154599494Y-106746246D01*
X155144958Y-106995990D01*
X155744475Y-107017983D01*
X156306773Y-106808877D01*
X156400506Y-106746246D01*
X156450378Y-106456035D01*
X156450378Y-108500000D01*
X149360932Y-108500000D01*
X149494344Y-108178708D01*
X149494655Y-107822854D01*
X149358762Y-107493969D01*
X149107355Y-107242122D01*
X149058319Y-107221760D01*
X149191820Y-107088260D01*
X149311392Y-106909309D01*
X149311392Y-106909308D01*
X149326226Y-106834730D01*
X149373413Y-106825575D01*
X149524220Y-106726511D01*
X149625168Y-106576960D01*
X149660646Y-106400050D01*
X149660646Y-105644127D01*
X149758109Y-105879423D01*
X149971338Y-106092652D01*
X150159100Y-106170425D01*
X150078320Y-106223489D01*
X149977372Y-106373040D01*
X149941894Y-106549950D01*
X149941894Y-107350050D01*
X149975185Y-107521633D01*
X150074249Y-107672440D01*
X150223800Y-107773388D01*
X150400710Y-107808866D01*
X151200810Y-107808866D01*
X151372393Y-107775575D01*
X151485006Y-107701600D01*
X151816812Y-107701600D01*
X151923090Y-107773338D01*
X152100000Y-107808816D01*
X152700000Y-107808816D01*
X152871583Y-107775525D01*
X153022390Y-107676461D01*
X153123338Y-107526910D01*
X153158816Y-107350000D01*
X153158816Y-106950000D01*
X153125525Y-106778417D01*
X153074007Y-106699991D01*
X153123338Y-106626910D01*
X153158816Y-106450000D01*
X153158816Y-106221264D01*
X153240040Y-106140040D01*
X153359612Y-105961088D01*
X153401600Y-105750000D01*
X153401600Y-105583187D01*
X153426476Y-105546333D01*
X153611088Y-105509612D01*
X153790040Y-105390040D01*
X154002825Y-105177254D01*
X153982017Y-105744475D01*
X154191123Y-106306773D01*
X154253754Y-106400506D01*
X154543965Y-106450378D01*
X155494343Y-105500000D01*
X155480201Y-105485857D01*
X155485858Y-105480200D01*
X155500000Y-105494343D01*
X156450378Y-104543965D01*
X156400506Y-104253754D01*
X156075247Y-104104832D01*
X156430079Y-103750000D01*
X160378135Y-103750000D01*
X160369589Y-103791273D01*
X160403956Y-103968402D01*
X160503964Y-104118584D01*
X161069720Y-104684340D01*
X161214588Y-104782127D01*
X161391273Y-104818715D01*
X161568402Y-104784348D01*
X161718584Y-104684340D01*
X162284340Y-104118584D01*
X162382127Y-103973716D01*
X162418715Y-103797031D01*
X162384348Y-103619902D01*
X162284340Y-103469720D01*
X161718584Y-102903964D01*
X161573716Y-102806177D01*
X161450000Y-102780557D01*
X161450000Y-102477000D01*
X161700000Y-102477000D01*
X162499994Y-102477000D01*
X162500000Y-102477001D01*
X162500000Y-102477000D01*
X162720808Y-102433078D01*
X162908001Y-102308001D01*
X163257997Y-101958003D01*
X163258001Y-101958001D01*
X163258001Y-101958000D01*
X163383078Y-101770808D01*
X163427000Y-101550000D01*
X163427001Y-101550000D01*
X163427000Y-101549994D01*
X163427000Y-100300000D01*
X163383078Y-100079192D01*
X163258001Y-99891999D01*
X163257997Y-99891996D01*
X162631888Y-99265887D01*
X162800199Y-99265887D01*
X162800594Y-99265491D01*
X162992645Y-99457878D01*
X163321292Y-99594344D01*
X163677146Y-99594655D01*
X163722337Y-99575982D01*
X163692000Y-99649224D01*
X163692000Y-99906500D01*
X163881500Y-100096000D01*
X164696000Y-100096000D01*
X164696000Y-100076000D01*
X164704000Y-100076000D01*
X164704000Y-100096000D01*
X165518500Y-100096000D01*
X165708000Y-99906500D01*
X165708000Y-99649224D01*
X165592601Y-99370627D01*
X165408816Y-99186842D01*
X165408816Y-98700000D01*
X165375525Y-98528417D01*
X165360041Y-98504845D01*
X165488111Y-98377000D01*
X165660998Y-98377000D01*
X166023000Y-98739001D01*
X166023000Y-99960998D01*
X166023000Y-99960998D01*
G37*
X166023000Y-99960998D02*
X165699249Y-100284749D01*
X165518500Y-100104000D01*
X164704000Y-100104000D01*
X164704000Y-100124000D01*
X164696000Y-100124000D01*
X164696000Y-100104000D01*
X163881500Y-100104000D01*
X163692000Y-100293500D01*
X163692000Y-100550776D01*
X163807399Y-100829373D01*
X164020628Y-101042602D01*
X164299225Y-101158000D01*
X164506500Y-101158000D01*
X164695998Y-100968502D01*
X164695998Y-101139663D01*
X164606030Y-101272949D01*
X164579356Y-101401757D01*
X164503288Y-101370249D01*
X164201736Y-101370249D01*
X163923140Y-101485648D01*
X163709911Y-101698876D01*
X163741219Y-101667569D01*
X163741219Y-101935562D01*
X164281802Y-102476145D01*
X164295943Y-102462002D01*
X164301600Y-102467659D01*
X164287459Y-102481802D01*
X164301600Y-102495944D01*
X164295944Y-102501601D01*
X164281802Y-102487459D01*
X164276145Y-102493116D01*
X164276145Y-102481802D01*
X163735562Y-101941219D01*
X163467569Y-101941219D01*
X163498876Y-101909911D01*
X163285648Y-102123140D01*
X163170249Y-102401736D01*
X163170249Y-102703288D01*
X163285647Y-102981885D01*
X163396858Y-103093096D01*
X163664851Y-103093096D01*
X164276145Y-102481802D01*
X164276145Y-102493116D01*
X163670508Y-103098753D01*
X163670508Y-103366746D01*
X163781719Y-103477957D01*
X164060316Y-103593355D01*
X164320227Y-103593355D01*
X164523055Y-103796183D01*
X164575958Y-103831893D01*
X163990016Y-103831893D01*
X163803828Y-103645705D01*
X163658960Y-103547918D01*
X163482275Y-103511330D01*
X163305146Y-103545697D01*
X163154964Y-103645705D01*
X162589208Y-104211461D01*
X162491421Y-104356329D01*
X162454833Y-104533014D01*
X162489200Y-104710143D01*
X162589208Y-104860325D01*
X163154964Y-105426081D01*
X163299832Y-105523868D01*
X163476517Y-105560456D01*
X163653646Y-105526089D01*
X163803828Y-105426081D01*
X163990016Y-105239893D01*
X164336389Y-105239893D01*
X164907138Y-105810642D01*
X164854380Y-106075877D01*
X164954371Y-106578570D01*
X164965691Y-106595512D01*
X164716669Y-106346490D01*
X164571801Y-106248703D01*
X164395116Y-106212115D01*
X164217987Y-106246482D01*
X164067805Y-106346490D01*
X163954950Y-106459344D01*
X162877199Y-105381593D01*
X162803397Y-105332280D01*
X162460325Y-104989208D01*
X162315457Y-104891421D01*
X162138772Y-104854833D01*
X161961643Y-104889200D01*
X161811461Y-104989208D01*
X161245705Y-105554964D01*
X161147918Y-105699832D01*
X161111330Y-105876517D01*
X161145697Y-106053646D01*
X161245705Y-106203828D01*
X161811461Y-106769584D01*
X161956329Y-106867371D01*
X162133014Y-106903959D01*
X162310143Y-106869592D01*
X162348466Y-106844072D01*
X162959344Y-107454950D01*
X162846490Y-107567805D01*
X162748703Y-107712673D01*
X162712115Y-107889358D01*
X162746482Y-108066487D01*
X162846490Y-108216669D01*
X163129820Y-108500000D01*
X158700207Y-108500000D01*
X158700207Y-105262353D01*
X158517903Y-104821143D01*
X158180633Y-104483283D01*
X157739742Y-104300209D01*
X157262353Y-104299793D01*
X156821143Y-104482097D01*
X156709812Y-104593233D01*
X156456035Y-104549622D01*
X155505657Y-105500000D01*
X156456035Y-106450378D01*
X156709638Y-106406796D01*
X156819367Y-106516717D01*
X157260258Y-106699791D01*
X157737647Y-106700207D01*
X158178857Y-106517903D01*
X158516717Y-106180633D01*
X158699791Y-105739742D01*
X158700207Y-105262353D01*
X158700207Y-108500000D01*
X156450378Y-108500000D01*
X156450378Y-106456035D01*
X155500000Y-105505657D01*
X154549622Y-106456035D01*
X154599494Y-106746246D01*
X155144958Y-106995990D01*
X155744475Y-107017983D01*
X156306773Y-106808877D01*
X156400506Y-106746246D01*
X156450378Y-106456035D01*
X156450378Y-108500000D01*
X149360932Y-108500000D01*
X149494344Y-108178708D01*
X149494655Y-107822854D01*
X149358762Y-107493969D01*
X149107355Y-107242122D01*
X149058319Y-107221760D01*
X149191820Y-107088260D01*
X149311392Y-106909309D01*
X149311392Y-106909308D01*
X149326226Y-106834730D01*
X149373413Y-106825575D01*
X149524220Y-106726511D01*
X149625168Y-106576960D01*
X149660646Y-106400050D01*
X149660646Y-105644127D01*
X149758109Y-105879423D01*
X149971338Y-106092652D01*
X150159100Y-106170425D01*
X150078320Y-106223489D01*
X149977372Y-106373040D01*
X149941894Y-106549950D01*
X149941894Y-107350050D01*
X149975185Y-107521633D01*
X150074249Y-107672440D01*
X150223800Y-107773388D01*
X150400710Y-107808866D01*
X151200810Y-107808866D01*
X151372393Y-107775575D01*
X151485006Y-107701600D01*
X151816812Y-107701600D01*
X151923090Y-107773338D01*
X152100000Y-107808816D01*
X152700000Y-107808816D01*
X152871583Y-107775525D01*
X153022390Y-107676461D01*
X153123338Y-107526910D01*
X153158816Y-107350000D01*
X153158816Y-106950000D01*
X153125525Y-106778417D01*
X153074007Y-106699991D01*
X153123338Y-106626910D01*
X153158816Y-106450000D01*
X153158816Y-106221264D01*
X153240040Y-106140040D01*
X153359612Y-105961088D01*
X153401600Y-105750000D01*
X153401600Y-105583187D01*
X153426476Y-105546333D01*
X153611088Y-105509612D01*
X153790040Y-105390040D01*
X154002825Y-105177254D01*
X153982017Y-105744475D01*
X154191123Y-106306773D01*
X154253754Y-106400506D01*
X154543965Y-106450378D01*
X155494343Y-105500000D01*
X155480201Y-105485857D01*
X155485858Y-105480200D01*
X155500000Y-105494343D01*
X156450378Y-104543965D01*
X156400506Y-104253754D01*
X156075247Y-104104832D01*
X156430079Y-103750000D01*
X160378135Y-103750000D01*
X160369589Y-103791273D01*
X160403956Y-103968402D01*
X160503964Y-104118584D01*
X161069720Y-104684340D01*
X161214588Y-104782127D01*
X161391273Y-104818715D01*
X161568402Y-104784348D01*
X161718584Y-104684340D01*
X162284340Y-104118584D01*
X162382127Y-103973716D01*
X162418715Y-103797031D01*
X162384348Y-103619902D01*
X162284340Y-103469720D01*
X161718584Y-102903964D01*
X161573716Y-102806177D01*
X161450000Y-102780557D01*
X161450000Y-102477000D01*
X161700000Y-102477000D01*
X162499994Y-102477000D01*
X162500000Y-102477001D01*
X162500000Y-102477000D01*
X162720808Y-102433078D01*
X162908001Y-102308001D01*
X163257997Y-101958003D01*
X163258001Y-101958001D01*
X163258001Y-101958000D01*
X163383078Y-101770808D01*
X163427000Y-101550000D01*
X163427001Y-101550000D01*
X163427000Y-101549994D01*
X163427000Y-100300000D01*
X163383078Y-100079192D01*
X163258001Y-99891999D01*
X163257997Y-99891996D01*
X162631888Y-99265887D01*
X162800199Y-99265887D01*
X162800594Y-99265491D01*
X162992645Y-99457878D01*
X163321292Y-99594344D01*
X163677146Y-99594655D01*
X163722337Y-99575982D01*
X163692000Y-99649224D01*
X163692000Y-99906500D01*
X163881500Y-100096000D01*
X164696000Y-100096000D01*
X164696000Y-100076000D01*
X164704000Y-100076000D01*
X164704000Y-100096000D01*
X165518500Y-100096000D01*
X165708000Y-99906500D01*
X165708000Y-99649224D01*
X165592601Y-99370627D01*
X165408816Y-99186842D01*
X165408816Y-98700000D01*
X165375525Y-98528417D01*
X165360041Y-98504845D01*
X165488111Y-98377000D01*
X165660998Y-98377000D01*
X166023000Y-98739001D01*
X166023000Y-99960998D01*
G36*
X168500000Y-103088453D02*
X168466723Y-103066218D01*
X167964030Y-102966227D01*
X167461337Y-103066218D01*
X167035175Y-103350971D01*
X166750422Y-103777133D01*
X166650431Y-104279826D01*
X166750422Y-104782519D01*
X166911013Y-105022860D01*
X166670672Y-104862269D01*
X166167979Y-104762278D01*
X165902744Y-104815036D01*
X165125798Y-104038090D01*
X164937803Y-103912476D01*
X165021737Y-103896191D01*
X165171919Y-103796183D01*
X165351557Y-103616544D01*
X165492645Y-103757878D01*
X165821292Y-103894344D01*
X166177146Y-103894655D01*
X166506031Y-103758762D01*
X166757878Y-103507355D01*
X166894344Y-103178708D01*
X166894655Y-102822854D01*
X166758762Y-102493969D01*
X166722198Y-102457341D01*
X166722198Y-102233378D01*
X166793970Y-102127051D01*
X166830558Y-101950366D01*
X166796191Y-101773237D01*
X166696183Y-101623055D01*
X166413341Y-101340213D01*
X166331220Y-101284781D01*
X167007997Y-100608003D01*
X167008000Y-100608001D01*
X167008001Y-100608001D01*
X167082979Y-100495787D01*
X167133078Y-100420809D01*
X167133078Y-100420808D01*
X167177000Y-100200000D01*
X167177000Y-98500000D01*
X167133078Y-98279192D01*
X167133078Y-98279191D01*
X167082979Y-98204212D01*
X167008001Y-98091999D01*
X167007997Y-98091996D01*
X166308001Y-97391999D01*
X166120808Y-97266922D01*
X165900000Y-97222999D01*
X165899994Y-97223000D01*
X165487916Y-97223000D01*
X165307355Y-97042122D01*
X165022947Y-96924026D01*
X165117601Y-96829373D01*
X165233000Y-96550776D01*
X165233000Y-96193500D01*
X165043500Y-96004000D01*
X164104000Y-96004000D01*
X164104000Y-96968500D01*
X164235302Y-97099802D01*
X164096000Y-97238860D01*
X164096000Y-96968500D01*
X164096000Y-96004000D01*
X163156500Y-96004000D01*
X162967000Y-96193500D01*
X162967000Y-96550776D01*
X163082399Y-96829373D01*
X163295628Y-97042602D01*
X163574225Y-97158000D01*
X163875776Y-97158000D01*
X163906500Y-97158000D01*
X164096000Y-96968500D01*
X164096000Y-97238860D01*
X164042122Y-97292645D01*
X163950658Y-97512913D01*
X163750000Y-97472999D01*
X163749994Y-97473000D01*
X163489001Y-97473000D01*
X163057650Y-97041648D01*
X163063490Y-97013450D01*
X163029123Y-96836321D01*
X162929115Y-96686139D01*
X162681628Y-96438652D01*
X162617259Y-96395202D01*
X162575562Y-96332586D01*
X162328075Y-96085099D01*
X162263705Y-96041649D01*
X162222008Y-95979032D01*
X161974521Y-95731545D01*
X161910152Y-95688095D01*
X161868455Y-95625479D01*
X161620968Y-95377992D01*
X161594916Y-95360406D01*
X161594916Y-95177000D01*
X163079759Y-95177000D01*
X162967000Y-95449224D01*
X162967000Y-95806500D01*
X163156500Y-95996000D01*
X164096000Y-95996000D01*
X164096000Y-95976000D01*
X164104000Y-95976000D01*
X164104000Y-95996000D01*
X165043500Y-95996000D01*
X165233000Y-95806500D01*
X165233000Y-95780558D01*
X165239799Y-95796973D01*
X165453028Y-96010202D01*
X165731625Y-96125600D01*
X166033176Y-96125600D01*
X166806500Y-96125600D01*
X166996000Y-95936100D01*
X166996000Y-94254000D01*
X165313900Y-94254000D01*
X165124400Y-94443500D01*
X165124400Y-95187041D01*
X165117601Y-95170627D01*
X164919309Y-94972335D01*
X164933816Y-94900000D01*
X164933816Y-94100000D01*
X164900525Y-93928417D01*
X164801461Y-93777610D01*
X164651910Y-93676662D01*
X164475000Y-93641184D01*
X164318715Y-93641184D01*
X164318715Y-78208727D01*
X164284348Y-78031598D01*
X164184340Y-77881416D01*
X163618584Y-77315660D01*
X163473716Y-77217873D01*
X163297031Y-77181285D01*
X163119902Y-77215652D01*
X162969720Y-77315660D01*
X162403964Y-77881416D01*
X162306177Y-78026284D01*
X162269589Y-78202969D01*
X162303956Y-78380098D01*
X162403964Y-78530280D01*
X162969720Y-79096036D01*
X163114588Y-79193823D01*
X163291273Y-79230411D01*
X163468402Y-79196044D01*
X163618584Y-79096036D01*
X164184340Y-78530280D01*
X164282127Y-78385412D01*
X164318715Y-78208727D01*
X164318715Y-93641184D01*
X164094655Y-93641184D01*
X164094655Y-87522854D01*
X163958762Y-87193969D01*
X163707355Y-86942122D01*
X163378708Y-86805656D01*
X163154066Y-86805459D01*
X163173338Y-86776910D01*
X163208816Y-86600000D01*
X163208816Y-86113158D01*
X163392601Y-85929373D01*
X163508000Y-85650776D01*
X163508000Y-85393500D01*
X163508000Y-85006500D01*
X163508000Y-84749224D01*
X163392601Y-84470627D01*
X163179372Y-84257398D01*
X162900775Y-84142000D01*
X162693500Y-84142000D01*
X162504000Y-84331500D01*
X162504000Y-85196000D01*
X163318500Y-85196000D01*
X163508000Y-85006500D01*
X163508000Y-85393500D01*
X163318500Y-85204000D01*
X162504000Y-85204000D01*
X162504000Y-85224000D01*
X162496000Y-85224000D01*
X162496000Y-85204000D01*
X162496000Y-85196000D01*
X162496000Y-84331500D01*
X162306500Y-84142000D01*
X162099225Y-84142000D01*
X161820628Y-84257398D01*
X161607399Y-84470627D01*
X161492000Y-84749224D01*
X161492000Y-85006500D01*
X161681500Y-85196000D01*
X162496000Y-85196000D01*
X162496000Y-85204000D01*
X161681500Y-85204000D01*
X161492000Y-85393500D01*
X161492000Y-85650776D01*
X161607399Y-85929373D01*
X161791184Y-86113158D01*
X161791184Y-86600000D01*
X161824475Y-86771583D01*
X161923000Y-86921569D01*
X161923000Y-86999994D01*
X161922999Y-87000000D01*
X161966922Y-87220808D01*
X162091999Y-87408001D01*
X162305568Y-87621570D01*
X162305345Y-87877146D01*
X162441238Y-88206031D01*
X162692645Y-88457878D01*
X163021292Y-88594344D01*
X163377146Y-88594655D01*
X163706031Y-88458762D01*
X163957878Y-88207355D01*
X164094344Y-87878708D01*
X164094655Y-87522854D01*
X164094655Y-93641184D01*
X163725000Y-93641184D01*
X163553417Y-93674475D01*
X163402610Y-93773539D01*
X163301662Y-93923090D01*
X163281625Y-94023000D01*
X163204909Y-94023000D01*
X163494407Y-93589735D01*
X163606000Y-93028721D01*
X163606000Y-92971279D01*
X163494407Y-92410265D01*
X163444502Y-92335577D01*
X163540040Y-92240040D01*
X163659612Y-92061088D01*
X163701600Y-91850000D01*
X163701600Y-91283187D01*
X163773338Y-91176910D01*
X163808816Y-91000000D01*
X163808816Y-90400000D01*
X163775525Y-90228417D01*
X163676461Y-90077610D01*
X163526910Y-89976662D01*
X163350000Y-89941184D01*
X163068401Y-89941184D01*
X163094344Y-89878708D01*
X163094655Y-89522854D01*
X162958762Y-89193969D01*
X162707355Y-88942122D01*
X162378708Y-88805656D01*
X162022854Y-88805345D01*
X161693969Y-88941238D01*
X161450000Y-89184780D01*
X161450000Y-84400303D01*
X161509612Y-84311088D01*
X161551600Y-84100000D01*
X161551600Y-84022962D01*
X161622390Y-83976461D01*
X161723338Y-83826910D01*
X161758816Y-83650000D01*
X161758816Y-83363158D01*
X161942601Y-83179373D01*
X162058000Y-82900776D01*
X162058000Y-82743500D01*
X161868500Y-82554000D01*
X161450000Y-82554000D01*
X161450000Y-82546000D01*
X161868500Y-82546000D01*
X162058000Y-82356500D01*
X162058000Y-82199224D01*
X161942601Y-81920627D01*
X161729372Y-81707398D01*
X161450775Y-81592000D01*
X161450000Y-81592000D01*
X161450000Y-76894159D01*
X161672076Y-76672082D01*
X161672080Y-76672080D01*
X161672080Y-76672079D01*
X161786145Y-76501368D01*
X161817128Y-76345606D01*
X161817129Y-76345606D01*
X161922390Y-76276461D01*
X162023338Y-76126910D01*
X162058816Y-75950000D01*
X162058816Y-75550000D01*
X162025525Y-75378417D01*
X161974007Y-75299991D01*
X162023338Y-75226910D01*
X162029849Y-75194438D01*
X162277146Y-75194655D01*
X162606031Y-75058762D01*
X162857878Y-74807355D01*
X162994344Y-74478708D01*
X162994655Y-74122854D01*
X162858762Y-73793969D01*
X162607355Y-73542122D01*
X162278708Y-73405656D01*
X161922854Y-73405345D01*
X161593969Y-73541238D01*
X161342122Y-73792645D01*
X161205656Y-74121292D01*
X161205634Y-74146000D01*
X160958000Y-74146000D01*
X160958000Y-74043500D01*
X160958000Y-73656500D01*
X160958000Y-73499224D01*
X160842601Y-73220627D01*
X160629372Y-73007398D01*
X160350775Y-72892000D01*
X160093500Y-72892000D01*
X159904000Y-73081500D01*
X159904000Y-73846000D01*
X160768500Y-73846000D01*
X160958000Y-73656500D01*
X160958000Y-74043500D01*
X160768500Y-73854000D01*
X159904000Y-73854000D01*
X159904000Y-73874000D01*
X159896000Y-73874000D01*
X159896000Y-73854000D01*
X159896000Y-73846000D01*
X159896000Y-73081500D01*
X159706500Y-72892000D01*
X159449225Y-72892000D01*
X159170628Y-73007398D01*
X158957399Y-73220627D01*
X158842000Y-73499224D01*
X158842000Y-73656500D01*
X159031500Y-73846000D01*
X159896000Y-73846000D01*
X159896000Y-73854000D01*
X159031500Y-73854000D01*
X158842000Y-74043500D01*
X158842000Y-74200776D01*
X158957399Y-74479373D01*
X159141184Y-74663158D01*
X159141184Y-74950000D01*
X159174475Y-75121583D01*
X159273539Y-75272390D01*
X159423090Y-75373338D01*
X159590725Y-75406956D01*
X159730591Y-75500411D01*
X160000000Y-75554000D01*
X160541184Y-75554000D01*
X160541184Y-75950000D01*
X160574475Y-76121583D01*
X160593141Y-76150000D01*
X156694543Y-76150000D01*
X156694655Y-76022854D01*
X156558762Y-75693969D01*
X156307355Y-75442122D01*
X155978708Y-75305656D01*
X155622854Y-75305345D01*
X155293969Y-75441238D01*
X155286902Y-75448291D01*
X155192602Y-75220628D01*
X154979373Y-75007399D01*
X154700776Y-74892000D01*
X154443500Y-74892000D01*
X154254000Y-75081500D01*
X154254000Y-75896000D01*
X154274000Y-75896000D01*
X154274000Y-75904000D01*
X154254000Y-75904000D01*
X154254000Y-75924000D01*
X154246000Y-75924000D01*
X154246000Y-75904000D01*
X154226000Y-75904000D01*
X154226000Y-75896000D01*
X154246000Y-75896000D01*
X154246000Y-75081500D01*
X154056500Y-74892000D01*
X153799224Y-74892000D01*
X153520627Y-75007399D01*
X153458000Y-75070026D01*
X153458000Y-73500776D01*
X153458000Y-73343500D01*
X153268500Y-73154000D01*
X152404000Y-73154000D01*
X152404000Y-73174000D01*
X152396000Y-73174000D01*
X152396000Y-73154000D01*
X151531500Y-73154000D01*
X151342000Y-73343500D01*
X151342000Y-73500776D01*
X151423173Y-73696746D01*
X151238331Y-73881588D01*
X151093969Y-73941238D01*
X150842122Y-74192645D01*
X150705656Y-74521292D01*
X150705345Y-74877146D01*
X150841238Y-75206031D01*
X151092645Y-75457878D01*
X151421292Y-75594344D01*
X151777146Y-75594655D01*
X152106031Y-75458762D01*
X152357878Y-75207355D01*
X152494344Y-74878708D01*
X152494492Y-74708816D01*
X152700000Y-74708816D01*
X152871583Y-74675525D01*
X153022390Y-74576461D01*
X153123338Y-74426910D01*
X153158816Y-74250000D01*
X153158816Y-73963158D01*
X153342601Y-73779373D01*
X153458000Y-73500776D01*
X153458000Y-75070026D01*
X153336842Y-75191184D01*
X152850000Y-75191184D01*
X152678417Y-75224475D01*
X152527610Y-75323539D01*
X152426662Y-75473090D01*
X152391184Y-75650000D01*
X152391184Y-76150000D01*
X151350000Y-76150000D01*
X151350000Y-77950000D01*
X151050000Y-77950000D01*
X151050000Y-78492000D01*
X150899225Y-78492000D01*
X150649999Y-78595231D01*
X150400775Y-78492000D01*
X150193500Y-78492000D01*
X150004000Y-78681500D01*
X150004000Y-78950000D01*
X149996000Y-78950000D01*
X149996000Y-78681500D01*
X149806500Y-78492000D01*
X149599225Y-78492000D01*
X149320628Y-78607398D01*
X149107399Y-78820627D01*
X149053810Y-78950000D01*
X148850000Y-78950000D01*
X148850000Y-79885130D01*
X148642122Y-80092645D01*
X148505656Y-80421292D01*
X148505345Y-80777146D01*
X148641238Y-81106031D01*
X148850000Y-81315158D01*
X148850000Y-82400000D01*
X148850000Y-84641184D01*
X148610000Y-84641184D01*
X148498182Y-84662879D01*
X148390000Y-84641184D01*
X148110000Y-84641184D01*
X147998182Y-84662879D01*
X147890000Y-84641184D01*
X147610000Y-84641184D01*
X147549227Y-84652975D01*
X147547763Y-82479263D01*
X147551500Y-82483000D01*
X147708776Y-82483000D01*
X147987373Y-82367601D01*
X148200602Y-82154372D01*
X148316000Y-81875775D01*
X148316000Y-81574224D01*
X148316000Y-81443500D01*
X148126500Y-81254000D01*
X147546938Y-81254000D01*
X147546933Y-81246000D01*
X148126500Y-81246000D01*
X148316000Y-81056500D01*
X148316000Y-80925776D01*
X148316000Y-80624225D01*
X148200602Y-80345628D01*
X147987373Y-80132399D01*
X147708776Y-80017000D01*
X147551500Y-80017000D01*
X147546108Y-80022391D01*
X147545921Y-79744052D01*
X147610601Y-79679373D01*
X147726000Y-79400776D01*
X147726000Y-79143500D01*
X147545395Y-78962895D01*
X147545377Y-78937122D01*
X147726000Y-78756500D01*
X147726000Y-78537420D01*
X147782600Y-78400775D01*
X147782600Y-78193500D01*
X147593100Y-78004000D01*
X147544749Y-78004000D01*
X147544744Y-77996000D01*
X147593100Y-77996000D01*
X147782600Y-77806500D01*
X147782600Y-77599225D01*
X147667202Y-77320628D01*
X147544206Y-77197632D01*
X147543568Y-76250000D01*
X148250000Y-76250000D01*
X148250000Y-71750000D01*
X146314500Y-71750000D01*
X146268500Y-71704000D01*
X145750000Y-71704000D01*
X145750000Y-71696000D01*
X146268500Y-71696000D01*
X146458000Y-71506500D01*
X146458000Y-71500000D01*
X151229303Y-71500000D01*
X151200157Y-71570194D01*
X151199844Y-71928236D01*
X151336572Y-72259143D01*
X151527560Y-72450465D01*
X151457399Y-72520627D01*
X151342000Y-72799224D01*
X151342000Y-72956500D01*
X151531500Y-73146000D01*
X152396000Y-73146000D01*
X152396000Y-73126000D01*
X152404000Y-73126000D01*
X152404000Y-73146000D01*
X153268500Y-73146000D01*
X153458000Y-72956500D01*
X153458000Y-72799224D01*
X153342601Y-72520627D01*
X153129372Y-72307398D01*
X152885072Y-72206206D01*
X152999843Y-71929806D01*
X153000156Y-71571764D01*
X152970503Y-71500000D01*
X158029303Y-71500000D01*
X158000157Y-71570194D01*
X157999844Y-71928236D01*
X158136572Y-72259143D01*
X158389525Y-72512538D01*
X158720194Y-72649843D01*
X159078236Y-72650156D01*
X159409143Y-72513428D01*
X159662538Y-72260475D01*
X159799843Y-71929806D01*
X159800156Y-71571764D01*
X159770503Y-71500000D01*
X163088453Y-71500000D01*
X163066218Y-71533277D01*
X162966227Y-72035970D01*
X163066218Y-72538663D01*
X163350971Y-72964825D01*
X163777133Y-73249578D01*
X164279826Y-73349569D01*
X164782519Y-73249578D01*
X165022860Y-73088986D01*
X164862269Y-73329328D01*
X164762278Y-73832021D01*
X164815036Y-74097255D01*
X163538090Y-75374202D01*
X163478515Y-75463361D01*
X163145705Y-75796172D01*
X163047918Y-75941040D01*
X163011330Y-76117725D01*
X163045697Y-76294854D01*
X163145705Y-76445036D01*
X163711461Y-77010792D01*
X163856329Y-77108579D01*
X164033014Y-77145167D01*
X164210143Y-77110800D01*
X164360325Y-77010792D01*
X164926081Y-76445036D01*
X165023868Y-76300168D01*
X165060456Y-76123483D01*
X165026089Y-75946354D01*
X164998532Y-75904971D01*
X165810642Y-75092861D01*
X166075877Y-75145620D01*
X166578570Y-75045629D01*
X166595512Y-75034308D01*
X166346490Y-75283331D01*
X166248703Y-75428199D01*
X166212115Y-75604884D01*
X166246482Y-75782013D01*
X166346490Y-75932195D01*
X166459344Y-76045049D01*
X165817151Y-76687242D01*
X165703828Y-76573919D01*
X165558960Y-76476132D01*
X165382275Y-76439544D01*
X165205146Y-76473911D01*
X165054964Y-76573919D01*
X164489208Y-77139675D01*
X164391421Y-77284543D01*
X164354833Y-77461228D01*
X164389200Y-77638357D01*
X164489208Y-77788539D01*
X165054964Y-78354295D01*
X165199832Y-78452082D01*
X165376517Y-78488670D01*
X165553646Y-78454303D01*
X165703828Y-78354295D01*
X165890016Y-78168107D01*
X166035893Y-78168107D01*
X166305302Y-78114518D01*
X166533696Y-77961910D01*
X167454950Y-77040655D01*
X167567805Y-77153510D01*
X167712673Y-77251297D01*
X167889358Y-77287885D01*
X168066487Y-77253518D01*
X168216669Y-77153510D01*
X168500000Y-76870179D01*
X168500000Y-92470341D01*
X168474816Y-92459910D01*
X168474816Y-90734000D01*
X168441525Y-90562417D01*
X168342461Y-90411610D01*
X168192910Y-90310662D01*
X168021068Y-90276200D01*
X168065340Y-90246619D01*
X168383128Y-89771014D01*
X168494721Y-89210000D01*
X168383128Y-88648986D01*
X168090101Y-88210438D01*
X168187583Y-88191525D01*
X168338390Y-88092461D01*
X168439338Y-87942910D01*
X168474816Y-87766000D01*
X168474816Y-85734000D01*
X168441525Y-85562417D01*
X168342461Y-85411610D01*
X168192910Y-85310662D01*
X168021068Y-85276200D01*
X168065340Y-85246619D01*
X168383128Y-84771014D01*
X168494721Y-84210000D01*
X168383128Y-83648986D01*
X168065340Y-83173381D01*
X167627000Y-82880492D01*
X167627000Y-82245558D01*
X167673338Y-82176910D01*
X167708816Y-82000000D01*
X167708816Y-81400000D01*
X167675525Y-81228417D01*
X167576461Y-81077610D01*
X167426910Y-80976662D01*
X167250000Y-80941184D01*
X166963158Y-80941184D01*
X166779373Y-80757399D01*
X166500776Y-80642000D01*
X166343500Y-80642000D01*
X166154000Y-80831500D01*
X166154000Y-81696000D01*
X166174000Y-81696000D01*
X166174000Y-81704000D01*
X166154000Y-81704000D01*
X166154000Y-82568500D01*
X166343500Y-82758000D01*
X166473000Y-82758000D01*
X166473000Y-82843114D01*
X166410265Y-82855593D01*
X166146000Y-83032168D01*
X166146000Y-82568500D01*
X166146000Y-81704000D01*
X166146000Y-81696000D01*
X166146000Y-80831500D01*
X165956500Y-80642000D01*
X165799224Y-80642000D01*
X165520627Y-80757399D01*
X165307398Y-80970628D01*
X165192000Y-81249225D01*
X165192000Y-81506500D01*
X165381500Y-81696000D01*
X166146000Y-81696000D01*
X166146000Y-81704000D01*
X165381500Y-81704000D01*
X165192000Y-81893500D01*
X165192000Y-82150775D01*
X165307398Y-82429372D01*
X165520627Y-82642601D01*
X165799224Y-82758000D01*
X165956500Y-82758000D01*
X166146000Y-82568500D01*
X166146000Y-83032168D01*
X165934660Y-83173381D01*
X165616872Y-83648986D01*
X165505279Y-84210000D01*
X165616872Y-84771014D01*
X165934660Y-85246619D01*
X165978893Y-85276174D01*
X165812417Y-85308475D01*
X165661610Y-85407539D01*
X165560662Y-85557090D01*
X165525184Y-85734000D01*
X165525184Y-87766000D01*
X165558475Y-87937583D01*
X165657539Y-88088390D01*
X165807090Y-88189338D01*
X165910183Y-88210012D01*
X165616872Y-88648986D01*
X165505279Y-89210000D01*
X165616872Y-89771014D01*
X165934660Y-90246619D01*
X165978893Y-90276174D01*
X165812417Y-90308475D01*
X165661610Y-90407539D01*
X165560662Y-90557090D01*
X165525184Y-90734000D01*
X165525184Y-92459910D01*
X165453028Y-92489798D01*
X165239799Y-92703027D01*
X165124400Y-92981624D01*
X165124400Y-94056500D01*
X165313900Y-94246000D01*
X166996000Y-94246000D01*
X166996000Y-94226000D01*
X167004000Y-94226000D01*
X167004000Y-94246000D01*
X167024000Y-94246000D01*
X167024000Y-94254000D01*
X167004000Y-94254000D01*
X167004000Y-95936100D01*
X167193500Y-96125600D01*
X167966824Y-96125600D01*
X168268375Y-96125600D01*
X168500000Y-96029658D01*
X168500000Y-103088453D01*
X168500000Y-103088453D01*
G37*
X168500000Y-103088453D02*
X168466723Y-103066218D01*
X167964030Y-102966227D01*
X167461337Y-103066218D01*
X167035175Y-103350971D01*
X166750422Y-103777133D01*
X166650431Y-104279826D01*
X166750422Y-104782519D01*
X166911013Y-105022860D01*
X166670672Y-104862269D01*
X166167979Y-104762278D01*
X165902744Y-104815036D01*
X165125798Y-104038090D01*
X164937803Y-103912476D01*
X165021737Y-103896191D01*
X165171919Y-103796183D01*
X165351557Y-103616544D01*
X165492645Y-103757878D01*
X165821292Y-103894344D01*
X166177146Y-103894655D01*
X166506031Y-103758762D01*
X166757878Y-103507355D01*
X166894344Y-103178708D01*
X166894655Y-102822854D01*
X166758762Y-102493969D01*
X166722198Y-102457341D01*
X166722198Y-102233378D01*
X166793970Y-102127051D01*
X166830558Y-101950366D01*
X166796191Y-101773237D01*
X166696183Y-101623055D01*
X166413341Y-101340213D01*
X166331220Y-101284781D01*
X167007997Y-100608003D01*
X167008000Y-100608001D01*
X167008001Y-100608001D01*
X167082979Y-100495787D01*
X167133078Y-100420809D01*
X167133078Y-100420808D01*
X167177000Y-100200000D01*
X167177000Y-98500000D01*
X167133078Y-98279192D01*
X167133078Y-98279191D01*
X167082979Y-98204212D01*
X167008001Y-98091999D01*
X167007997Y-98091996D01*
X166308001Y-97391999D01*
X166120808Y-97266922D01*
X165900000Y-97222999D01*
X165899994Y-97223000D01*
X165487916Y-97223000D01*
X165307355Y-97042122D01*
X165022947Y-96924026D01*
X165117601Y-96829373D01*
X165233000Y-96550776D01*
X165233000Y-96193500D01*
X165043500Y-96004000D01*
X164104000Y-96004000D01*
X164104000Y-96968500D01*
X164235302Y-97099802D01*
X164096000Y-97238860D01*
X164096000Y-96968500D01*
X164096000Y-96004000D01*
X163156500Y-96004000D01*
X162967000Y-96193500D01*
X162967000Y-96550776D01*
X163082399Y-96829373D01*
X163295628Y-97042602D01*
X163574225Y-97158000D01*
X163875776Y-97158000D01*
X163906500Y-97158000D01*
X164096000Y-96968500D01*
X164096000Y-97238860D01*
X164042122Y-97292645D01*
X163950658Y-97512913D01*
X163750000Y-97472999D01*
X163749994Y-97473000D01*
X163489001Y-97473000D01*
X163057650Y-97041648D01*
X163063490Y-97013450D01*
X163029123Y-96836321D01*
X162929115Y-96686139D01*
X162681628Y-96438652D01*
X162617259Y-96395202D01*
X162575562Y-96332586D01*
X162328075Y-96085099D01*
X162263705Y-96041649D01*
X162222008Y-95979032D01*
X161974521Y-95731545D01*
X161910152Y-95688095D01*
X161868455Y-95625479D01*
X161620968Y-95377992D01*
X161594916Y-95360406D01*
X161594916Y-95177000D01*
X163079759Y-95177000D01*
X162967000Y-95449224D01*
X162967000Y-95806500D01*
X163156500Y-95996000D01*
X164096000Y-95996000D01*
X164096000Y-95976000D01*
X164104000Y-95976000D01*
X164104000Y-95996000D01*
X165043500Y-95996000D01*
X165233000Y-95806500D01*
X165233000Y-95780558D01*
X165239799Y-95796973D01*
X165453028Y-96010202D01*
X165731625Y-96125600D01*
X166033176Y-96125600D01*
X166806500Y-96125600D01*
X166996000Y-95936100D01*
X166996000Y-94254000D01*
X165313900Y-94254000D01*
X165124400Y-94443500D01*
X165124400Y-95187041D01*
X165117601Y-95170627D01*
X164919309Y-94972335D01*
X164933816Y-94900000D01*
X164933816Y-94100000D01*
X164900525Y-93928417D01*
X164801461Y-93777610D01*
X164651910Y-93676662D01*
X164475000Y-93641184D01*
X164318715Y-93641184D01*
X164318715Y-78208727D01*
X164284348Y-78031598D01*
X164184340Y-77881416D01*
X163618584Y-77315660D01*
X163473716Y-77217873D01*
X163297031Y-77181285D01*
X163119902Y-77215652D01*
X162969720Y-77315660D01*
X162403964Y-77881416D01*
X162306177Y-78026284D01*
X162269589Y-78202969D01*
X162303956Y-78380098D01*
X162403964Y-78530280D01*
X162969720Y-79096036D01*
X163114588Y-79193823D01*
X163291273Y-79230411D01*
X163468402Y-79196044D01*
X163618584Y-79096036D01*
X164184340Y-78530280D01*
X164282127Y-78385412D01*
X164318715Y-78208727D01*
X164318715Y-93641184D01*
X164094655Y-93641184D01*
X164094655Y-87522854D01*
X163958762Y-87193969D01*
X163707355Y-86942122D01*
X163378708Y-86805656D01*
X163154066Y-86805459D01*
X163173338Y-86776910D01*
X163208816Y-86600000D01*
X163208816Y-86113158D01*
X163392601Y-85929373D01*
X163508000Y-85650776D01*
X163508000Y-85393500D01*
X163508000Y-85006500D01*
X163508000Y-84749224D01*
X163392601Y-84470627D01*
X163179372Y-84257398D01*
X162900775Y-84142000D01*
X162693500Y-84142000D01*
X162504000Y-84331500D01*
X162504000Y-85196000D01*
X163318500Y-85196000D01*
X163508000Y-85006500D01*
X163508000Y-85393500D01*
X163318500Y-85204000D01*
X162504000Y-85204000D01*
X162504000Y-85224000D01*
X162496000Y-85224000D01*
X162496000Y-85204000D01*
X162496000Y-85196000D01*
X162496000Y-84331500D01*
X162306500Y-84142000D01*
X162099225Y-84142000D01*
X161820628Y-84257398D01*
X161607399Y-84470627D01*
X161492000Y-84749224D01*
X161492000Y-85006500D01*
X161681500Y-85196000D01*
X162496000Y-85196000D01*
X162496000Y-85204000D01*
X161681500Y-85204000D01*
X161492000Y-85393500D01*
X161492000Y-85650776D01*
X161607399Y-85929373D01*
X161791184Y-86113158D01*
X161791184Y-86600000D01*
X161824475Y-86771583D01*
X161923000Y-86921569D01*
X161923000Y-86999994D01*
X161922999Y-87000000D01*
X161966922Y-87220808D01*
X162091999Y-87408001D01*
X162305568Y-87621570D01*
X162305345Y-87877146D01*
X162441238Y-88206031D01*
X162692645Y-88457878D01*
X163021292Y-88594344D01*
X163377146Y-88594655D01*
X163706031Y-88458762D01*
X163957878Y-88207355D01*
X164094344Y-87878708D01*
X164094655Y-87522854D01*
X164094655Y-93641184D01*
X163725000Y-93641184D01*
X163553417Y-93674475D01*
X163402610Y-93773539D01*
X163301662Y-93923090D01*
X163281625Y-94023000D01*
X163204909Y-94023000D01*
X163494407Y-93589735D01*
X163606000Y-93028721D01*
X163606000Y-92971279D01*
X163494407Y-92410265D01*
X163444502Y-92335577D01*
X163540040Y-92240040D01*
X163659612Y-92061088D01*
X163701600Y-91850000D01*
X163701600Y-91283187D01*
X163773338Y-91176910D01*
X163808816Y-91000000D01*
X163808816Y-90400000D01*
X163775525Y-90228417D01*
X163676461Y-90077610D01*
X163526910Y-89976662D01*
X163350000Y-89941184D01*
X163068401Y-89941184D01*
X163094344Y-89878708D01*
X163094655Y-89522854D01*
X162958762Y-89193969D01*
X162707355Y-88942122D01*
X162378708Y-88805656D01*
X162022854Y-88805345D01*
X161693969Y-88941238D01*
X161450000Y-89184780D01*
X161450000Y-84400303D01*
X161509612Y-84311088D01*
X161551600Y-84100000D01*
X161551600Y-84022962D01*
X161622390Y-83976461D01*
X161723338Y-83826910D01*
X161758816Y-83650000D01*
X161758816Y-83363158D01*
X161942601Y-83179373D01*
X162058000Y-82900776D01*
X162058000Y-82743500D01*
X161868500Y-82554000D01*
X161450000Y-82554000D01*
X161450000Y-82546000D01*
X161868500Y-82546000D01*
X162058000Y-82356500D01*
X162058000Y-82199224D01*
X161942601Y-81920627D01*
X161729372Y-81707398D01*
X161450775Y-81592000D01*
X161450000Y-81592000D01*
X161450000Y-76894159D01*
X161672076Y-76672082D01*
X161672080Y-76672080D01*
X161672080Y-76672079D01*
X161786145Y-76501368D01*
X161817128Y-76345606D01*
X161817129Y-76345606D01*
X161922390Y-76276461D01*
X162023338Y-76126910D01*
X162058816Y-75950000D01*
X162058816Y-75550000D01*
X162025525Y-75378417D01*
X161974007Y-75299991D01*
X162023338Y-75226910D01*
X162029849Y-75194438D01*
X162277146Y-75194655D01*
X162606031Y-75058762D01*
X162857878Y-74807355D01*
X162994344Y-74478708D01*
X162994655Y-74122854D01*
X162858762Y-73793969D01*
X162607355Y-73542122D01*
X162278708Y-73405656D01*
X161922854Y-73405345D01*
X161593969Y-73541238D01*
X161342122Y-73792645D01*
X161205656Y-74121292D01*
X161205634Y-74146000D01*
X160958000Y-74146000D01*
X160958000Y-74043500D01*
X160958000Y-73656500D01*
X160958000Y-73499224D01*
X160842601Y-73220627D01*
X160629372Y-73007398D01*
X160350775Y-72892000D01*
X160093500Y-72892000D01*
X159904000Y-73081500D01*
X159904000Y-73846000D01*
X160768500Y-73846000D01*
X160958000Y-73656500D01*
X160958000Y-74043500D01*
X160768500Y-73854000D01*
X159904000Y-73854000D01*
X159904000Y-73874000D01*
X159896000Y-73874000D01*
X159896000Y-73854000D01*
X159896000Y-73846000D01*
X159896000Y-73081500D01*
X159706500Y-72892000D01*
X159449225Y-72892000D01*
X159170628Y-73007398D01*
X158957399Y-73220627D01*
X158842000Y-73499224D01*
X158842000Y-73656500D01*
X159031500Y-73846000D01*
X159896000Y-73846000D01*
X159896000Y-73854000D01*
X159031500Y-73854000D01*
X158842000Y-74043500D01*
X158842000Y-74200776D01*
X158957399Y-74479373D01*
X159141184Y-74663158D01*
X159141184Y-74950000D01*
X159174475Y-75121583D01*
X159273539Y-75272390D01*
X159423090Y-75373338D01*
X159590725Y-75406956D01*
X159730591Y-75500411D01*
X160000000Y-75554000D01*
X160541184Y-75554000D01*
X160541184Y-75950000D01*
X160574475Y-76121583D01*
X160593141Y-76150000D01*
X156694543Y-76150000D01*
X156694655Y-76022854D01*
X156558762Y-75693969D01*
X156307355Y-75442122D01*
X155978708Y-75305656D01*
X155622854Y-75305345D01*
X155293969Y-75441238D01*
X155286902Y-75448291D01*
X155192602Y-75220628D01*
X154979373Y-75007399D01*
X154700776Y-74892000D01*
X154443500Y-74892000D01*
X154254000Y-75081500D01*
X154254000Y-75896000D01*
X154274000Y-75896000D01*
X154274000Y-75904000D01*
X154254000Y-75904000D01*
X154254000Y-75924000D01*
X154246000Y-75924000D01*
X154246000Y-75904000D01*
X154226000Y-75904000D01*
X154226000Y-75896000D01*
X154246000Y-75896000D01*
X154246000Y-75081500D01*
X154056500Y-74892000D01*
X153799224Y-74892000D01*
X153520627Y-75007399D01*
X153458000Y-75070026D01*
X153458000Y-73500776D01*
X153458000Y-73343500D01*
X153268500Y-73154000D01*
X152404000Y-73154000D01*
X152404000Y-73174000D01*
X152396000Y-73174000D01*
X152396000Y-73154000D01*
X151531500Y-73154000D01*
X151342000Y-73343500D01*
X151342000Y-73500776D01*
X151423173Y-73696746D01*
X151238331Y-73881588D01*
X151093969Y-73941238D01*
X150842122Y-74192645D01*
X150705656Y-74521292D01*
X150705345Y-74877146D01*
X150841238Y-75206031D01*
X151092645Y-75457878D01*
X151421292Y-75594344D01*
X151777146Y-75594655D01*
X152106031Y-75458762D01*
X152357878Y-75207355D01*
X152494344Y-74878708D01*
X152494492Y-74708816D01*
X152700000Y-74708816D01*
X152871583Y-74675525D01*
X153022390Y-74576461D01*
X153123338Y-74426910D01*
X153158816Y-74250000D01*
X153158816Y-73963158D01*
X153342601Y-73779373D01*
X153458000Y-73500776D01*
X153458000Y-75070026D01*
X153336842Y-75191184D01*
X152850000Y-75191184D01*
X152678417Y-75224475D01*
X152527610Y-75323539D01*
X152426662Y-75473090D01*
X152391184Y-75650000D01*
X152391184Y-76150000D01*
X151350000Y-76150000D01*
X151350000Y-77950000D01*
X151050000Y-77950000D01*
X151050000Y-78492000D01*
X150899225Y-78492000D01*
X150649999Y-78595231D01*
X150400775Y-78492000D01*
X150193500Y-78492000D01*
X150004000Y-78681500D01*
X150004000Y-78950000D01*
X149996000Y-78950000D01*
X149996000Y-78681500D01*
X149806500Y-78492000D01*
X149599225Y-78492000D01*
X149320628Y-78607398D01*
X149107399Y-78820627D01*
X149053810Y-78950000D01*
X148850000Y-78950000D01*
X148850000Y-79885130D01*
X148642122Y-80092645D01*
X148505656Y-80421292D01*
X148505345Y-80777146D01*
X148641238Y-81106031D01*
X148850000Y-81315158D01*
X148850000Y-82400000D01*
X148850000Y-84641184D01*
X148610000Y-84641184D01*
X148498182Y-84662879D01*
X148390000Y-84641184D01*
X148110000Y-84641184D01*
X147998182Y-84662879D01*
X147890000Y-84641184D01*
X147610000Y-84641184D01*
X147549227Y-84652975D01*
X147547763Y-82479263D01*
X147551500Y-82483000D01*
X147708776Y-82483000D01*
X147987373Y-82367601D01*
X148200602Y-82154372D01*
X148316000Y-81875775D01*
X148316000Y-81574224D01*
X148316000Y-81443500D01*
X148126500Y-81254000D01*
X147546938Y-81254000D01*
X147546933Y-81246000D01*
X148126500Y-81246000D01*
X148316000Y-81056500D01*
X148316000Y-80925776D01*
X148316000Y-80624225D01*
X148200602Y-80345628D01*
X147987373Y-80132399D01*
X147708776Y-80017000D01*
X147551500Y-80017000D01*
X147546108Y-80022391D01*
X147545921Y-79744052D01*
X147610601Y-79679373D01*
X147726000Y-79400776D01*
X147726000Y-79143500D01*
X147545395Y-78962895D01*
X147545377Y-78937122D01*
X147726000Y-78756500D01*
X147726000Y-78537420D01*
X147782600Y-78400775D01*
X147782600Y-78193500D01*
X147593100Y-78004000D01*
X147544749Y-78004000D01*
X147544744Y-77996000D01*
X147593100Y-77996000D01*
X147782600Y-77806500D01*
X147782600Y-77599225D01*
X147667202Y-77320628D01*
X147544206Y-77197632D01*
X147543568Y-76250000D01*
X148250000Y-76250000D01*
X148250000Y-71750000D01*
X146314500Y-71750000D01*
X146268500Y-71704000D01*
X145750000Y-71704000D01*
X145750000Y-71696000D01*
X146268500Y-71696000D01*
X146458000Y-71506500D01*
X146458000Y-71500000D01*
X151229303Y-71500000D01*
X151200157Y-71570194D01*
X151199844Y-71928236D01*
X151336572Y-72259143D01*
X151527560Y-72450465D01*
X151457399Y-72520627D01*
X151342000Y-72799224D01*
X151342000Y-72956500D01*
X151531500Y-73146000D01*
X152396000Y-73146000D01*
X152396000Y-73126000D01*
X152404000Y-73126000D01*
X152404000Y-73146000D01*
X153268500Y-73146000D01*
X153458000Y-72956500D01*
X153458000Y-72799224D01*
X153342601Y-72520627D01*
X153129372Y-72307398D01*
X152885072Y-72206206D01*
X152999843Y-71929806D01*
X153000156Y-71571764D01*
X152970503Y-71500000D01*
X158029303Y-71500000D01*
X158000157Y-71570194D01*
X157999844Y-71928236D01*
X158136572Y-72259143D01*
X158389525Y-72512538D01*
X158720194Y-72649843D01*
X159078236Y-72650156D01*
X159409143Y-72513428D01*
X159662538Y-72260475D01*
X159799843Y-71929806D01*
X159800156Y-71571764D01*
X159770503Y-71500000D01*
X163088453Y-71500000D01*
X163066218Y-71533277D01*
X162966227Y-72035970D01*
X163066218Y-72538663D01*
X163350971Y-72964825D01*
X163777133Y-73249578D01*
X164279826Y-73349569D01*
X164782519Y-73249578D01*
X165022860Y-73088986D01*
X164862269Y-73329328D01*
X164762278Y-73832021D01*
X164815036Y-74097255D01*
X163538090Y-75374202D01*
X163478515Y-75463361D01*
X163145705Y-75796172D01*
X163047918Y-75941040D01*
X163011330Y-76117725D01*
X163045697Y-76294854D01*
X163145705Y-76445036D01*
X163711461Y-77010792D01*
X163856329Y-77108579D01*
X164033014Y-77145167D01*
X164210143Y-77110800D01*
X164360325Y-77010792D01*
X164926081Y-76445036D01*
X165023868Y-76300168D01*
X165060456Y-76123483D01*
X165026089Y-75946354D01*
X164998532Y-75904971D01*
X165810642Y-75092861D01*
X166075877Y-75145620D01*
X166578570Y-75045629D01*
X166595512Y-75034308D01*
X166346490Y-75283331D01*
X166248703Y-75428199D01*
X166212115Y-75604884D01*
X166246482Y-75782013D01*
X166346490Y-75932195D01*
X166459344Y-76045049D01*
X165817151Y-76687242D01*
X165703828Y-76573919D01*
X165558960Y-76476132D01*
X165382275Y-76439544D01*
X165205146Y-76473911D01*
X165054964Y-76573919D01*
X164489208Y-77139675D01*
X164391421Y-77284543D01*
X164354833Y-77461228D01*
X164389200Y-77638357D01*
X164489208Y-77788539D01*
X165054964Y-78354295D01*
X165199832Y-78452082D01*
X165376517Y-78488670D01*
X165553646Y-78454303D01*
X165703828Y-78354295D01*
X165890016Y-78168107D01*
X166035893Y-78168107D01*
X166305302Y-78114518D01*
X166533696Y-77961910D01*
X167454950Y-77040655D01*
X167567805Y-77153510D01*
X167712673Y-77251297D01*
X167889358Y-77287885D01*
X168066487Y-77253518D01*
X168216669Y-77153510D01*
X168500000Y-76870179D01*
X168500000Y-92470341D01*
X168474816Y-92459910D01*
X168474816Y-90734000D01*
X168441525Y-90562417D01*
X168342461Y-90411610D01*
X168192910Y-90310662D01*
X168021068Y-90276200D01*
X168065340Y-90246619D01*
X168383128Y-89771014D01*
X168494721Y-89210000D01*
X168383128Y-88648986D01*
X168090101Y-88210438D01*
X168187583Y-88191525D01*
X168338390Y-88092461D01*
X168439338Y-87942910D01*
X168474816Y-87766000D01*
X168474816Y-85734000D01*
X168441525Y-85562417D01*
X168342461Y-85411610D01*
X168192910Y-85310662D01*
X168021068Y-85276200D01*
X168065340Y-85246619D01*
X168383128Y-84771014D01*
X168494721Y-84210000D01*
X168383128Y-83648986D01*
X168065340Y-83173381D01*
X167627000Y-82880492D01*
X167627000Y-82245558D01*
X167673338Y-82176910D01*
X167708816Y-82000000D01*
X167708816Y-81400000D01*
X167675525Y-81228417D01*
X167576461Y-81077610D01*
X167426910Y-80976662D01*
X167250000Y-80941184D01*
X166963158Y-80941184D01*
X166779373Y-80757399D01*
X166500776Y-80642000D01*
X166343500Y-80642000D01*
X166154000Y-80831500D01*
X166154000Y-81696000D01*
X166174000Y-81696000D01*
X166174000Y-81704000D01*
X166154000Y-81704000D01*
X166154000Y-82568500D01*
X166343500Y-82758000D01*
X166473000Y-82758000D01*
X166473000Y-82843114D01*
X166410265Y-82855593D01*
X166146000Y-83032168D01*
X166146000Y-82568500D01*
X166146000Y-81704000D01*
X166146000Y-81696000D01*
X166146000Y-80831500D01*
X165956500Y-80642000D01*
X165799224Y-80642000D01*
X165520627Y-80757399D01*
X165307398Y-80970628D01*
X165192000Y-81249225D01*
X165192000Y-81506500D01*
X165381500Y-81696000D01*
X166146000Y-81696000D01*
X166146000Y-81704000D01*
X165381500Y-81704000D01*
X165192000Y-81893500D01*
X165192000Y-82150775D01*
X165307398Y-82429372D01*
X165520627Y-82642601D01*
X165799224Y-82758000D01*
X165956500Y-82758000D01*
X166146000Y-82568500D01*
X166146000Y-83032168D01*
X165934660Y-83173381D01*
X165616872Y-83648986D01*
X165505279Y-84210000D01*
X165616872Y-84771014D01*
X165934660Y-85246619D01*
X165978893Y-85276174D01*
X165812417Y-85308475D01*
X165661610Y-85407539D01*
X165560662Y-85557090D01*
X165525184Y-85734000D01*
X165525184Y-87766000D01*
X165558475Y-87937583D01*
X165657539Y-88088390D01*
X165807090Y-88189338D01*
X165910183Y-88210012D01*
X165616872Y-88648986D01*
X165505279Y-89210000D01*
X165616872Y-89771014D01*
X165934660Y-90246619D01*
X165978893Y-90276174D01*
X165812417Y-90308475D01*
X165661610Y-90407539D01*
X165560662Y-90557090D01*
X165525184Y-90734000D01*
X165525184Y-92459910D01*
X165453028Y-92489798D01*
X165239799Y-92703027D01*
X165124400Y-92981624D01*
X165124400Y-94056500D01*
X165313900Y-94246000D01*
X166996000Y-94246000D01*
X166996000Y-94226000D01*
X167004000Y-94226000D01*
X167004000Y-94246000D01*
X167024000Y-94246000D01*
X167024000Y-94254000D01*
X167004000Y-94254000D01*
X167004000Y-95936100D01*
X167193500Y-96125600D01*
X167966824Y-96125600D01*
X168268375Y-96125600D01*
X168500000Y-96029658D01*
X168500000Y-103088453D01*
M02*
