G04 #@! TF.FileFunction,Soldermask,Bot*
%FSLAX46Y46*%
G04 Gerber Fmt 4.6, Leading zero omitted, Abs format (unit mm)*
G04 Created by KiCad (PCBNEW (2014-12-04 BZR 5312)-product) date 8/23/2015 4:43:04 PM*
%MOMM*%
G01*
G04 APERTURE LIST*
%ADD10C,0.100000*%
%ADD11R,2.032000X2.032000*%
%ADD12O,2.032000X2.032000*%
%ADD13R,1.200000X2.500000*%
%ADD14C,0.900000*%
%ADD15R,1.000000X1.000000*%
%ADD16C,1.727200*%
%ADD17R,2.235200X2.235200*%
%ADD18C,1.500000*%
%ADD19C,2.000000*%
%ADD20R,2.999740X1.501140*%
%ADD21R,1.143000X0.508000*%
G04 APERTURE END LIST*
D10*
G36*
X161565685Y-103828427D02*
X162767767Y-105030509D01*
X161777817Y-106020459D01*
X160575735Y-104818377D01*
X161565685Y-103828427D01*
X161565685Y-103828427D01*
G37*
G36*
X163192031Y-102202081D02*
X164394113Y-103404163D01*
X163404163Y-104394113D01*
X162202081Y-103192031D01*
X163192031Y-102202081D01*
X163192031Y-102202081D01*
G37*
G36*
X164818377Y-100575735D02*
X166020459Y-101777817D01*
X165030509Y-102767767D01*
X163828427Y-101565685D01*
X164818377Y-100575735D01*
X164818377Y-100575735D01*
G37*
G36*
X159515076Y-96686649D02*
X160717157Y-97888730D01*
X157888730Y-100717157D01*
X156686649Y-99515076D01*
X159515076Y-96686649D01*
X159515076Y-96686649D01*
G37*
D11*
X167000000Y-91750000D03*
D12*
X167000000Y-89210000D03*
D10*
G36*
X135671573Y-101565685D02*
X134469491Y-102767767D01*
X133479541Y-101777817D01*
X134681623Y-100575735D01*
X135671573Y-101565685D01*
X135671573Y-101565685D01*
G37*
G36*
X137297919Y-103192031D02*
X136095837Y-104394113D01*
X135105887Y-103404163D01*
X136307969Y-102202081D01*
X137297919Y-103192031D01*
X137297919Y-103192031D01*
G37*
G36*
X138924265Y-104818377D02*
X137722183Y-106020459D01*
X136732233Y-105030509D01*
X137934315Y-103828427D01*
X138924265Y-104818377D01*
X138924265Y-104818377D01*
G37*
G36*
X142813351Y-99515076D02*
X141611270Y-100717157D01*
X138782843Y-97888730D01*
X139984924Y-96686649D01*
X142813351Y-99515076D01*
X142813351Y-99515076D01*
G37*
G36*
X165228427Y-78634315D02*
X166430509Y-77432233D01*
X167420459Y-78422183D01*
X166218377Y-79624265D01*
X165228427Y-78634315D01*
X165228427Y-78634315D01*
G37*
G36*
X163602081Y-77007969D02*
X164804163Y-75805887D01*
X165794113Y-76795837D01*
X164592031Y-77997919D01*
X163602081Y-77007969D01*
X163602081Y-77007969D01*
G37*
G36*
X161975735Y-75381623D02*
X163177817Y-74179541D01*
X164167767Y-75169491D01*
X162965685Y-76371573D01*
X161975735Y-75381623D01*
X161975735Y-75381623D01*
G37*
G36*
X158086649Y-80684924D02*
X159288730Y-79482843D01*
X162117157Y-82311270D01*
X160915076Y-83513351D01*
X158086649Y-80684924D01*
X158086649Y-80684924D01*
G37*
G36*
X137934315Y-77671573D02*
X136732233Y-76469491D01*
X137722183Y-75479541D01*
X138924265Y-76681623D01*
X137934315Y-77671573D01*
X137934315Y-77671573D01*
G37*
G36*
X136307969Y-79297919D02*
X135105887Y-78095837D01*
X136095837Y-77105887D01*
X137297919Y-78307969D01*
X136307969Y-79297919D01*
X136307969Y-79297919D01*
G37*
G36*
X134681623Y-80924265D02*
X133479541Y-79722183D01*
X134469491Y-78732233D01*
X135671573Y-79934315D01*
X134681623Y-80924265D01*
X134681623Y-80924265D01*
G37*
G36*
X139984924Y-84813351D02*
X138782843Y-83611270D01*
X141611270Y-80782843D01*
X142813351Y-81984924D01*
X139984924Y-84813351D01*
X139984924Y-84813351D01*
G37*
D13*
X155500000Y-74500000D03*
X153000000Y-74500000D03*
X158000000Y-74500000D03*
D14*
X158900000Y-71750000D03*
X152100000Y-71750000D03*
D10*
G36*
X154983633Y-84901974D02*
X155407897Y-84477710D01*
X156503913Y-85573726D01*
X156079649Y-85997990D01*
X154983633Y-84901974D01*
X154983633Y-84901974D01*
G37*
G36*
X155881659Y-84003948D02*
X156305923Y-83579684D01*
X157401939Y-84675700D01*
X156977675Y-85099964D01*
X155881659Y-84003948D01*
X155881659Y-84003948D01*
G37*
G36*
X156779684Y-83105923D02*
X157203948Y-82681659D01*
X158299964Y-83777675D01*
X157875700Y-84201939D01*
X156779684Y-83105923D01*
X156779684Y-83105923D01*
G37*
G36*
X157677710Y-82207897D02*
X158101974Y-81783633D01*
X159197990Y-82879649D01*
X158773726Y-83303913D01*
X157677710Y-82207897D01*
X157677710Y-82207897D01*
G37*
G36*
X161496087Y-86026274D02*
X161920351Y-85602010D01*
X163016367Y-86698026D01*
X162592103Y-87122290D01*
X161496087Y-86026274D01*
X161496087Y-86026274D01*
G37*
G36*
X160598061Y-86924300D02*
X161022325Y-86500036D01*
X162118341Y-87596052D01*
X161694077Y-88020316D01*
X160598061Y-86924300D01*
X160598061Y-86924300D01*
G37*
G36*
X159700036Y-87822325D02*
X160124300Y-87398061D01*
X161220316Y-88494077D01*
X160796052Y-88918341D01*
X159700036Y-87822325D01*
X159700036Y-87822325D01*
G37*
G36*
X158802010Y-88720351D02*
X159226274Y-88296087D01*
X160322290Y-89392103D01*
X159898026Y-89816367D01*
X158802010Y-88720351D01*
X158802010Y-88720351D01*
G37*
D15*
X150000000Y-90000000D03*
X150000000Y-88000000D03*
X148000000Y-88000000D03*
X148000000Y-90000000D03*
X148000000Y-92000000D03*
X150000000Y-92000000D03*
X152000000Y-88000000D03*
X152000000Y-90000000D03*
X152000000Y-92000000D03*
D10*
G36*
X131892237Y-105829078D02*
X130670922Y-104607763D01*
X132107763Y-103170922D01*
X133329078Y-104392237D01*
X131892237Y-105829078D01*
X131892237Y-105829078D01*
G37*
D16*
X133688288Y-106403814D02*
X133903814Y-106188288D01*
X135484339Y-108199865D02*
X135699865Y-107984339D01*
D10*
G36*
X168107763Y-74170922D02*
X169329078Y-75392237D01*
X167892237Y-76829078D01*
X166670922Y-75607763D01*
X168107763Y-74170922D01*
X168107763Y-74170922D01*
G37*
D16*
X166311712Y-73596186D02*
X166096186Y-73811712D01*
X164515661Y-71800135D02*
X164300135Y-72015661D01*
D10*
G36*
X165829078Y-108107763D02*
X164607763Y-109329078D01*
X163170922Y-107892237D01*
X164392237Y-106670922D01*
X165829078Y-108107763D01*
X165829078Y-108107763D01*
G37*
D16*
X166403814Y-106311712D02*
X166188288Y-106096186D01*
X168199865Y-104515661D02*
X167984339Y-104300135D01*
D10*
G36*
X134170922Y-71892237D02*
X135392237Y-70670922D01*
X136829078Y-72107763D01*
X135607763Y-73329078D01*
X134170922Y-71892237D01*
X134170922Y-71892237D01*
G37*
D16*
X133596186Y-73688288D02*
X133811712Y-73903814D01*
X131800135Y-75484339D02*
X132015661Y-75699865D01*
D11*
X167000000Y-86750000D03*
D12*
X167000000Y-84210000D03*
D17*
X167000000Y-94250000D03*
D18*
X157500000Y-105500000D03*
X155500000Y-105500000D03*
D19*
X133500000Y-88900000D03*
X133500000Y-83900000D03*
D20*
X145001020Y-103500000D03*
X148998980Y-103500000D03*
X145001020Y-106500000D03*
X148998980Y-106500000D03*
D11*
X159600000Y-93000000D03*
D12*
X162140000Y-93000000D03*
D21*
X155575000Y-101505000D03*
X155575000Y-100235000D03*
X155575000Y-98965000D03*
X155575000Y-97695000D03*
X149225000Y-97695000D03*
X149225000Y-98965000D03*
X149225000Y-100235000D03*
X149225000Y-101505000D03*
M02*
